<?xml version="1.0" encoding="UTF-8"?>
<svg xmlns="http://www.w3.org/2000/svg" xmlns:xlink="http://www.w3.org/1999/xlink" width="416.956pt" height="480pt" viewBox="0 0 416.956 480">
<path fill-rule="evenodd" fill="rgb(9.143066%, 9.510803%, 9.251404%)" fill-opacity="1" d="M 122.296875 331.695312 L 126.386719 331.695312 L 126.386719 347.308594 C 126.386719 348.542969 126.761719 349.550781 127.519531 350.328125 C 128.277344 351.101562 129.3125 351.488281 130.632812 351.488281 C 132.113281 351.488281 133.261719 351.105469 134.082031 350.351562 C 134.910156 349.589844 135.3125 348.554688 135.3125 347.226562 L 135.3125 331.695312 L 139.40625 331.695312 L 139.40625 347.542969 C 139.40625 349.910156 138.609375 351.765625 137.023438 353.101562 C 135.433594 354.445312 133.3125 355.125 130.664062 355.125 C 127.992188 355.125 125.933594 354.457031 124.476562 353.15625 C 123.03125 351.839844 122.296875 349.96875 122.296875 347.527344 Z M 155.734375 354.984375 L 146.796875 343.3125 L 146.796875 354.738281 L 143.652344 354.738281 L 143.652344 336.300781 L 145.222656 336.300781 L 153.921875 347.417969 L 153.921875 336.300781 L 157.0625 336.300781 L 157.0625 354.984375 Z M 160.902344 336.300781 L 164.179688 336.300781 L 164.179688 354.722656 L 160.902344 354.722656 Z M 174.871094 354.984375 L 173.074219 354.984375 L 166.1875 336.300781 L 169.78125 336.300781 L 174.050781 348.753906 L 178.550781 336.300781 L 182.074219 336.300781 Z M 187.292969 339.207031 L 187.292969 343.523438 L 193.378906 343.523438 L 193.378906 346.304688 L 187.292969 346.304688 L 187.292969 351.828125 L 195.640625 351.828125 L 195.640625 354.722656 L 184.023438 354.722656 L 184.023438 336.300781 L 195.78125 336.300781 L 195.78125 339.207031 Z M 209.0625 354.722656 L 204.140625 347.117188 C 203.648438 347.105469 202.957031 347.082031 202.066406 347.035156 L 202.066406 354.722656 L 198.675781 354.722656 L 198.675781 336.300781 C 198.855469 336.300781 199.5625 336.269531 200.800781 336.210938 C 202.027344 336.140625 203.027344 336.113281 203.773438 336.113281 C 208.457031 336.113281 210.792969 337.925781 210.792969 341.542969 C 210.792969 342.640625 210.472656 343.628906 209.824219 344.53125 C 209.179688 345.414062 208.371094 346.050781 207.390625 346.429688 L 212.835938 354.722656 Z M 202.066406 339.140625 L 202.066406 344.257812 C 202.671875 344.3125 203.132812 344.339844 203.449219 344.339844 C 204.820312 344.339844 205.816406 344.144531 206.449219 343.761719 C 207.082031 343.367188 207.398438 342.621094 207.398438 341.511719 C 207.398438 340.605469 207.058594 339.96875 206.378906 339.609375 C 205.703125 339.253906 204.636719 339.066406 203.175781 339.066406 C 202.824219 339.066406 202.449219 339.097656 202.066406 339.140625 M 213.527344 353.707031 L 214.734375 350.78125 C 216.023438 351.6875 217.296875 352.132812 218.542969 352.132812 C 220.457031 352.132812 221.417969 351.464844 221.417969 350.125 C 221.417969 349.492188 221.195312 348.894531 220.742188 348.320312 C 220.292969 347.75 219.359375 347.117188 217.945312 346.40625 C 216.527344 345.699219 215.585938 345.109375 215.089844 344.660156 C 214.601562 344.199219 214.226562 343.65625 213.957031 343.027344 C 213.695312 342.402344 213.566406 341.703125 213.566406 340.945312 C 213.566406 339.515625 214.082031 338.335938 215.125 337.394531 C 216.167969 336.453125 217.511719 335.988281 219.144531 335.988281 C 221.273438 335.988281 222.839844 336.382812 223.835938 337.175781 L 222.84375 340 C 221.695312 339.175781 220.480469 338.769531 219.210938 338.769531 C 218.457031 338.769531 217.871094 338.964844 217.453125 339.367188 C 217.042969 339.761719 216.832031 340.277344 216.832031 340.917969 C 216.832031 341.96875 218.003906 343.070312 220.34375 344.214844 C 221.578125 344.816406 222.460938 345.375 223.007812 345.878906 C 223.550781 346.382812 223.972656 346.976562 224.253906 347.652344 C 224.539062 348.320312 224.679688 349.082031 224.679688 349.910156 C 224.679688 351.402344 224.09375 352.628906 222.910156 353.589844 C 221.738281 354.554688 220.148438 355.042969 218.179688 355.042969 C 216.457031 355.042969 214.90625 354.597656 213.527344 353.707031 M 227.632812 336.300781 L 230.90625 336.300781 L 230.90625 354.722656 L 227.632812 354.722656 Z M 238.828125 354.722656 L 234.746094 354.722656 L 234.746094 336.3125 C 237.351562 336.226562 238.988281 336.171875 239.664062 336.171875 C 242.34375 336.171875 244.472656 336.960938 246.039062 338.535156 C 247.613281 340.101562 248.402344 342.191406 248.402344 344.792969 C 248.402344 351.414062 245.207031 354.722656 238.828125 354.722656 M 238.011719 339.171875 L 238.011719 351.75 C 238.535156 351.796875 239.113281 351.828125 239.722656 351.828125 C 241.378906 351.828125 242.667969 351.222656 243.601562 350.023438 C 244.539062 348.824219 245.003906 347.144531 245.003906 344.988281 C 245.003906 341.050781 243.171875 339.082031 239.511719 339.082031 C 239.15625 339.082031 238.660156 339.113281 238.011719 339.171875 M 262.042969 354.722656 L 260.699219 350.988281 L 254.382812 350.988281 L 253.101562 354.722656 L 249.464844 354.722656 L 256.8125 336.046875 L 258.25 336.046875 L 265.65625 354.722656 Z M 257.527344 341.6875 L 255.320312 348.480469 L 259.746094 348.480469 Z M 271.691406 354.722656 L 267.605469 354.722656 L 267.605469 336.3125 C 270.214844 336.226562 271.851562 336.171875 272.519531 336.171875 C 275.203125 336.171875 277.332031 336.960938 278.902344 338.535156 C 280.472656 340.101562 281.265625 342.191406 281.265625 344.792969 C 281.265625 351.414062 278.066406 354.722656 271.691406 354.722656 M 270.875 339.171875 L 270.875 351.75 C 271.398438 351.796875 271.972656 351.828125 272.589844 351.828125 C 274.238281 351.828125 275.535156 351.222656 276.464844 350.023438 C 277.398438 348.824219 277.863281 347.144531 277.863281 344.988281 C 277.863281 341.050781 276.039062 339.082031 272.371094 339.082031 C 272.015625 339.082031 271.515625 339.113281 270.875 339.171875 M 287.421875 339.207031 L 287.421875 343.523438 L 293.507812 343.523438 L 293.507812 346.304688 L 287.421875 346.304688 L 287.421875 351.828125 L 295.773438 351.828125 L 295.773438 354.722656 L 284.15625 354.722656 L 284.15625 336.300781 L 295.914062 336.300781 L 295.914062 339.207031 Z M 159.816406 369.636719 L 159.816406 375.03125 L 167.914062 375.03125 L 167.914062 378.503906 L 159.816406 378.503906 L 159.816406 389.039062 L 155.730469 389.039062 L 155.730469 366.003906 L 170.90625 366.003906 L 170.90625 369.636719 Z M 177.316406 373.515625 L 177.316406 377.828125 L 183.402344 377.828125 L 183.402344 380.605469 L 177.316406 380.605469 L 177.316406 386.132812 L 185.664062 386.132812 L 185.664062 389.039062 L 174.050781 389.039062 L 174.050781 370.605469 L 185.808594 370.605469 L 185.808594 373.515625 Z M 192.78125 389.039062 L 188.699219 389.039062 L 188.699219 370.628906 C 191.308594 370.535156 192.941406 370.488281 193.613281 370.488281 C 196.296875 370.488281 198.421875 371.269531 199.992188 372.84375 C 201.566406 374.414062 202.351562 376.496094 202.351562 379.097656 C 202.351562 385.726562 199.160156 389.039062 192.78125 389.039062 M 191.964844 373.476562 L 191.964844 386.054688 C 192.492188 386.101562 193.066406 386.132812 193.679688 386.132812 C 195.328125 386.132812 196.625 385.535156 197.558594 384.324219 C 198.492188 383.136719 198.957031 381.453125 198.957031 379.304688 C 198.957031 375.363281 197.128906 373.390625 193.464844 373.390625 C 193.109375 373.390625 192.609375 373.421875 191.964844 373.476562 M 208.511719 373.515625 L 208.511719 377.828125 L 214.601562 377.828125 L 214.601562 380.605469 L 208.511719 380.605469 L 208.511719 386.132812 L 216.863281 386.132812 L 216.863281 389.039062 L 205.246094 389.039062 L 205.246094 370.605469 L 217 370.605469 L 217 373.515625 Z M 230.28125 389.039062 L 225.363281 381.429688 C 224.871094 381.414062 224.179688 381.386719 223.285156 381.339844 L 223.285156 389.039062 L 219.894531 389.039062 L 219.894531 370.605469 C 220.078125 370.605469 220.78125 370.578125 222.023438 370.515625 C 223.25 370.457031 224.25 370.417969 224.996094 370.417969 C 229.679688 370.417969 232.015625 372.234375 232.015625 375.859375 C 232.015625 376.941406 231.695312 377.941406 231.046875 378.832031 C 230.402344 379.730469 229.59375 380.367188 228.613281 380.734375 L 234.058594 389.039062 Z M 223.285156 373.453125 L 223.285156 378.574219 C 223.894531 378.613281 224.355469 378.644531 224.671875 378.644531 C 226.042969 378.644531 227.039062 378.453125 227.667969 378.066406 C 228.308594 377.683594 228.621094 376.9375 228.621094 375.8125 C 228.621094 374.910156 228.285156 374.277344 227.601562 373.921875 C 226.925781 373.558594 225.859375 373.378906 224.398438 373.378906 C 224.042969 373.378906 223.675781 373.40625 223.285156 373.453125 M 245.574219 389.039062 L 249.183594 389.039062 L 241.777344 370.363281 L 240.34375 370.363281 L 233 389.039062 L 236.628906 389.039062 L 237.917969 385.304688 L 244.230469 385.304688 Z M 241.0625 375.996094 L 243.277344 382.796875 L 238.851562 382.796875 Z M 251.136719 389.039062 L 251.136719 370.605469 L 254.40625 370.605469 L 254.40625 386.132812 L 262.734375 386.132812 L 262.734375 389.039062 Z M 109.636719 423.347656 L 105.550781 423.347656 L 105.550781 404.929688 C 108.160156 404.839844 109.792969 404.792969 110.46875 404.792969 C 113.148438 404.792969 115.273438 405.578125 116.84375 407.148438 C 118.414062 408.722656 119.210938 410.816406 119.210938 413.402344 C 119.210938 420.035156 116.015625 423.347656 109.636719 423.347656 M 108.820312 407.785156 L 108.820312 420.367188 C 109.347656 420.417969 109.917969 420.445312 110.53125 420.445312 C 112.183594 420.445312 113.480469 419.84375 114.410156 418.644531 C 115.34375 417.445312 115.8125 415.765625 115.8125 413.613281 C 115.8125 409.667969 113.980469 407.699219 110.316406 407.699219 C 109.960938 407.699219 109.460938 407.734375 108.820312 407.785156 M 125.371094 407.820312 L 125.371094 412.140625 L 131.453125 412.140625 L 131.453125 414.921875 L 125.371094 414.921875 L 125.371094 420.445312 L 133.71875 420.445312 L 133.71875 423.347656 L 122.101562 423.347656 L 122.101562 404.917969 L 133.855469 404.917969 L 133.855469 407.820312 Z M 151.007812 414.871094 L 151.007812 423.347656 L 146.917969 423.347656 L 146.917969 400.332031 C 149.644531 400.210938 151.238281 400.160156 151.699219 400.160156 C 155.339844 400.160156 157.996094 400.71875 159.679688 401.835938 C 161.359375 402.945312 162.203125 404.691406 162.203125 407.058594 C 162.203125 412.34375 159.085938 414.976562 152.863281 414.976562 C 152.402344 414.976562 151.785156 414.941406 151.007812 414.871094 M 151.007812 403.863281 L 151.007812 411.238281 C 151.699219 411.3125 152.246094 411.355469 152.640625 411.355469 C 154.515625 411.355469 155.871094 411.042969 156.730469 410.414062 C 157.59375 409.792969 158.023438 408.777344 158.023438 407.371094 C 158.023438 404.976562 156.09375 403.789062 152.25 403.789062 C 151.824219 403.789062 151.40625 403.808594 151.007812 403.863281 M 168.613281 407.820312 L 168.613281 412.140625 L 174.699219 412.140625 L 174.699219 414.921875 L 168.613281 414.921875 L 168.613281 420.445312 L 176.964844 420.445312 L 176.964844 423.347656 L 165.347656 423.347656 L 165.347656 404.917969 L 177.101562 404.917969 L 177.101562 407.820312 Z M 190.382812 423.347656 L 185.460938 415.734375 C 184.96875 415.722656 184.277344 415.703125 183.386719 415.644531 L 183.386719 423.347656 L 179.992188 423.347656 L 179.992188 404.917969 C 180.175781 404.917969 180.886719 404.890625 182.121094 404.828125 C 183.347656 404.765625 184.34375 404.726562 185.097656 404.726562 C 189.777344 404.726562 192.113281 406.539062 192.113281 410.164062 C 192.113281 411.253906 191.796875 412.246094 191.144531 413.144531 C 190.503906 414.039062 189.691406 414.667969 188.710938 415.042969 L 194.15625 423.347656 Z M 183.386719 407.761719 L 183.386719 412.878906 C 183.996094 412.929688 184.453125 412.953125 184.769531 412.953125 C 186.140625 412.953125 187.136719 412.765625 187.769531 412.378906 C 188.402344 411.996094 188.71875 411.246094 188.71875 410.128906 C 188.71875 409.222656 188.382812 408.589844 187.699219 408.226562 C 187.023438 407.871094 185.953125 407.679688 184.496094 407.679688 C 184.140625 407.679688 183.769531 407.710938 183.386719 407.761719 M 207.8125 423.59375 L 198.875 411.933594 L 198.875 423.355469 L 195.726562 423.355469 L 195.726562 404.917969 L 197.296875 404.917969 L 205.996094 416.035156 L 205.996094 404.917969 L 209.140625 404.917969 L 209.140625 423.59375 Z M 223.667969 423.347656 L 222.328125 419.609375 L 216.007812 419.609375 L 214.730469 423.347656 L 211.097656 423.347656 L 218.4375 404.679688 L 219.871094 404.679688 L 227.277344 423.347656 Z M 219.160156 410.300781 L 216.945312 417.101562 L 221.375 417.101562 Z M 246.410156 423.355469 L 243.242188 423.355469 L 241.324219 413.425781 L 237.617188 423.59375 L 236.453125 423.59375 L 232.738281 413.425781 L 230.753906 423.355469 L 227.597656 423.355469 L 231.304688 404.917969 L 233.046875 404.917969 L 237.03125 417.339844 L 240.929688 404.917969 L 242.648438 404.917969 Z M 254.0625 423.347656 L 248.429688 423.347656 L 248.429688 404.929688 C 250.90625 404.816406 252.644531 404.757812 253.644531 404.757812 C 255.554688 404.757812 257.050781 405.160156 258.128906 405.976562 C 259.207031 406.796875 259.746094 407.960938 259.746094 409.488281 C 259.746094 410.945312 258.972656 412.097656 257.433594 412.941406 C 259.714844 413.746094 260.867188 415.378906 260.867188 417.867188 C 260.867188 419.550781 260.230469 420.882812 258.964844 421.871094 C 257.699219 422.851562 256.0625 423.347656 254.0625 423.347656 M 251.695312 407.542969 L 251.695312 411.960938 C 252.199219 411.996094 252.726562 412.011719 253.277344 412.011719 C 255.410156 412.011719 256.476562 411.214844 256.476562 409.609375 C 256.476562 408.199219 255.503906 407.488281 253.570312 407.488281 C 253.0625 407.488281 252.429688 407.5 251.695312 407.542969 M 251.695312 414.515625 L 251.695312 420.601562 C 252.355469 420.660156 252.894531 420.6875 253.304688 420.6875 C 254.765625 420.6875 255.820312 420.445312 256.484375 419.949219 C 257.132812 419.453125 257.472656 418.636719 257.472656 417.484375 C 257.472656 416.433594 257.164062 415.675781 256.554688 415.191406 C 255.941406 414.71875 254.863281 414.480469 253.34375 414.480469 C 253.027344 414.480469 252.46875 414.488281 251.695312 414.515625 M 263.753906 404.917969 L 267.027344 404.917969 L 267.027344 417.40625 C 267.027344 418.394531 267.328125 419.199219 267.9375 419.824219 C 268.53125 420.445312 269.367188 420.757812 270.425781 420.757812 C 271.605469 420.757812 272.527344 420.453125 273.179688 419.84375 C 273.839844 419.230469 274.164062 418.40625 274.164062 417.347656 L 274.164062 404.917969 L 277.441406 404.917969 L 277.441406 417.597656 C 277.441406 419.488281 276.800781 420.972656 275.535156 422.050781 C 274.265625 423.125 272.570312 423.664062 270.449219 423.664062 C 268.3125 423.664062 266.664062 423.128906 265.496094 422.089844 C 264.339844 421.039062 263.753906 419.539062 263.753906 417.585938 Z M 293.839844 405.902344 L 292.496094 408.601562 C 291.765625 407.878906 290.59375 407.507812 288.972656 407.507812 C 287.441406 407.507812 286.179688 408.15625 285.199219 409.445312 C 284.222656 410.726562 283.726562 412.355469 283.726562 414.324219 C 283.726562 416.300781 284.179688 417.859375 285.09375 419.015625 C 286 420.175781 287.210938 420.757812 288.734375 420.757812 C 290.472656 420.757812 291.828125 420.136719 292.808594 418.894531 L 294.332031 421.53125 C 293 422.953125 291.039062 423.664062 288.46875 423.664062 C 285.894531 423.664062 283.898438 422.8125 282.472656 421.121094 C 281.046875 419.429688 280.332031 417.117188 280.332031 414.1875 C 280.332031 411.46875 281.125 409.179688 282.699219 407.355469 C 284.28125 405.523438 286.308594 404.605469 288.769531 404.605469 C 290.886719 404.605469 292.574219 405.035156 293.839844 405.902344 M 296.09375 413.972656 C 296.09375 411.355469 296.808594 409.132812 298.246094 407.3125 C 299.6875 405.503906 301.613281 404.589844 304.011719 404.589844 C 306.667969 404.589844 308.691406 405.410156 310.089844 407.058594 C 311.488281 408.699219 312.191406 411.011719 312.191406 413.972656 C 312.191406 416.941406 311.457031 419.292969 309.996094 421.042969 C 308.53125 422.785156 306.457031 423.664062 303.761719 423.664062 C 301.289062 423.664062 299.394531 422.800781 298.074219 421.070312 C 296.757812 419.34375 296.09375 416.972656 296.09375 413.972656 M 299.484375 413.972656 C 299.484375 416.125 299.851562 417.796875 300.582031 418.980469 C 301.3125 420.164062 302.371094 420.757812 303.761719 420.757812 C 305.402344 420.757812 306.644531 420.175781 307.503906 419.015625 C 308.367188 417.859375 308.792969 416.179688 308.792969 413.972656 C 308.792969 409.65625 307.203125 407.492188 304.011719 407.492188 C 302.558594 407.492188 301.441406 408.085938 300.65625 409.25 C 299.878906 410.417969 299.484375 411.996094 299.484375 413.972656 "/>
<path fill-rule="evenodd" fill="rgb(60.647583%, 12.168884%, 23.687744%)" fill-opacity="1" d="M 128.660156 272.105469 C 184.15625 259.542969 244.011719 262.511719 287.84375 272.105469 L 285.144531 287.722656 C 288.265625 288.296875 291.539062 288.972656 294.851562 289.730469 L 290.378906 311.363281 C 284.554688 309.828125 266.730469 306.648438 260.191406 306.304688 L 282.027344 300.335938 L 282.027344 299.964844 C 239.105469 290.890625 184.988281 288.578125 133.828125 300.09375 L 133.828125 300.335938 L 155.808594 306.292969 C 149.386719 306.597656 131.339844 309.816406 125.480469 311.363281 L 121.003906 289.730469 C 124.542969 288.910156 128.019531 288.207031 131.339844 287.609375 Z M 163.964844 108.96875 C 160.019531 109 147.46875 106.703125 147.398438 98.382812 C 147.371094 95.21875 150.023438 92.257812 151.597656 89.53125 C 161.3125 76.511719 166.792969 70.550781 159.921875 58.402344 C 162.058594 58.777344 165.316406 61.765625 167.003906 63.953125 C 169.984375 69.085938 170.265625 74.421875 168.355469 80.347656 C 166.339844 85.28125 159.746094 91.445312 161.816406 97.105469 C 163.753906 102.394531 170.515625 102.820312 168.320312 97.253906 C 167.1875 94.394531 165.777344 94.105469 166.664062 90.800781 C 168.09375 85.464844 174.96875 78.703125 171.957031 72.28125 C 178.882812 76.234375 174.628906 87.007812 175.28125 88.882812 C 175.648438 90.449219 181 95.199219 180.601562 98.417969 C 179.621094 106.316406 170.449219 109.335938 163.964844 108.96875 M 208.15625 106.910156 C 204.214844 106.9375 191.660156 104.636719 191.589844 96.320312 C 191.566406 93.167969 194.214844 90.191406 195.792969 87.464844 C 205.507812 74.449219 210.988281 68.484375 204.117188 56.339844 C 206.25 56.71875 209.511719 59.703125 211.199219 61.898438 C 214.175781 67.015625 214.457031 72.359375 212.546875 78.289062 C 210.535156 83.21875 203.941406 89.382812 206.011719 95.046875 C 207.945312 100.332031 214.710938 100.757812 212.511719 95.199219 C 211.378906 92.332031 209.972656 92.046875 210.863281 88.734375 C 212.289062 83.402344 219.160156 76.644531 216.152344 70.230469 C 223.078125 74.171875 218.824219 84.949219 219.476562 86.828125 C 219.84375 88.386719 225.191406 93.140625 224.792969 96.355469 C 223.8125 104.261719 214.640625 107.273438 208.15625 106.910156 M 252.351562 108.96875 C 248.410156 109 235.851562 106.703125 235.785156 98.382812 C 235.757812 95.21875 238.410156 92.257812 239.984375 89.53125 C 249.699219 76.511719 255.179688 70.550781 248.308594 58.402344 C 250.445312 58.777344 253.707031 61.765625 255.394531 63.953125 C 258.371094 69.085938 258.652344 74.421875 256.742188 80.347656 C 254.726562 85.28125 248.132812 91.445312 250.207031 97.105469 C 252.136719 102.394531 258.90625 102.820312 256.703125 97.253906 C 255.570312 94.394531 254.167969 94.105469 255.054688 90.800781 C 256.480469 85.464844 263.351562 78.703125 260.339844 72.28125 C 267.269531 76.234375 263.019531 87.007812 263.671875 88.882812 C 264.039062 90.449219 269.386719 95.199219 268.988281 98.417969 C 268.007812 106.316406 258.832031 109.335938 252.351562 108.96875 M 142.039062 290.59375 L 144.363281 290.167969 L 146.375 278 L 144.707031 278.304688 L 143.140625 287.722656 L 138.4375 279.4375 L 135.964844 279.894531 Z M 149.898438 289.082031 L 152.226562 288.738281 L 150.65625 277.226562 L 148.332031 277.566406 Z M 155.082031 288.140625 L 157.28125 287.863281 L 156.71875 283.144531 L 158 282.984375 L 161.347656 287.34375 L 164.191406 286.992188 L 159.878906 282.066406 C 160.535156 281.65625 161.015625 281.132812 161.320312 280.480469 C 161.628906 279.835938 161.738281 279.175781 161.660156 278.5 C 161.59375 277.929688 161.402344 277.4375 161.085938 277.023438 C 160.773438 276.605469 160.378906 276.316406 159.90625 276.152344 C 159.429688 275.992188 158.757812 275.957031 157.902344 276.070312 L 153.710938 276.597656 Z M 156.53125 281.566406 L 157.0625 281.496094 C 158.027344 281.371094 158.667969 281.078125 158.980469 280.597656 C 159.292969 280.113281 159.417969 279.609375 159.355469 279.054688 C 159.292969 278.582031 159.101562 278.230469 158.769531 277.992188 C 158.441406 277.746094 157.816406 277.6875 156.90625 277.804688 L 156.09375 277.90625 Z M 168.507812 286.488281 L 170.855469 286.28125 L 170.007812 276.285156 L 174.035156 275.921875 L 173.898438 274.335938 L 163.492188 275.269531 L 163.625 276.851562 L 167.652344 276.5 Z M 175.621094 274.203125 L 176.105469 281.308594 C 176.191406 282.652344 176.460938 283.617188 176.890625 284.199219 C 177.324219 284.792969 177.886719 285.210938 178.574219 285.46875 C 179.269531 285.742188 180.078125 285.832031 181.015625 285.765625 C 181.964844 285.695312 182.734375 285.480469 183.332031 285.097656 C 183.925781 284.71875 184.371094 284.226562 184.65625 283.617188 C 184.945312 283.011719 185.042969 282.039062 184.957031 280.695312 L 184.464844 273.578125 L 182.429688 273.722656 L 182.921875 281.003906 C 183.003906 282.175781 182.859375 282.984375 182.496094 283.433594 C 182.132812 283.871094 181.613281 284.109375 180.949219 284.160156 C 180.273438 284.214844 179.710938 284.046875 179.257812 283.65625 C 178.808594 283.265625 178.539062 282.429688 178.449219 281.144531 L 177.964844 274.042969 Z M 187.378906 284.804688 C 188.597656 285.027344 189.660156 285.117188 190.574219 285.082031 C 192.109375 285.027344 193.222656 284.648438 193.90625 283.949219 C 194.589844 283.25 194.910156 282.421875 194.878906 281.464844 C 194.855469 280.804688 194.667969 280.210938 194.3125 279.6875 C 193.945312 279.175781 193.136719 278.582031 191.863281 277.90625 L 191.03125 277.476562 C 190.308594 277.09375 189.855469 276.785156 189.671875 276.558594 C 189.488281 276.328125 189.386719 276.074219 189.375 275.804688 C 189.367188 275.449219 189.503906 275.144531 189.792969 274.882812 C 190.078125 274.617188 190.507812 274.46875 191.074219 274.445312 C 191.757812 274.425781 192.691406 274.617188 193.871094 275.011719 L 193.8125 273.15625 C 192.664062 272.929688 191.632812 272.832031 190.722656 272.863281 C 189.511719 272.90625 188.585938 273.257812 187.957031 273.90625 C 187.332031 274.546875 187.027344 275.304688 187.058594 276.179688 C 187.082031 276.875 187.300781 277.484375 187.707031 277.992188 C 188.109375 278.507812 188.867188 279.054688 189.972656 279.640625 L 190.746094 280.050781 C 191.46875 280.429688 191.925781 280.746094 192.113281 281.003906 C 192.308594 281.25 192.410156 281.546875 192.417969 281.867188 C 192.4375 282.289062 192.285156 282.65625 191.96875 282.972656 C 191.652344 283.285156 191.167969 283.460938 190.507812 283.480469 C 190.144531 283.496094 189.742188 283.472656 189.304688 283.410156 C 188.867188 283.355469 188.199219 283.152344 187.308594 282.8125 Z M 201.929688 284.425781 L 204.28125 284.386719 L 204.085938 272.757812 L 201.734375 272.804688 Z M 207.109375 284.457031 L 208.957031 284.457031 L 208.957031 275.558594 L 211.660156 283.675781 L 213.554688 283.675781 L 216.3125 275.679688 L 216.3125 284.457031 L 218.480469 284.457031 L 218.480469 272.820312 L 215.75 272.820312 L 212.945312 281.007812 L 210.222656 272.820312 L 207.109375 272.820312 Z M 221.296875 284.667969 L 223.601562 284.746094 L 223.757812 280.191406 L 224.710938 280.234375 C 226.050781 280.277344 227.125 279.972656 227.949219 279.328125 C 228.765625 278.671875 229.195312 277.695312 229.238281 276.402344 C 229.261719 275.730469 229.164062 275.15625 228.945312 274.710938 C 228.730469 274.25 228.394531 273.894531 227.941406 273.640625 C 227.492188 273.378906 226.699219 273.226562 225.574219 273.183594 L 221.691406 273.046875 Z M 223.8125 278.605469 L 224.253906 278.621094 C 225.113281 278.648438 225.757812 278.457031 226.179688 278.050781 C 226.59375 277.636719 226.8125 277.140625 226.835938 276.5625 C 226.84375 276.238281 226.792969 275.945312 226.671875 275.667969 C 226.554688 275.410156 226.363281 275.191406 226.101562 275.03125 C 225.835938 274.863281 225.410156 274.777344 224.820312 274.75 L 223.941406 274.726562 Z M 229.644531 285.109375 L 231.355469 285.203125 L 232.683594 282.164062 L 237.347656 282.417969 L 238.363281 285.574219 L 240.769531 285.710938 L 236.976562 273.859375 L 234.625 273.726562 Z M 233.339844 280.652344 L 236.839844 280.835938 L 235.328125 276.121094 Z M 245.175781 286.136719 L 247.523438 286.34375 L 252.527344 275.121094 L 250.84375 274.976562 L 246.960938 283.65625 L 244.5 274.398438 L 242 274.175781 Z M 253.144531 287.179688 L 255.484375 287.4375 L 256.664062 275.867188 L 254.328125 275.613281 Z M 258.320312 287.714844 L 262.929688 288.386719 C 264.28125 288.578125 265.375 288.464844 266.226562 288.054688 C 267.074219 287.644531 267.761719 287.019531 268.292969 286.175781 C 268.816406 285.332031 269.164062 284.339844 269.316406 283.1875 C 269.480469 282.019531 269.398438 280.984375 269.085938 280.101562 C 268.777344 279.203125 268.292969 278.5 267.628906 277.972656 C 266.972656 277.4375 265.996094 277.082031 264.707031 276.898438 L 259.894531 276.199219 Z M 260.871094 286.417969 L 262.609375 286.671875 C 263.515625 286.800781 264.230469 286.753906 264.746094 286.535156 C 265.273438 286.316406 265.71875 285.875 266.09375 285.230469 C 266.46875 284.574219 266.710938 283.824219 266.828125 282.972656 C 266.941406 282.15625 266.898438 281.417969 266.710938 280.75 C 266.527344 280.078125 266.21875 279.550781 265.785156 279.160156 C 265.34375 278.765625 264.550781 278.488281 263.414062 278.320312 L 262.007812 278.113281 Z M 269.335938 289.472656 L 271.019531 289.742188 L 272.652344 286.871094 L 277.261719 287.621094 L 277.949219 290.878906 L 280.339844 291.257812 L 277.765625 279.074219 L 275.433594 278.695312 Z M 273.460938 285.4375 L 276.925781 286 L 275.902344 281.140625 Z M 273.460938 285.4375 "/>
<path fill-rule="evenodd" fill="rgb(9.143066%, 9.510803%, 9.251404%)" fill-opacity="1" d="M 208.203125 314.917969 L 208.085938 314.734375 C 204.476562 309.082031 204.078125 303.738281 203.691406 298.660156 C 203.6875 298.515625 203.675781 297.570312 203.667969 296.324219 C 206.699219 296.304688 209.726562 296.3125 212.734375 296.363281 C 212.726562 297.585938 212.71875 298.515625 212.707031 298.660156 C 212.328125 303.738281 211.925781 309.082031 208.320312 314.734375 Z M 252.648438 123.875 C 256.535156 124.011719 260.65625 124.628906 263.847656 125.746094 C 263.835938 126 263.710938 129.179688 263.597656 132.277344 C 256.167969 131.113281 248.6875 130.230469 241.1875 129.597656 C 241.261719 127.351562 241.339844 125.136719 241.34375 124.953125 C 244.605469 124.054688 248.761719 123.738281 252.648438 123.875 M 241.289062 122.363281 C 244.640625 121.644531 248.753906 121.421875 252.726562 121.566406 C 256.699219 121.710938 260.785156 122.210938 264.078125 123.167969 C 268.96875 120.25 269.59375 114.617188 264.558594 112.195312 C 260.824219 111.429688 256.859375 110.847656 253.101562 110.710938 C 249.34375 110.582031 245.347656 110.886719 241.570312 111.390625 C 236.386719 113.441406 236.617188 119.105469 241.289062 122.363281 M 163.757812 123.875 C 159.875 124.011719 155.75 124.628906 152.558594 125.746094 C 152.570312 126.011719 152.699219 129.347656 152.820312 132.523438 C 160.246094 131.359375 167.726562 130.480469 175.226562 129.84375 C 175.148438 127.515625 175.066406 125.144531 175.0625 124.953125 C 171.800781 124.054688 167.640625 123.738281 163.757812 123.875 M 208.203125 121.792969 C 204.316406 121.792969 200.171875 122.261719 196.941406 123.261719 C 196.945312 123.398438 196.949219 126.054688 196.949219 128.65625 C 200.71875 128.546875 204.46875 128.496094 208.203125 128.496094 C 211.941406 128.496094 215.691406 128.546875 219.453125 128.65625 C 219.457031 126.054688 219.460938 123.398438 219.464844 123.261719 C 216.230469 122.261719 212.089844 121.792969 208.203125 121.792969 M 175.117188 122.363281 C 171.765625 121.644531 167.652344 121.421875 163.679688 121.566406 C 159.710938 121.710938 155.621094 122.210938 152.328125 123.167969 C 147.441406 120.25 146.816406 114.617188 151.847656 112.195312 C 155.578125 111.429688 159.550781 110.847656 163.304688 110.710938 C 167.0625 110.582031 171.0625 110.886719 174.835938 111.390625 C 180.023438 113.441406 179.789062 119.105469 175.117188 122.363281 M 169.210938 243.535156 L 173.253906 192.988281 C 172.148438 193.03125 171.039062 192.980469 169.972656 192.9375 L 169.914062 192.9375 C 168.738281 192.882812 167.867188 191.457031 168.378906 190.421875 C 168.890625 189.367188 169.480469 188.28125 170.15625 187.289062 C 170.875 186.242188 171.699219 185.273438 172.675781 184.488281 C 173.101562 184.152344 173.546875 183.921875 173.988281 183.789062 L 174.0625 182.882812 L 154.460938 182.792969 L 154.726562 186.527344 C 156.625 187.394531 158.273438 188.753906 159.828125 190.035156 L 159.824219 190.039062 C 159.875 190.085938 159.929688 190.128906 159.980469 190.167969 C 160.007812 190.191406 160.035156 190.207031 160.066406 190.230469 C 160.910156 191.019531 160.820312 192.425781 159.859375 192.878906 C 159.769531 192.921875 159.675781 192.964844 159.585938 193.007812 C 159.378906 193.101562 159.171875 193.199219 158.96875 193.296875 C 158.742188 193.105469 158.457031 192.878906 158.113281 192.601562 L 158.109375 192.609375 C 158.191406 192.671875 158.585938 192.980469 158.964844 193.296875 C 158.820312 193.367188 158.671875 193.433594 158.519531 193.507812 C 158.542969 193.515625 158.570312 193.523438 158.59375 193.53125 C 158.914062 193.679688 159.175781 193.800781 159.390625 193.902344 C 159.730469 194.070312 159.976562 194.1875 160.140625 194.273438 L 160.148438 194.273438 C 161.277344 194.828125 161.546875 196.417969 160.617188 197.09375 C 160.121094 197.449219 159.613281 197.8125 159.109375 198.15625 C 160.128906 198.554688 160.648438 199.910156 160.027344 200.746094 C 159.519531 201.421875 158.433594 202.769531 157.238281 203.800781 C 157 204.007812 156.746094 204.203125 156.488281 204.386719 C 156.335938 204.496094 156.183594 204.601562 156.03125 204.691406 L 156.042969 204.859375 L 156.042969 204.894531 L 156.105469 205.722656 C 156.734375 216.980469 158.027344 232.046875 158.984375 244.351562 C 159.511719 244.316406 160.113281 244.351562 160.796875 244.515625 C 163.199219 245.066406 167.175781 243.253906 169.210938 243.535156 M 159.980469 190.167969 C 159.78125 190.003906 163.757812 193.242188 160.066406 190.230469 C 160.035156 190.207031 160.007812 190.179688 159.980469 190.167969 M 158.96875 193.296875 C 160.414062 194.476562 159.699219 193.894531 158.964844 193.296875 Z M 193.644531 181.398438 C 192.496094 181.554688 191.398438 181.894531 190.371094 182.21875 C 187.648438 183.070312 185.355469 183.800781 183.574219 180.5 C 183.550781 180.457031 183.613281 180.40625 183.652344 180.4375 C 186.273438 182.179688 189.101562 181.296875 191.636719 180.496094 C 193.816406 179.820312 195.777344 179.199219 197.214844 180.371094 C 197.234375 180.382812 197.238281 180.414062 197.222656 180.4375 C 197.15625 180.507812 196.683594 180.605469 196.085938 180.738281 C 195.226562 180.921875 194.113281 181.160156 193.660156 181.398438 Z M 181.617188 227.25 C 181.714844 226.992188 182.132812 227.003906 182.210938 227.269531 C 183.851562 232.742188 187.027344 237.800781 191.421875 241.421875 C 195.027344 244.398438 199.445312 246.414062 204.511719 246.910156 C 203.476562 246.304688 202.460938 245.425781 201.628906 244.351562 C 200.554688 242.96875 199.785156 241.25 199.683594 239.332031 C 199.578125 237.425781 200.144531 235.328125 201.75 233.195312 C 203.707031 230.597656 207.203125 227.945312 212.925781 225.503906 C 213.730469 225.085938 215.515625 224.179688 217.136719 222.726562 C 218.753906 221.285156 220.230469 219.292969 220.445312 216.6875 C 220.472656 216.398438 220.960938 216.339844 221.054688 216.625 C 221.464844 217.84375 221.570312 219.140625 221.445312 220.46875 C 221.347656 221.570312 221.097656 222.695312 220.746094 223.824219 C 223.726562 222.195312 225.894531 219.363281 227.453125 216.25 C 230.277344 210.589844 231.09375 204.046875 231.113281 202.035156 C 231.117188 201.78125 231.4375 201.644531 231.636719 201.808594 C 232.039062 202.167969 232.457031 202.617188 232.816406 203.1875 C 232.882812 203.292969 232.945312 203.40625 233.011719 203.523438 C 233.179688 199.761719 232.792969 196.523438 231.882812 193.484375 C 230.863281 190.085938 229.175781 186.941406 226.855469 183.605469 C 226.726562 183.414062 226.863281 183.148438 227.097656 183.140625 C 227.429688 183.121094 227.796875 183.191406 228.207031 183.347656 C 228.355469 183.414062 228.515625 183.488281 228.683594 183.582031 C 226.964844 179.316406 224.683594 176.691406 221.898438 173.488281 C 221.601562 173.152344 221.300781 172.808594 221.058594 172.519531 C 221.011719 172.476562 220.980469 172.328125 220.992188 172.269531 C 221.207031 171.332031 221.347656 170.855469 221.671875 170.433594 C 221.953125 170.066406 222.339844 169.789062 223.023438 169.328125 C 222.101562 168.371094 219.960938 167.621094 217.574219 167.105469 C 214.429688 166.441406 210.902344 166.191406 209.117188 166.421875 C 209.996094 167.898438 210.363281 169.410156 210.402344 170.839844 C 210.460938 172.824219 209.886719 174.625 209.179688 175.847656 C 209.03125 176.105469 208.550781 175.941406 208.601562 175.65625 C 208.734375 174.816406 209.035156 173.179688 208.945312 171.410156 C 208.859375 169.703125 208.421875 167.855469 207.125 166.484375 C 201.78125 165.90625 194.140625 168.855469 189.324219 170.714844 C 188.96875 170.855469 188.808594 170.914062 188.667969 170.972656 C 188.84375 171.933594 188.742188 172.824219 188.644531 173.679688 C 188.449219 175.339844 188.265625 176.886719 190.390625 178.542969 C 191.527344 176.339844 193.234375 176.105469 194.902344 176.828125 C 196.03125 177.3125 197.128906 178.242188 197.992188 179.269531 C 198.859375 180.296875 199.503906 181.433594 199.714844 182.308594 C 199.917969 183.152344 199.742188 183.800781 199.035156 184.003906 C 198.972656 184.046875 198.894531 184.070312 198.808594 184.101562 C 198.40625 184.21875 197.511719 184.234375 196.613281 184.101562 C 195.703125 183.96875 194.761719 183.683594 194.246094 183.207031 C 194.070312 183.042969 193.9375 182.863281 193.871094 182.644531 C 193.8125 182.515625 193.757812 182.417969 193.710938 182.339844 C 193.671875 182.503906 193.648438 182.722656 193.640625 182.914062 C 193.695312 183.792969 193.871094 184.6875 194.195312 185.457031 C 194.457031 186.097656 194.8125 186.65625 195.261719 187.0625 C 195.433594 187.007812 195.640625 186.941406 195.867188 186.851562 C 196.679688 186.5625 197.757812 186.179688 198.90625 186.015625 L 198.953125 186.015625 C 199.714844 186.015625 200.53125 186.039062 201.355469 186.066406 C 204.042969 186.15625 206.855469 186.242188 208.519531 185.457031 C 210.070312 184.734375 210.617188 183.171875 209.046875 179.929688 C 208.917969 179.664062 209.390625 179.386719 209.578125 179.628906 C 212.523438 183.386719 211.285156 185.664062 209.558594 186.96875 C 208.738281 187.59375 207.8125 187.988281 207.1875 188.21875 C 207.859375 188.625 208.234375 189.199219 208.378906 189.863281 C 208.527344 190.53125 208.429688 191.289062 208.160156 192.039062 C 208.023438 192.417969 207.847656 192.804688 207.632812 193.171875 C 207.613281 193.207031 207.503906 193.296875 207.46875 193.308594 C 203.609375 194.667969 196.324219 197.828125 190.871094 201.851562 C 187.601562 204.265625 185 206.992188 184.222656 209.8125 C 184.992188 209.351562 185.78125 209.011719 186.640625 208.78125 C 187.730469 208.488281 188.933594 208.382812 190.351562 208.453125 C 190.644531 208.464844 190.714844 208.949219 190.4375 209.03125 C 189.644531 209.289062 188.835938 209.601562 188.039062 209.980469 C 184.765625 211.539062 181.613281 214.136719 179.691406 217.628906 C 177.777344 221.109375 177.097656 225.488281 178.769531 230.597656 C 179.035156 231.410156 179.359375 232.25 179.757812 233.097656 C 180.144531 232.121094 180.441406 231.085938 180.734375 230.046875 C 181 229.101562 181.265625 228.152344 181.617188 227.25 M 199.578125 170.804688 L 199.664062 170.703125 C 199.667969 170.703125 199.675781 170.6875 199.683594 170.679688 C 199.691406 170.671875 199.695312 170.664062 199.703125 170.65625 C 199.710938 170.648438 199.71875 170.636719 199.726562 170.632812 C 199.734375 170.632812 199.742188 170.625 199.746094 170.609375 C 199.753906 170.605469 199.761719 170.597656 199.769531 170.589844 C 199.777344 170.582031 199.785156 170.574219 199.789062 170.558594 C 199.800781 170.550781 199.8125 170.550781 199.816406 170.539062 C 199.816406 170.539062 199.816406 170.546875 199.816406 170.539062 C 199.820312 170.535156 199.832031 170.527344 199.839844 170.519531 C 199.847656 170.511719 199.855469 170.503906 199.863281 170.492188 C 199.871094 170.488281 199.882812 170.488281 199.886719 170.472656 C 199.886719 170.472656 199.886719 170.480469 199.886719 170.472656 C 199.898438 170.464844 199.910156 170.457031 199.917969 170.449219 C 199.921875 170.441406 199.929688 170.433594 199.941406 170.429688 C 199.949219 170.414062 199.957031 170.414062 199.964844 170.40625 L 199.96875 170.40625 C 199.972656 170.390625 199.984375 170.386719 199.996094 170.378906 C 200.003906 170.371094 200.011719 170.367188 200.023438 170.359375 C 200.03125 170.34375 200.039062 170.34375 200.050781 170.339844 C 200.058594 170.328125 200.070312 170.320312 200.074219 170.3125 C 200.085938 170.300781 200.09375 170.292969 200.105469 170.289062 C 200.117188 170.28125 200.125 170.269531 200.132812 170.269531 C 200.144531 170.261719 200.15625 170.253906 200.164062 170.238281 C 200.171875 170.230469 200.1875 170.222656 200.195312 170.21875 L 200.222656 170.203125 C 200.234375 170.191406 200.242188 170.183594 200.257812 170.179688 C 200.269531 170.171875 200.277344 170.15625 200.285156 170.152344 C 200.296875 170.144531 200.308594 170.136719 200.316406 170.128906 C 200.328125 170.121094 200.34375 170.117188 200.347656 170.109375 C 200.359375 170.097656 200.375 170.09375 200.382812 170.085938 C 200.394531 170.078125 200.40625 170.074219 200.414062 170.066406 L 200.449219 170.046875 C 200.460938 170.039062 200.472656 170.035156 200.484375 170.023438 C 200.496094 170.011719 200.507812 170.003906 200.515625 169.996094 C 200.53125 169.988281 200.539062 169.984375 200.550781 169.972656 C 200.566406 169.964844 200.574219 169.960938 200.585938 169.953125 C 200.597656 169.949219 200.613281 169.941406 200.621094 169.933594 C 200.632812 169.929688 200.644531 169.921875 200.660156 169.914062 C 200.667969 169.90625 200.683594 169.898438 200.691406 169.894531 C 200.703125 169.894531 200.71875 169.878906 200.730469 169.871094 C 200.742188 169.863281 200.753906 169.855469 200.765625 169.847656 C 200.777344 169.84375 200.792969 169.84375 200.804688 169.835938 C 200.816406 169.828125 200.828125 169.824219 200.839844 169.816406 C 200.851562 169.804688 200.867188 169.800781 200.878906 169.792969 C 200.890625 169.789062 200.90625 169.78125 200.917969 169.777344 C 200.929688 169.769531 200.941406 169.769531 200.953125 169.757812 C 200.96875 169.753906 200.980469 169.746094 200.992188 169.738281 C 201.007812 169.730469 201.019531 169.726562 201.035156 169.71875 C 201.046875 169.710938 201.058594 169.703125 201.074219 169.695312 C 201.082031 169.695312 201.097656 169.691406 201.109375 169.679688 C 201.128906 169.675781 201.136719 169.667969 201.152344 169.664062 C 201.164062 169.65625 201.179688 169.648438 201.195312 169.644531 C 201.203125 169.632812 201.21875 169.632812 201.234375 169.628906 C 201.25 169.621094 201.261719 169.617188 201.269531 169.617188 C 201.289062 169.609375 201.296875 169.601562 201.316406 169.589844 C 201.328125 169.585938 201.34375 169.578125 201.355469 169.578125 C 201.367188 169.570312 201.386719 169.566406 201.398438 169.558594 C 201.414062 169.558594 201.425781 169.550781 201.4375 169.542969 L 201.441406 169.542969 C 201.457031 169.535156 201.46875 169.527344 201.484375 169.527344 C 201.5 169.523438 201.511719 169.511719 201.527344 169.511719 C 201.539062 169.511719 201.554688 169.503906 201.566406 169.496094 C 201.582031 169.488281 201.597656 169.488281 201.613281 169.480469 C 201.625 169.476562 201.640625 169.476562 201.652344 169.46875 C 201.667969 169.460938 201.683594 169.460938 201.699219 169.457031 C 201.714844 169.449219 201.726562 169.4375 201.738281 169.4375 C 201.757812 169.433594 201.769531 169.425781 201.785156 169.425781 C 201.800781 169.417969 201.8125 169.410156 201.832031 169.410156 C 201.839844 169.410156 201.851562 169.402344 201.863281 169.402344 C 201.878906 169.398438 201.886719 169.398438 201.902344 169.390625 C 201.914062 169.382812 201.921875 169.382812 201.9375 169.382812 C 201.949219 169.375 201.960938 169.375 201.972656 169.371094 C 201.984375 169.371094 201.996094 169.363281 202.007812 169.363281 C 202.019531 169.359375 202.03125 169.359375 202.042969 169.351562 L 202.078125 169.351562 C 202.089844 169.34375 202.105469 169.34375 202.121094 169.335938 C 202.128906 169.335938 202.140625 169.328125 202.152344 169.328125 C 202.164062 169.328125 202.175781 169.320312 202.1875 169.320312 C 202.203125 169.3125 202.210938 169.3125 202.226562 169.3125 C 202.238281 169.308594 202.253906 169.308594 202.261719 169.300781 C 202.277344 169.300781 202.285156 169.300781 202.296875 169.292969 C 202.3125 169.292969 202.324219 169.292969 202.335938 169.289062 C 202.347656 169.289062 202.359375 169.289062 202.371094 169.28125 L 202.375 169.28125 C 202.386719 169.28125 202.398438 169.28125 202.410156 169.269531 L 202.449219 169.269531 C 202.460938 169.265625 202.472656 169.265625 202.484375 169.265625 C 202.496094 169.265625 202.511719 169.253906 202.519531 169.253906 L 202.523438 169.253906 C 202.535156 169.253906 202.550781 169.25 202.558594 169.25 L 202.5625 169.25 C 202.574219 169.25 202.585938 169.25 202.597656 169.242188 L 202.636719 169.242188 C 202.644531 169.238281 202.664062 169.238281 202.675781 169.238281 C 202.6875 169.238281 202.699219 169.234375 202.710938 169.234375 L 202.753906 169.234375 C 202.761719 169.234375 202.777344 169.222656 202.785156 169.222656 L 202.828125 169.222656 C 202.835938 169.222656 202.851562 169.214844 202.863281 169.214844 L 202.90625 169.214844 C 202.917969 169.214844 202.925781 169.207031 202.9375 169.207031 L 203.058594 169.207031 C 203.070312 169.207031 203.082031 169.203125 203.097656 169.203125 L 203.332031 169.203125 C 203.339844 169.203125 203.355469 169.207031 203.367188 169.207031 L 203.484375 169.207031 C 203.5 169.207031 203.515625 169.214844 203.527344 169.214844 L 203.5625 169.214844 C 203.578125 169.222656 203.59375 169.222656 203.605469 169.222656 L 203.644531 169.222656 C 203.65625 169.234375 203.667969 169.234375 203.683594 169.234375 C 203.691406 169.234375 203.710938 169.234375 203.722656 169.238281 L 203.761719 169.238281 C 203.773438 169.242188 203.789062 169.242188 203.800781 169.242188 C 203.816406 169.242188 203.832031 169.25 203.839844 169.25 C 203.851562 169.25 203.867188 169.253906 203.882812 169.253906 C 203.894531 169.253906 203.902344 169.265625 203.921875 169.265625 C 203.929688 169.265625 203.949219 169.265625 203.960938 169.269531 C 203.972656 169.269531 203.984375 169.269531 204 169.28125 C 204.011719 169.28125 204.027344 169.28125 204.039062 169.289062 C 204.050781 169.289062 204.066406 169.289062 204.078125 169.292969 C 204.089844 169.292969 204.105469 169.300781 204.117188 169.300781 C 204.128906 169.300781 204.144531 169.308594 204.15625 169.308594 C 204.171875 169.3125 204.1875 169.3125 204.195312 169.320312 C 204.210938 169.320312 204.226562 169.328125 204.234375 169.328125 C 204.25 169.335938 204.261719 169.335938 204.277344 169.34375 L 204.328125 169.351562 L 204.328125 169.410156 C 204.324219 169.417969 204.324219 169.417969 204.324219 169.425781 L 204.324219 169.4375 C 204.324219 169.449219 204.324219 169.449219 204.324219 169.457031 L 204.324219 169.480469 L 204.320312 169.480469 L 204.320312 169.488281 C 204.320312 169.496094 204.320312 169.496094 204.316406 169.496094 L 204.316406 169.511719 L 204.3125 169.523438 L 204.3125 169.527344 C 204.3125 169.527344 204.308594 169.535156 204.308594 169.542969 C 204.308594 169.542969 204.308594 169.550781 204.304688 169.550781 L 204.304688 169.570312 C 204.300781 169.570312 204.300781 169.578125 204.300781 169.578125 C 204.300781 169.585938 204.300781 169.585938 204.300781 169.589844 C 204.296875 169.601562 204.296875 169.601562 204.296875 169.609375 L 204.289062 169.617188 L 204.289062 169.628906 C 204.289062 169.628906 204.289062 169.632812 204.28125 169.632812 C 204.28125 169.644531 204.28125 169.644531 204.277344 169.648438 L 204.277344 169.65625 C 204.277344 169.664062 204.277344 169.664062 204.273438 169.667969 C 204.273438 169.675781 204.269531 169.675781 204.269531 169.679688 C 204.265625 169.679688 204.265625 169.691406 204.265625 169.691406 L 204.261719 169.691406 L 204.257812 169.703125 L 204.257812 169.710938 C 204.257812 169.71875 204.257812 169.71875 204.253906 169.726562 C 204.253906 169.730469 204.253906 169.730469 204.25 169.738281 L 204.25 169.753906 L 204.246094 169.753906 L 204.242188 169.757812 C 204.238281 169.769531 204.234375 169.769531 204.234375 169.777344 C 204.234375 169.777344 204.234375 169.78125 204.230469 169.78125 L 204.230469 169.792969 L 204.226562 169.792969 C 204.226562 169.800781 204.226562 169.800781 204.222656 169.804688 C 204.222656 169.804688 204.21875 169.816406 204.21875 169.824219 C 204.214844 169.824219 204.214844 169.828125 204.214844 169.828125 L 204.210938 169.828125 C 204.210938 169.835938 204.207031 169.84375 204.207031 169.84375 L 204.199219 169.855469 L 204.195312 169.863281 C 204.191406 169.871094 204.191406 169.878906 204.191406 169.878906 C 204.1875 169.886719 204.1875 169.894531 204.1875 169.894531 C 204.183594 169.898438 204.183594 169.898438 204.179688 169.90625 C 204.179688 169.90625 204.175781 169.914062 204.171875 169.914062 C 204.171875 169.921875 204.167969 169.921875 204.167969 169.929688 C 204.167969 169.933594 204.167969 169.933594 204.164062 169.941406 L 204.15625 169.953125 C 204.15625 169.953125 204.152344 169.960938 204.148438 169.960938 L 204.144531 169.972656 C 204.140625 169.984375 204.136719 169.984375 204.136719 169.988281 L 204.128906 170.003906 C 204.125 170.003906 204.125 170.011719 204.121094 170.011719 C 204.117188 170.019531 204.117188 170.023438 204.117188 170.023438 C 204.117188 170.035156 204.117188 170.035156 204.113281 170.039062 C 204.113281 170.046875 204.109375 170.046875 204.105469 170.054688 C 204.105469 170.054688 204.101562 170.0625 204.097656 170.0625 C 204.09375 170.066406 204.09375 170.066406 204.089844 170.074219 C 204.089844 170.078125 204.089844 170.078125 204.085938 170.085938 C 204.082031 170.085938 204.082031 170.09375 204.078125 170.097656 C 204.074219 170.097656 204.070312 170.109375 204.070312 170.109375 C 204.066406 170.117188 204.066406 170.121094 204.066406 170.121094 C 204.0625 170.128906 204.0625 170.128906 204.058594 170.128906 L 204.054688 170.128906 C 204.054688 170.136719 204.050781 170.144531 204.050781 170.144531 C 204.046875 170.152344 204.046875 170.152344 204.042969 170.15625 C 204.042969 170.15625 204.039062 170.164062 204.039062 170.171875 C 204.039062 170.171875 204.03125 170.179688 204.027344 170.179688 L 204.027344 170.191406 L 204.019531 170.191406 C 204.019531 170.203125 204.019531 170.203125 204.015625 170.203125 C 204.011719 170.207031 204.011719 170.214844 204.007812 170.214844 C 204.003906 170.21875 204 170.21875 204 170.222656 C 204 170.222656 203.996094 170.230469 203.992188 170.230469 C 203.992188 170.238281 203.988281 170.246094 203.984375 170.246094 L 203.976562 170.261719 C 203.972656 170.269531 203.972656 170.269531 203.972656 170.269531 C 203.96875 170.277344 203.964844 170.277344 203.964844 170.28125 L 203.960938 170.28125 L 203.957031 170.289062 C 203.953125 170.292969 203.953125 170.300781 203.953125 170.300781 C 203.949219 170.3125 203.945312 170.3125 203.941406 170.320312 C 203.9375 170.320312 203.933594 170.328125 203.929688 170.328125 C 203.929688 170.332031 203.929688 170.332031 203.925781 170.339844 C 203.921875 170.34375 203.921875 170.34375 203.917969 170.34375 C 203.914062 170.351562 203.910156 170.351562 203.90625 170.359375 C 203.90625 170.359375 203.902344 170.367188 203.902344 170.371094 C 203.902344 170.371094 203.898438 170.378906 203.894531 170.378906 C 203.890625 170.386719 203.886719 170.386719 203.882812 170.390625 L 203.882812 170.398438 C 203.878906 170.40625 203.875 170.40625 203.871094 170.414062 C 203.867188 170.414062 203.863281 170.414062 203.863281 170.421875 C 203.855469 170.429688 203.851562 170.429688 203.851562 170.429688 C 203.851562 170.433594 203.847656 170.433594 203.84375 170.441406 C 203.839844 170.441406 203.835938 170.449219 203.835938 170.457031 L 203.832031 170.457031 C 203.832031 170.457031 203.832031 170.457031 203.832031 170.464844 C 203.828125 170.472656 203.824219 170.472656 203.824219 170.472656 C 203.816406 170.480469 203.816406 170.480469 203.8125 170.488281 C 203.8125 170.488281 203.808594 170.492188 203.808594 170.492188 C 203.800781 170.492188 203.800781 170.496094 203.796875 170.503906 C 203.792969 170.503906 203.789062 170.503906 203.789062 170.511719 C 203.78125 170.511719 203.78125 170.519531 203.777344 170.519531 C 203.773438 170.527344 203.773438 170.527344 203.769531 170.535156 C 203.765625 170.535156 203.761719 170.539062 203.761719 170.539062 L 203.761719 170.546875 L 203.757812 170.546875 C 203.753906 170.550781 203.75 170.550781 203.746094 170.550781 C 203.742188 170.558594 203.738281 170.558594 203.738281 170.570312 C 203.738281 170.570312 203.730469 170.574219 203.730469 170.574219 C 203.726562 170.582031 203.722656 170.582031 203.71875 170.582031 C 203.71875 170.589844 203.714844 170.589844 203.714844 170.597656 C 203.710938 170.597656 203.707031 170.605469 203.707031 170.605469 L 203.703125 170.605469 C 203.699219 170.605469 203.695312 170.609375 203.691406 170.609375 C 203.691406 170.617188 203.691406 170.617188 203.691406 170.617188 C 203.6875 170.625 203.683594 170.625 203.679688 170.632812 L 203.667969 170.632812 C 203.667969 170.636719 203.667969 170.636719 203.664062 170.644531 C 203.660156 170.644531 203.65625 170.644531 203.652344 170.648438 L 203.648438 170.65625 L 203.644531 170.65625 C 203.644531 170.65625 203.640625 170.664062 203.640625 170.664062 L 203.636719 170.664062 C 203.632812 170.664062 203.632812 170.671875 203.628906 170.671875 L 203.625 170.671875 C 203.625 170.679688 203.625 170.679688 203.625 170.679688 C 203.617188 170.679688 203.617188 170.6875 203.617188 170.6875 L 203.613281 170.6875 C 203.609375 170.695312 203.605469 170.695312 203.605469 170.695312 C 203.601562 170.703125 203.597656 170.703125 203.597656 170.703125 L 203.589844 170.707031 L 203.585938 170.707031 C 203.585938 170.707031 203.582031 170.714844 203.578125 170.714844 C 203.578125 170.714844 203.570312 170.714844 203.570312 170.71875 C 203.570312 170.71875 203.5625 170.71875 203.558594 170.726562 C 203.558594 170.726562 203.554688 170.726562 203.554688 170.738281 L 203.53125 170.742188 C 203.523438 170.75 203.507812 170.75 203.5 170.75 C 203.488281 170.757812 203.476562 170.757812 203.46875 170.757812 C 203.460938 170.765625 203.449219 170.765625 203.4375 170.765625 C 203.425781 170.769531 203.414062 170.769531 203.410156 170.769531 C 203.398438 170.769531 203.386719 170.769531 203.375 170.773438 C 203.367188 170.773438 203.355469 170.785156 203.34375 170.785156 C 203.335938 170.785156 203.324219 170.785156 203.3125 170.792969 C 203.308594 170.792969 203.292969 170.792969 203.285156 170.796875 C 203.273438 170.796875 203.265625 170.796875 203.253906 170.804688 L 203.222656 170.804688 C 203.210938 170.808594 203.203125 170.808594 203.195312 170.808594 C 203.183594 170.808594 203.171875 170.816406 203.164062 170.816406 L 203.160156 170.816406 C 203.148438 170.816406 203.140625 170.824219 203.128906 170.824219 C 203.117188 170.824219 203.109375 170.824219 203.101562 170.832031 L 203.066406 170.832031 C 203.054688 170.832031 203.046875 170.839844 203.039062 170.839844 L 203.003906 170.839844 C 202.992188 170.847656 202.980469 170.847656 202.976562 170.847656 C 202.960938 170.847656 202.953125 170.855469 202.9375 170.855469 L 202.910156 170.855469 C 202.902344 170.863281 202.890625 170.863281 202.875 170.863281 C 202.867188 170.863281 202.855469 170.863281 202.847656 170.867188 L 202.816406 170.867188 C 202.800781 170.867188 202.792969 170.867188 202.78125 170.875 L 202.753906 170.875 C 202.742188 170.875 202.726562 170.878906 202.71875 170.878906 L 202.6875 170.878906 C 202.679688 170.878906 202.667969 170.886719 202.65625 170.886719 L 202.621094 170.886719 C 202.613281 170.898438 202.601562 170.898438 202.589844 170.898438 L 202.558594 170.898438 C 202.550781 170.898438 202.539062 170.898438 202.527344 170.902344 L 202.464844 170.902344 C 202.449219 170.902344 202.441406 170.910156 202.429688 170.910156 L 202.398438 170.910156 C 202.390625 170.910156 202.378906 170.910156 202.367188 170.914062 L 202.210938 170.914062 C 202.199219 170.914062 202.1875 170.921875 202.175781 170.921875 L 202.046875 170.921875 C 202.039062 170.921875 202.023438 170.921875 202.019531 170.929688 L 201.761719 170.929688 C 201.75 170.929688 201.738281 170.933594 201.726562 170.933594 L 201.539062 170.933594 C 201.527344 170.929688 201.519531 170.929688 201.507812 170.929688 L 201.226562 170.929688 C 201.21875 170.921875 201.207031 170.921875 201.199219 170.921875 L 201.046875 170.921875 C 201.035156 170.921875 201.023438 170.914062 201.011719 170.914062 L 200.835938 170.914062 C 200.824219 170.914062 200.816406 170.910156 200.804688 170.910156 L 200.746094 170.910156 C 200.734375 170.910156 200.730469 170.910156 200.71875 170.902344 L 200.628906 170.902344 C 200.621094 170.902344 200.613281 170.898438 200.601562 170.898438 L 200.542969 170.898438 C 200.535156 170.898438 200.527344 170.898438 200.515625 170.886719 L 200.457031 170.886719 C 200.449219 170.886719 200.441406 170.886719 200.429688 170.878906 L 200.347656 170.878906 C 200.339844 170.875 200.328125 170.875 200.320312 170.875 L 200.292969 170.875 C 200.285156 170.875 200.273438 170.867188 200.265625 170.867188 L 200.210938 170.867188 C 200.203125 170.867188 200.195312 170.867188 200.1875 170.863281 L 200.132812 170.863281 C 200.125 170.863281 200.117188 170.855469 200.105469 170.855469 L 200.054688 170.855469 C 200.042969 170.855469 200.035156 170.847656 200.027344 170.847656 L 200.003906 170.847656 C 199.996094 170.847656 199.984375 170.839844 199.980469 170.839844 L 199.902344 170.839844 C 199.890625 170.839844 199.882812 170.832031 199.875 170.832031 L 199.828125 170.832031 C 199.816406 170.832031 199.8125 170.824219 199.804688 170.824219 L 199.753906 170.824219 C 199.746094 170.816406 199.742188 170.816406 199.734375 170.816406 L 199.710938 170.816406 Z M 252.070312 262.574219 C 245.878906 261.882812 235.09375 261.070312 234.894531 252.613281 C 234.859375 251.011719 235.28125 247.8125 236.210938 246.039062 C 236.253906 245.957031 236.152344 245.851562 236.0625 245.890625 C 235.121094 246.324219 234.417969 247.117188 233.914062 247.992188 C 233.234375 249.175781 232.753906 250.503906 232.722656 251.207031 C 228.789062 249.652344 223.871094 249.351562 218.949219 249.042969 C 210.464844 248.519531 202.765625 246.710938 202.132812 239.945312 C 201.574219 233.984375 207.4375 231.292969 212.960938 228.371094 C 215.304688 227.121094 215.886719 226.984375 217.296875 225.757812 C 217.304688 226.464844 217.238281 227.007812 217.128906 227.445312 C 217.007812 227.945312 216.832031 228.320312 216.660156 228.679688 C 216.625 228.765625 216.703125 228.851562 216.789062 228.832031 C 218.320312 228.496094 222.324219 226.390625 224.441406 224.785156 C 225.996094 223.609375 227.394531 222.160156 228.191406 220.527344 C 231.953125 226.855469 237.679688 229.316406 242.90625 231.128906 C 247.34375 232.660156 251.628906 234.140625 254.578125 238.265625 C 254.621094 238.324219 254.707031 238.328125 254.757812 238.289062 C 257.566406 235.503906 256.109375 228.632812 252.960938 220.554688 C 249.816406 212.503906 244.757812 199.851562 240.816406 192.222656 C 235.617188 182.136719 241.460938 171.792969 253.457031 171.191406 C 258.625 170.921875 262.652344 173.339844 265.296875 176.941406 C 267.722656 180.25 268.496094 185.011719 268.296875 189.746094 L 268.296875 189.753906 L 268.296875 189.746094 L 268.296875 189.753906 C 267.820312 196.5625 267.058594 199.835938 266.484375 206.515625 C 265.949219 212.738281 265.363281 218.992188 264.710938 225.421875 C 264.164062 217.621094 262.519531 212.027344 261.210938 207.578125 C 259.054688 200.242188 257.824219 196.046875 264.023438 190.167969 C 264.035156 190.15625 264.054688 190.117188 264.054688 190.105469 C 264.753906 186.109375 264.554688 182.863281 263.148438 180.335938 C 261.25 177.253906 257.492188 174.820312 254.101562 174.796875 C 248.078125 174.746094 243.160156 178.367188 243.003906 184.410156 C 242.761719 187.199219 246.027344 193.617188 247.859375 197.34375 C 250.1875 202.070312 260.496094 226.804688 261.117188 231.929688 C 261.609375 235.980469 262.132812 239.867188 262.105469 243.511719 C 262.074219 248.179688 260.746094 252.441406 258.414062 256.117188 C 256.6875 258.882812 254.558594 261.03125 252.070312 262.574219 M 174.625 168.777344 C 176.835938 169.972656 178.695312 171.105469 178.609375 174.640625 C 178.550781 176.914062 176.429688 180.285156 174.625 181.03125 L 153.429688 181.03125 C 151.621094 180.285156 149.503906 176.914062 149.445312 174.640625 C 149.359375 171.105469 151.21875 169.972656 153.429688 168.777344 Z M 172.933594 217.410156 C 173.160156 214.789062 173.433594 212.25 173.707031 209.710938 C 173.976562 207.183594 174.246094 204.660156 174.472656 202.070312 C 176.082031 203.117188 179.984375 204.183594 182.652344 204.574219 C 183.371094 204.683594 184.34375 204.734375 184.816406 204.964844 C 183.730469 206.113281 182.300781 208.425781 182.046875 209.460938 C 181.773438 210.585938 181.382812 211.726562 181.109375 213.304688 C 180.199219 213.957031 179.359375 214.789062 178.613281 215.863281 C 177.886719 216.925781 177.253906 218.222656 176.738281 219.8125 C 176.667969 219.761719 176.582031 219.695312 176.488281 219.625 C 175.582031 218.929688 174.019531 218.039062 172.933594 217.410156 M 168.683594 261.757812 C 167.199219 262.042969 166.15625 262.003906 164.839844 262.484375 C 161.992188 263.523438 159.449219 260.5625 160.566406 258.792969 C 157.058594 258.398438 155.980469 253.847656 158.527344 252.09375 C 155.472656 250.570312 155.378906 244.855469 160.796875 246.105469 C 163.535156 246.730469 168.316406 244.285156 169.941406 245.386719 C 173.378906 248.9375 176.894531 243.371094 178.804688 240.664062 C 180.5625 238.183594 181.546875 235.671875 182.066406 232.730469 C 182.65625 235.347656 185.378906 239.625 189.851562 243 C 193.257812 245.574219 197.667969 247.605469 202.964844 247.949219 C 197.222656 251.523438 192.421875 254.148438 186.652344 256.316406 C 181.253906 258.691406 177.46875 260.214844 168.683594 261.757812 M 159.578125 195.726562 C 158.050781 196.835938 156.351562 198.027344 154.65625 198.898438 C 155.988281 199.015625 157.398438 199.347656 158.695312 199.675781 C 158.046875 200.542969 156.351562 202.617188 154.792969 203.4375 C 152.703125 204.539062 151.050781 201.261719 152.03125 199.679688 C 149.070312 199.578125 148.648438 194.441406 151.171875 193.347656 C 148.964844 191.917969 149.769531 186.59375 153.035156 187.554688 C 155.230469 188.210938 157.210938 189.871094 159.046875 191.378906 C 157.433594 192.136719 155.726562 192.964844 154.023438 193.433594 C 155.851562 193.992188 157.882812 194.894531 159.578125 195.726562 M 169.8125 191.285156 C 170.78125 189.304688 172.011719 187.222656 173.730469 185.84375 C 176.609375 183.546875 180.160156 189.410156 176.566406 190.730469 C 174.492188 191.492188 172.0625 191.386719 169.8125 191.285156 M 159.179688 162.703125 C 155.742188 150.949219 166.214844 143.960938 173.175781 143.449219 C 192.246094 142.050781 203.34375 146.761719 224.535156 148.046875 C 232.417969 148.117188 240.109375 147.78125 248.042969 144.496094 C 246.230469 150.105469 221.875 154.46875 211.910156 154.523438 C 208.394531 154.546875 204.648438 154.304688 201.199219 153.773438 C 199.054688 153.445312 166.914062 148.472656 167.890625 158.976562 C 167.976562 159.9375 169.230469 159.929688 169.613281 159.769531 C 175.519531 157.355469 179.699219 155.453125 185.871094 155.238281 C 198.179688 154.785156 206.652344 158.523438 220.1875 155.75 C 210.734375 161.945312 186.671875 159.785156 181.804688 161.253906 C 176.851562 162.746094 172.871094 165.453125 168.417969 166.71875 C 161.222656 168.757812 159.421875 163.515625 159.179688 162.703125 M 219.605469 120.6875 C 216.28125 119.84375 212.175781 119.480469 208.203125 119.480469 C 204.230469 119.480469 200.128906 119.84375 196.800781 120.6875 C 192.015625 117.597656 191.589844 111.945312 196.703125 109.703125 C 200.457031 109.070312 204.441406 108.621094 208.203125 108.621094 C 211.964844 108.621094 215.945312 109.070312 219.703125 109.703125 C 224.816406 111.945312 224.386719 117.597656 219.605469 120.6875 M 208.203125 137.039062 C 186.347656 137.039062 162.792969 138.804688 141.539062 143.78125 C 143.398438 177.636719 141.582031 245.714844 157.042969 263.96875 C 155.117188 264.277344 153.191406 264.617188 151.269531 264.96875 C 140.105469 246.523438 138.84375 200.484375 137.863281 165.039062 C 137.605469 155.679688 137.371094 147.046875 137.007812 139.863281 L 136.964844 139.808594 L 137.007812 139.792969 C 160.230469 134.359375 184.410156 132.328125 208.203125 132.328125 C 232 132.328125 256.175781 134.359375 279.390625 139.792969 L 279.445312 139.808594 L 279.441406 139.863281 C 279.046875 147.046875 278.808594 155.679688 278.550781 165.039062 C 277.574219 200.484375 276.292969 246.523438 265.171875 264.96875 C 263.230469 264.617188 261.289062 264.277344 259.355469 263.96875 C 274.839844 245.714844 273.011719 177.636719 274.863281 143.78125 C 253.609375 138.804688 230.058594 137.039062 208.203125 137.039062 M 246.355469 317.109375 L 246.355469 317.101562 L 246.347656 317.109375 L 246.238281 316.921875 C 242.828125 311.15625 242.617188 305.789062 242.40625 300.710938 C 242.402344 300.546875 242.433594 299.425781 242.472656 297.996094 C 245.511719 298.292969 248.527344 298.613281 251.511719 298.972656 C 251.46875 300.078125 251.425781 300.886719 251.414062 301.015625 C 250.859375 306.085938 250.277344 311.417969 246.476562 316.925781 Z M 170.058594 317.109375 L 170.054688 317.101562 L 170.054688 317.109375 L 169.929688 316.925781 C 166.132812 311.417969 165.542969 306.085938 164.988281 301.015625 C 164.972656 300.878906 164.933594 299.988281 164.882812 298.796875 C 167.898438 298.433594 170.914062 298.117188 173.925781 297.835938 C 173.972656 299.332031 174.003906 300.539062 173.996094 300.710938 C 173.792969 305.789062 173.574219 311.15625 170.164062 316.921875 Z M 170.058594 317.109375 "/>
</svg>
