<?xml version="1.0" encoding="UTF-8"?>
<svg xmlns="http://www.w3.org/2000/svg" xmlns:xlink="http://www.w3.org/1999/xlink" width="419.225pt" height="480pt" viewBox="0 0 419.225 480">
<path fill-rule="evenodd" fill="rgb(9.085083%, 9.190369%, 8.953857%)" fill-opacity="1" d="M 210.429688 149.328125 C 184.890625 149.328125 157.371094 151.367188 132.539062 157.125 C 134.710938 196.300781 132.589844 275.074219 150.648438 296.199219 C 148.402344 296.5625 146.152344 296.949219 143.90625 297.359375 C 130.867188 276.007812 129.390625 222.742188 128.242188 181.71875 C 127.941406 170.882812 127.667969 160.90625 127.242188 152.59375 L 127.191406 152.527344 L 127.242188 152.515625 C 154.375 146.230469 182.628906 143.875 210.429688 143.875 C 238.234375 143.875 266.480469 146.222656 293.605469 152.515625 L 293.667969 152.527344 L 293.664062 152.59375 C 293.207031 160.90625 292.925781 170.882812 292.625 181.71875 C 291.476562 222.742188 289.988281 276.007812 276.996094 297.359375 C 274.722656 296.949219 272.457031 296.5625 270.199219 296.199219 C 288.289062 275.074219 286.152344 196.300781 288.320312 157.125 C 263.484375 151.367188 235.96875 149.328125 210.429688 149.328125 "/>
<path fill-rule="evenodd" fill="rgb(9.085083%, 9.190369%, 8.953857%)" fill-opacity="1" d="M 223.753906 130.398438 C 219.867188 129.429688 215.074219 129.007812 210.429688 129.007812 C 205.789062 129.007812 200.992188 129.429688 197.109375 130.398438 C 191.519531 126.820312 191.019531 120.28125 196.992188 117.691406 C 201.378906 116.957031 206.039062 116.441406 210.429688 116.441406 C 214.824219 116.441406 219.480469 116.957031 223.871094 117.691406 C 229.84375 120.28125 229.339844 126.820312 223.753906 130.398438 "/>
<path fill-rule="evenodd" fill="rgb(9.085083%, 9.190369%, 8.953857%)" fill-opacity="1" d="M 153.152344 179.019531 C 149.128906 165.417969 161.371094 157.332031 169.503906 156.738281 C 191.789062 155.125 204.757812 160.574219 229.515625 162.058594 C 238.71875 162.144531 247.710938 161.753906 256.980469 157.953125 C 254.859375 164.441406 226.40625 169.496094 214.757812 169.558594 C 210.648438 169.578125 206.273438 169.304688 202.246094 168.6875 C 199.742188 168.304688 162.1875 162.554688 163.324219 174.707031 C 163.429688 175.820312 164.890625 175.8125 165.34375 175.628906 C 172.238281 172.832031 177.125 170.632812 184.335938 170.375 C 198.722656 169.859375 208.617188 174.1875 224.433594 170.980469 C 213.386719 178.148438 185.273438 175.644531 179.582031 177.34375 C 173.800781 179.070312 169.144531 182.207031 163.945312 183.667969 C 155.539062 186.023438 153.429688 179.964844 153.152344 179.019531 "/>
<path fill-rule="evenodd" fill="rgb(9.085083%, 9.190369%, 8.953857%)" fill-opacity="1" d="M 165.570312 212.09375 C 166.703125 209.804688 168.144531 207.390625 170.152344 205.796875 C 173.507812 203.136719 177.664062 209.925781 173.464844 211.453125 C 171.039062 212.335938 168.203125 212.210938 165.570312 212.09375 "/>
<path fill-rule="evenodd" fill="rgb(9.085083%, 9.190369%, 8.953857%)" fill-opacity="1" d="M 153.613281 217.234375 C 151.636719 216.265625 149.265625 215.230469 147.121094 214.578125 C 149.113281 214.039062 151.113281 213.085938 152.996094 212.207031 C 150.847656 210.460938 148.535156 208.539062 145.964844 207.785156 C 142.15625 206.667969 141.210938 212.828125 143.792969 214.476562 C 140.847656 215.746094 141.339844 221.695312 144.796875 221.8125 C 143.652344 223.636719 145.582031 227.429688 148.023438 226.15625 C 149.847656 225.207031 151.828125 222.808594 152.589844 221.800781 C 151.070312 221.429688 149.421875 221.039062 147.863281 220.898438 C 149.847656 219.890625 151.832031 218.511719 153.613281 217.234375 "/>
<path fill-rule="evenodd" fill="rgb(9.085083%, 9.190369%, 8.953857%)" fill-opacity="1" d="M 164.253906 293.640625 C 174.515625 291.855469 178.941406 290.097656 185.25 287.339844 C 191.992188 284.832031 197.597656 281.792969 204.308594 277.667969 C 198.121094 277.269531 192.96875 274.914062 188.984375 271.9375 C 183.757812 268.03125 180.578125 263.082031 179.890625 260.054688 C 179.289062 263.460938 178.132812 266.363281 176.082031 269.234375 C 173.84375 272.367188 169.738281 278.8125 165.722656 274.699219 C 163.828125 273.425781 158.238281 276.253906 155.042969 275.527344 C 148.707031 274.089844 148.820312 280.6875 152.386719 282.460938 C 149.414062 284.492188 150.671875 289.753906 154.769531 290.210938 C 153.464844 292.261719 156.4375 295.683594 159.765625 294.484375 C 161.300781 293.929688 162.519531 293.972656 164.253906 293.640625 "/>
<path fill-rule="evenodd" fill="rgb(9.085083%, 9.190369%, 8.953857%)" fill-opacity="1" d="M 169.21875 242.324219 C 170.488281 243.054688 172.3125 244.085938 173.375 244.886719 C 173.484375 244.972656 173.582031 245.042969 173.664062 245.109375 C 174.269531 243.261719 175.007812 241.765625 175.859375 240.542969 C 176.730469 239.292969 177.710938 238.332031 178.773438 237.578125 C 179.09375 235.75 179.550781 234.425781 179.867188 233.128906 C 180.164062 231.925781 181.835938 229.257812 183.105469 227.925781 C 182.550781 227.660156 181.414062 227.597656 180.578125 227.476562 C 177.460938 227.023438 172.898438 225.789062 171.015625 224.582031 C 170.753906 227.566406 170.441406 230.492188 170.121094 233.414062 C 169.804688 236.355469 169.484375 239.296875 169.21875 242.324219 "/>
<path fill-rule="evenodd" fill="rgb(9.085083%, 9.190369%, 8.953857%)" fill-opacity="1" d="M 171.199219 186.054688 C 173.78125 187.433594 175.953125 188.742188 175.851562 192.835938 C 175.785156 195.464844 173.304688 199.363281 171.199219 200.226562 L 146.429688 200.226562 C 144.320312 199.363281 141.84375 195.464844 141.777344 192.835938 C 141.675781 188.742188 143.847656 187.433594 146.429688 186.054688 Z M 171.199219 186.054688 "/>
<path fill-rule="evenodd" fill="rgb(9.085083%, 9.190369%, 8.953857%)" fill-opacity="1" d="M 261.691406 294.589844 C 264.59375 292.800781 267.082031 290.316406 269.101562 287.117188 C 271.824219 282.859375 273.375 277.929688 273.414062 272.523438 C 273.445312 268.316406 272.832031 263.820312 272.257812 259.125 C 271.527344 253.199219 259.484375 224.574219 256.769531 219.105469 C 254.625 214.789062 250.808594 207.367188 251.09375 204.136719 C 251.277344 197.148438 257.023438 192.957031 264.0625 193.011719 C 268.019531 193.042969 272.410156 195.859375 274.628906 199.425781 C 276.273438 202.347656 276.507812 206.109375 275.6875 210.726562 C 275.6875 210.738281 275.660156 210.785156 275.652344 210.792969 C 268.40625 217.605469 269.847656 222.457031 272.367188 230.949219 C 273.894531 236.089844 275.816406 242.566406 276.453125 251.597656 C 277.214844 244.15625 277.898438 236.921875 278.523438 229.71875 C 279.195312 221.992188 280.085938 218.203125 280.644531 210.316406 L 280.644531 210.3125 L 280.644531 210.316406 L 280.644531 210.3125 C 280.878906 204.839844 279.976562 199.324219 277.140625 195.5 C 274.050781 191.332031 269.34375 188.535156 263.308594 188.835938 C 249.289062 189.542969 242.460938 201.511719 248.539062 213.179688 C 253.136719 222.011719 259.050781 236.640625 262.722656 245.960938 C 266.40625 255.316406 268.109375 263.257812 264.824219 266.480469 C 264.769531 266.535156 264.664062 266.523438 264.621094 266.464844 C 261.167969 261.6875 256.160156 259.972656 250.976562 258.195312 C 244.875 256.105469 238.179688 253.253906 233.785156 245.929688 C 232.855469 247.820312 231.21875 249.5 229.40625 250.859375 C 226.929688 252.714844 222.25 255.152344 220.464844 255.546875 C 220.363281 255.566406 220.273438 255.464844 220.316406 255.371094 C 220.515625 254.949219 220.714844 254.511719 220.859375 253.945312 C 220.988281 253.429688 221.066406 252.804688 221.0625 251.980469 C 219.40625 253.402344 218.730469 253.566406 215.988281 255.003906 C 209.535156 258.386719 202.6875 261.5 203.339844 268.398438 C 204.078125 276.234375 213.078125 278.324219 222.988281 278.929688 C 228.738281 279.277344 234.484375 279.640625 239.078125 281.4375 C 239.113281 280.621094 239.675781 279.082031 240.476562 277.710938 C 241.0625 276.707031 241.886719 275.785156 242.984375 275.289062 C 243.089844 275.238281 243.210938 275.359375 243.15625 275.460938 C 242.066406 277.511719 241.578125 281.207031 241.621094 283.058594 C 241.851562 292.847656 254.457031 293.78125 261.691406 294.589844 "/>
<path fill-rule="evenodd" fill="rgb(9.085083%, 9.190369%, 8.953857%)" fill-opacity="1" d="M 200.351562 188.394531 L 200.453125 188.277344 C 200.460938 188.269531 200.46875 188.261719 200.476562 188.25 C 200.484375 188.242188 200.492188 188.234375 200.5 188.226562 C 200.507812 188.214844 200.515625 188.207031 200.523438 188.199219 C 200.535156 188.1875 200.542969 188.179688 200.550781 188.171875 C 200.558594 188.164062 200.566406 188.152344 200.578125 188.144531 C 200.585938 188.136719 200.59375 188.125 200.605469 188.121094 C 200.613281 188.109375 200.621094 188.101562 200.632812 188.089844 C 200.640625 188.082031 200.648438 188.074219 200.65625 188.066406 C 200.667969 188.054688 200.675781 188.046875 200.6875 188.039062 C 200.695312 188.03125 200.707031 188.019531 200.714844 188.011719 C 200.726562 188.003906 200.734375 187.996094 200.746094 187.984375 C 200.757812 187.976562 200.765625 187.964844 200.777344 187.957031 C 200.785156 187.949219 200.796875 187.941406 200.808594 187.933594 C 200.816406 187.921875 200.828125 187.914062 200.835938 187.90625 L 200.839844 187.90625 C 200.851562 187.894531 200.859375 187.886719 200.871094 187.878906 C 200.878906 187.871094 200.890625 187.859375 200.902344 187.851562 C 200.914062 187.84375 200.925781 187.832031 200.9375 187.824219 C 200.949219 187.816406 200.957031 187.808594 200.96875 187.796875 C 200.980469 187.792969 200.992188 187.78125 201.003906 187.773438 C 201.015625 187.761719 201.027344 187.753906 201.039062 187.746094 C 201.050781 187.738281 201.0625 187.730469 201.074219 187.71875 C 201.085938 187.710938 201.09375 187.703125 201.105469 187.695312 L 201.109375 187.695312 C 201.121094 187.683594 201.132812 187.675781 201.144531 187.667969 C 201.15625 187.660156 201.167969 187.648438 201.179688 187.640625 C 201.195312 187.632812 201.207031 187.625 201.21875 187.617188 C 201.230469 187.605469 201.242188 187.597656 201.253906 187.589844 C 201.269531 187.582031 201.28125 187.574219 201.292969 187.566406 C 201.304688 187.554688 201.320312 187.550781 201.332031 187.539062 C 201.34375 187.53125 201.359375 187.523438 201.371094 187.515625 C 201.382812 187.503906 201.398438 187.5 201.410156 187.488281 C 201.421875 187.480469 201.4375 187.472656 201.449219 187.464844 C 201.464844 187.457031 201.476562 187.449219 201.492188 187.441406 C 201.503906 187.433594 201.519531 187.421875 201.53125 187.414062 C 201.542969 187.40625 201.558594 187.398438 201.574219 187.390625 C 201.585938 187.382812 201.601562 187.375 201.613281 187.367188 C 201.628906 187.359375 201.640625 187.351562 201.65625 187.34375 C 201.667969 187.335938 201.683594 187.328125 201.699219 187.320312 C 201.710938 187.3125 201.726562 187.304688 201.742188 187.296875 C 201.753906 187.289062 201.769531 187.28125 201.785156 187.273438 C 201.800781 187.265625 201.8125 187.257812 201.828125 187.25 C 201.84375 187.242188 201.855469 187.234375 201.871094 187.226562 C 201.886719 187.21875 201.902344 187.210938 201.917969 187.207031 C 201.933594 187.195312 201.949219 187.1875 201.960938 187.183594 C 201.976562 187.175781 201.992188 187.167969 202.007812 187.160156 C 202.023438 187.152344 202.035156 187.144531 202.050781 187.136719 C 202.066406 187.132812 202.082031 187.125 202.097656 187.117188 C 202.113281 187.109375 202.128906 187.101562 202.144531 187.09375 C 202.160156 187.085938 202.175781 187.082031 202.191406 187.074219 C 202.207031 187.066406 202.222656 187.058594 202.238281 187.054688 C 202.253906 187.046875 202.269531 187.042969 202.285156 187.035156 C 202.300781 187.027344 202.316406 187.019531 202.332031 187.011719 L 202.335938 187.011719 C 202.351562 187.007812 202.367188 187 202.382812 186.992188 C 202.398438 186.988281 202.414062 186.980469 202.429688 186.972656 C 202.445312 186.96875 202.460938 186.960938 202.480469 186.953125 C 202.496094 186.949219 202.511719 186.941406 202.527344 186.9375 C 202.542969 186.929688 202.5625 186.921875 202.578125 186.917969 C 202.59375 186.910156 202.613281 186.90625 202.628906 186.898438 C 202.644531 186.894531 202.660156 186.890625 202.675781 186.882812 C 202.691406 186.875 202.710938 186.871094 202.726562 186.867188 C 202.746094 186.859375 202.761719 186.855469 202.777344 186.847656 C 202.796875 186.84375 202.8125 186.835938 202.828125 186.832031 C 202.847656 186.824219 202.863281 186.820312 202.882812 186.816406 C 202.898438 186.808594 202.914062 186.804688 202.933594 186.800781 C 202.949219 186.792969 202.964844 186.789062 202.984375 186.78125 C 202.996094 186.78125 203.011719 186.777344 203.027344 186.769531 C 203.039062 186.769531 203.050781 186.765625 203.066406 186.761719 C 203.078125 186.757812 203.09375 186.753906 203.109375 186.75 C 203.121094 186.746094 203.136719 186.742188 203.148438 186.738281 C 203.164062 186.734375 203.175781 186.730469 203.191406 186.726562 C 203.207031 186.722656 203.21875 186.71875 203.234375 186.714844 C 203.246094 186.714844 203.261719 186.707031 203.273438 186.707031 C 203.289062 186.703125 203.304688 186.699219 203.316406 186.695312 C 203.332031 186.691406 203.347656 186.691406 203.359375 186.6875 C 203.375 186.683594 203.390625 186.679688 203.402344 186.679688 C 203.417969 186.675781 203.433594 186.671875 203.445312 186.667969 C 203.460938 186.664062 203.476562 186.660156 203.488281 186.65625 C 203.503906 186.65625 203.515625 186.652344 203.53125 186.648438 C 203.546875 186.648438 203.5625 186.644531 203.574219 186.640625 C 203.589844 186.640625 203.605469 186.636719 203.617188 186.636719 C 203.632812 186.632812 203.648438 186.628906 203.660156 186.628906 L 203.664062 186.628906 C 203.675781 186.625 203.691406 186.621094 203.707031 186.621094 C 203.71875 186.617188 203.734375 186.613281 203.75 186.613281 C 203.761719 186.609375 203.777344 186.605469 203.792969 186.605469 C 203.808594 186.601562 203.820312 186.601562 203.839844 186.601562 C 203.851562 186.597656 203.867188 186.597656 203.882812 186.59375 C 203.894531 186.59375 203.910156 186.589844 203.925781 186.589844 C 203.941406 186.585938 203.953125 186.585938 203.96875 186.582031 C 203.984375 186.582031 204 186.578125 204.015625 186.578125 C 204.027344 186.574219 204.042969 186.574219 204.058594 186.574219 C 204.074219 186.574219 204.089844 186.570312 204.101562 186.566406 L 204.105469 186.566406 C 204.117188 186.566406 204.132812 186.566406 204.148438 186.566406 C 204.164062 186.5625 204.175781 186.5625 204.191406 186.5625 C 204.207031 186.558594 204.222656 186.558594 204.238281 186.558594 C 204.253906 186.554688 204.269531 186.554688 204.285156 186.554688 C 204.296875 186.554688 204.3125 186.554688 204.328125 186.550781 C 204.34375 186.550781 204.355469 186.550781 204.371094 186.550781 L 204.375 186.550781 C 204.386719 186.550781 204.402344 186.550781 204.417969 186.550781 C 204.433594 186.550781 204.449219 186.546875 204.464844 186.546875 C 204.476562 186.546875 204.492188 186.546875 204.507812 186.546875 C 204.523438 186.546875 204.539062 186.546875 204.554688 186.546875 L 204.644531 186.546875 C 204.660156 186.546875 204.675781 186.546875 204.691406 186.546875 C 204.707031 186.546875 204.71875 186.546875 204.734375 186.546875 L 204.738281 186.546875 C 204.75 186.546875 204.765625 186.550781 204.78125 186.550781 C 204.796875 186.550781 204.8125 186.550781 204.828125 186.550781 C 204.84375 186.550781 204.859375 186.550781 204.875 186.554688 C 204.886719 186.554688 204.902344 186.554688 204.917969 186.554688 C 204.933594 186.554688 204.949219 186.558594 204.964844 186.558594 C 204.980469 186.558594 204.996094 186.5625 205.011719 186.5625 C 205.027344 186.5625 205.042969 186.5625 205.058594 186.566406 C 205.070312 186.566406 205.085938 186.566406 205.105469 186.570312 C 205.117188 186.574219 205.136719 186.574219 205.148438 186.574219 C 205.164062 186.578125 205.179688 186.578125 205.195312 186.578125 C 205.210938 186.582031 205.226562 186.585938 205.242188 186.585938 C 205.257812 186.589844 205.273438 186.589844 205.289062 186.589844 C 205.304688 186.59375 205.320312 186.597656 205.332031 186.597656 C 205.347656 186.601562 205.367188 186.601562 205.378906 186.605469 C 205.394531 186.605469 205.410156 186.609375 205.425781 186.613281 C 205.441406 186.617188 205.457031 186.617188 205.472656 186.621094 C 205.488281 186.625 205.503906 186.625 205.519531 186.628906 C 205.535156 186.632812 205.550781 186.636719 205.566406 186.636719 C 205.578125 186.640625 205.59375 186.644531 205.609375 186.644531 C 205.625 186.648438 205.644531 186.652344 205.65625 186.65625 C 205.671875 186.660156 205.6875 186.664062 205.703125 186.667969 C 205.71875 186.667969 205.734375 186.675781 205.75 186.679688 C 205.765625 186.679688 205.78125 186.683594 205.796875 186.6875 C 205.8125 186.691406 205.828125 186.695312 205.839844 186.699219 L 205.84375 186.699219 L 205.90625 186.714844 L 205.902344 186.78125 C 205.902344 186.78125 205.902344 186.785156 205.902344 186.789062 C 205.902344 186.792969 205.902344 186.796875 205.902344 186.800781 C 205.902344 186.804688 205.902344 186.804688 205.898438 186.808594 L 205.898438 186.820312 C 205.898438 186.824219 205.898438 186.828125 205.898438 186.832031 C 205.898438 186.832031 205.898438 186.835938 205.898438 186.84375 C 205.898438 186.84375 205.898438 186.851562 205.894531 186.851562 C 205.894531 186.855469 205.894531 186.859375 205.894531 186.863281 C 205.894531 186.867188 205.894531 186.871094 205.894531 186.875 L 205.890625 186.875 C 205.890625 186.878906 205.890625 186.882812 205.890625 186.886719 C 205.890625 186.890625 205.890625 186.894531 205.886719 186.898438 C 205.886719 186.902344 205.886719 186.90625 205.886719 186.910156 C 205.886719 186.914062 205.882812 186.917969 205.882812 186.921875 C 205.882812 186.925781 205.882812 186.929688 205.882812 186.933594 C 205.882812 186.9375 205.878906 186.941406 205.878906 186.945312 C 205.878906 186.949219 205.878906 186.953125 205.875 186.957031 C 205.875 186.960938 205.875 186.964844 205.871094 186.96875 C 205.871094 186.972656 205.871094 186.976562 205.871094 186.980469 C 205.871094 186.984375 205.867188 186.988281 205.867188 186.992188 C 205.863281 186.996094 205.863281 187 205.863281 187.007812 C 205.863281 187.007812 205.859375 187.011719 205.859375 187.019531 C 205.859375 187.023438 205.855469 187.027344 205.855469 187.03125 C 205.855469 187.035156 205.851562 187.039062 205.851562 187.042969 C 205.851562 187.046875 205.847656 187.050781 205.847656 187.054688 C 205.847656 187.058594 205.84375 187.0625 205.84375 187.070312 C 205.839844 187.074219 205.839844 187.078125 205.839844 187.082031 C 205.839844 187.085938 205.835938 187.089844 205.835938 187.09375 C 205.832031 187.097656 205.832031 187.101562 205.832031 187.109375 C 205.828125 187.113281 205.828125 187.117188 205.828125 187.121094 C 205.824219 187.125 205.824219 187.128906 205.820312 187.136719 C 205.820312 187.136719 205.816406 187.144531 205.816406 187.148438 C 205.816406 187.152344 205.8125 187.15625 205.8125 187.160156 C 205.808594 187.167969 205.808594 187.171875 205.804688 187.175781 C 205.804688 187.179688 205.800781 187.183594 205.800781 187.1875 C 205.796875 187.191406 205.796875 187.195312 205.796875 187.199219 C 205.792969 187.207031 205.792969 187.210938 205.789062 187.214844 C 205.789062 187.21875 205.785156 187.226562 205.785156 187.230469 C 205.78125 187.234375 205.78125 187.238281 205.777344 187.242188 C 205.777344 187.246094 205.773438 187.253906 205.773438 187.257812 C 205.769531 187.261719 205.769531 187.265625 205.769531 187.269531 C 205.765625 187.273438 205.761719 187.28125 205.761719 187.285156 C 205.757812 187.289062 205.757812 187.292969 205.753906 187.296875 C 205.753906 187.304688 205.75 187.308594 205.75 187.3125 L 205.746094 187.3125 C 205.746094 187.316406 205.742188 187.320312 205.742188 187.324219 C 205.738281 187.332031 205.738281 187.335938 205.734375 187.339844 C 205.734375 187.347656 205.730469 187.351562 205.730469 187.355469 C 205.726562 187.359375 205.722656 187.363281 205.722656 187.367188 C 205.71875 187.375 205.71875 187.375 205.714844 187.378906 C 205.710938 187.386719 205.710938 187.390625 205.707031 187.394531 C 205.703125 187.402344 205.703125 187.40625 205.699219 187.410156 C 205.699219 187.414062 205.695312 187.417969 205.695312 187.425781 C 205.691406 187.429688 205.691406 187.433594 205.6875 187.4375 C 205.6875 187.441406 205.683594 187.449219 205.679688 187.453125 C 205.679688 187.457031 205.675781 187.460938 205.671875 187.464844 C 205.671875 187.46875 205.667969 187.476562 205.664062 187.480469 C 205.660156 187.484375 205.660156 187.488281 205.65625 187.492188 C 205.65625 187.5 205.652344 187.503906 205.648438 187.507812 C 205.648438 187.511719 205.644531 187.515625 205.644531 187.523438 C 205.640625 187.527344 205.636719 187.53125 205.632812 187.535156 C 205.632812 187.539062 205.628906 187.542969 205.625 187.550781 C 205.621094 187.554688 205.621094 187.558594 205.617188 187.5625 C 205.617188 187.570312 205.613281 187.574219 205.609375 187.578125 C 205.609375 187.582031 205.605469 187.589844 205.601562 187.59375 C 205.597656 187.597656 205.597656 187.601562 205.59375 187.605469 C 205.59375 187.613281 205.589844 187.617188 205.585938 187.617188 C 205.582031 187.625 205.578125 187.628906 205.578125 187.632812 C 205.574219 187.636719 205.574219 187.640625 205.570312 187.644531 C 205.566406 187.652344 205.566406 187.65625 205.5625 187.660156 C 205.558594 187.664062 205.554688 187.667969 205.554688 187.675781 L 205.550781 187.675781 C 205.550781 187.679688 205.546875 187.679688 205.546875 187.6875 C 205.542969 187.691406 205.539062 187.695312 205.535156 187.703125 C 205.535156 187.703125 205.53125 187.707031 205.527344 187.714844 C 205.527344 187.71875 205.523438 187.722656 205.519531 187.726562 C 205.515625 187.730469 205.515625 187.734375 205.511719 187.738281 C 205.507812 187.742188 205.503906 187.75 205.503906 187.753906 C 205.5 187.757812 205.496094 187.761719 205.492188 187.765625 C 205.492188 187.769531 205.488281 187.773438 205.484375 187.777344 C 205.480469 187.78125 205.476562 187.785156 205.476562 187.792969 C 205.472656 187.796875 205.46875 187.800781 205.46875 187.804688 C 205.464844 187.808594 205.460938 187.8125 205.457031 187.816406 C 205.457031 187.820312 205.453125 187.824219 205.449219 187.828125 C 205.445312 187.832031 205.441406 187.835938 205.441406 187.84375 C 205.4375 187.847656 205.433594 187.851562 205.429688 187.855469 C 205.429688 187.859375 205.425781 187.863281 205.421875 187.867188 C 205.417969 187.871094 205.417969 187.875 205.414062 187.878906 C 205.410156 187.882812 205.40625 187.886719 205.402344 187.894531 C 205.398438 187.894531 205.398438 187.898438 205.394531 187.90625 C 205.390625 187.910156 205.390625 187.914062 205.386719 187.917969 C 205.382812 187.921875 205.378906 187.925781 205.375 187.929688 C 205.371094 187.933594 205.371094 187.9375 205.367188 187.941406 C 205.363281 187.945312 205.359375 187.949219 205.355469 187.953125 C 205.351562 187.957031 205.351562 187.960938 205.347656 187.964844 C 205.34375 187.96875 205.339844 187.972656 205.339844 187.976562 C 205.335938 187.980469 205.332031 187.984375 205.328125 187.988281 C 205.324219 187.992188 205.324219 187.996094 205.320312 188 C 205.316406 188.003906 205.3125 188.007812 205.308594 188.011719 C 205.308594 188.015625 205.304688 188.019531 205.300781 188.023438 C 205.296875 188.027344 205.292969 188.03125 205.289062 188.035156 C 205.289062 188.039062 205.285156 188.042969 205.28125 188.046875 C 205.277344 188.050781 205.273438 188.050781 205.273438 188.058594 C 205.269531 188.0625 205.265625 188.066406 205.261719 188.070312 C 205.257812 188.074219 205.253906 188.074219 205.25 188.078125 C 205.25 188.082031 205.246094 188.085938 205.242188 188.089844 C 205.238281 188.09375 205.238281 188.097656 205.234375 188.101562 L 205.230469 188.101562 C 205.230469 188.101562 205.226562 188.109375 205.222656 188.109375 C 205.21875 188.113281 205.214844 188.117188 205.214844 188.121094 L 205.210938 188.121094 C 205.210938 188.125 205.207031 188.128906 205.203125 188.132812 C 205.199219 188.132812 205.195312 188.136719 205.195312 188.140625 C 205.191406 188.144531 205.1875 188.148438 205.183594 188.152344 C 205.179688 188.15625 205.175781 188.160156 205.171875 188.160156 C 205.171875 188.164062 205.167969 188.167969 205.164062 188.171875 C 205.160156 188.175781 205.160156 188.175781 205.15625 188.179688 C 205.152344 188.183594 205.148438 188.1875 205.144531 188.1875 C 205.140625 188.191406 205.136719 188.195312 205.136719 188.199219 C 205.128906 188.203125 205.128906 188.207031 205.125 188.207031 C 205.121094 188.210938 205.117188 188.214844 205.113281 188.214844 C 205.113281 188.21875 205.109375 188.222656 205.105469 188.226562 C 205.101562 188.226562 205.097656 188.230469 205.097656 188.234375 C 205.09375 188.238281 205.089844 188.238281 205.085938 188.242188 C 205.082031 188.246094 205.078125 188.25 205.074219 188.25 C 205.074219 188.253906 205.070312 188.257812 205.066406 188.261719 C 205.0625 188.261719 205.058594 188.265625 205.058594 188.269531 C 205.054688 188.269531 205.050781 188.273438 205.046875 188.277344 C 205.042969 188.277344 205.039062 188.28125 205.035156 188.285156 C 205.035156 188.285156 205.03125 188.289062 205.027344 188.289062 C 205.023438 188.292969 205.019531 188.296875 205.019531 188.296875 C 205.015625 188.300781 205.011719 188.300781 205.007812 188.304688 C 205.003906 188.308594 205.003906 188.308594 205 188.3125 L 204.96875 188.324219 C 204.957031 188.328125 204.945312 188.328125 204.933594 188.335938 C 204.921875 188.335938 204.910156 188.339844 204.898438 188.339844 C 204.886719 188.34375 204.875 188.347656 204.863281 188.347656 C 204.851562 188.351562 204.839844 188.351562 204.828125 188.355469 C 204.816406 188.359375 204.800781 188.363281 204.792969 188.363281 C 204.78125 188.367188 204.769531 188.367188 204.757812 188.371094 L 204.753906 188.371094 C 204.742188 188.375 204.734375 188.375 204.71875 188.378906 C 204.707031 188.382812 204.695312 188.382812 204.683594 188.386719 C 204.671875 188.386719 204.660156 188.390625 204.648438 188.390625 C 204.632812 188.394531 204.625 188.394531 204.613281 188.398438 L 204.609375 188.398438 C 204.597656 188.402344 204.585938 188.402344 204.574219 188.40625 C 204.5625 188.40625 204.550781 188.410156 204.539062 188.410156 C 204.527344 188.414062 204.511719 188.414062 204.5 188.417969 C 204.488281 188.417969 204.476562 188.421875 204.464844 188.425781 C 204.453125 188.425781 204.441406 188.429688 204.429688 188.429688 C 204.417969 188.429688 204.40625 188.433594 204.394531 188.433594 C 204.378906 188.4375 204.367188 188.4375 204.355469 188.441406 C 204.34375 188.441406 204.332031 188.445312 204.320312 188.445312 L 204.316406 188.445312 C 204.304688 188.445312 204.292969 188.449219 204.28125 188.453125 C 204.269531 188.453125 204.257812 188.453125 204.246094 188.457031 C 204.234375 188.457031 204.21875 188.457031 204.207031 188.460938 C 204.195312 188.460938 204.183594 188.464844 204.171875 188.464844 C 204.160156 188.464844 204.148438 188.46875 204.132812 188.46875 C 204.121094 188.472656 204.109375 188.472656 204.097656 188.476562 C 204.085938 188.476562 204.070312 188.476562 204.058594 188.476562 C 204.046875 188.480469 204.035156 188.480469 204.023438 188.484375 C 204.011719 188.484375 204 188.488281 203.984375 188.488281 C 203.972656 188.488281 203.960938 188.488281 203.949219 188.492188 C 203.9375 188.492188 203.925781 188.492188 203.910156 188.492188 C 203.898438 188.496094 203.886719 188.496094 203.875 188.496094 C 203.863281 188.496094 203.847656 188.5 203.835938 188.5 C 203.824219 188.5 203.8125 188.503906 203.800781 188.503906 C 203.789062 188.503906 203.773438 188.503906 203.761719 188.507812 C 203.75 188.507812 203.738281 188.507812 203.722656 188.507812 C 203.710938 188.511719 203.699219 188.511719 203.6875 188.515625 C 203.675781 188.515625 203.660156 188.515625 203.652344 188.515625 C 203.636719 188.515625 203.625 188.515625 203.613281 188.519531 C 203.601562 188.519531 203.585938 188.519531 203.574219 188.519531 C 203.5625 188.519531 203.550781 188.523438 203.539062 188.523438 C 203.523438 188.523438 203.511719 188.527344 203.5 188.527344 C 203.488281 188.527344 203.476562 188.527344 203.460938 188.527344 C 203.449219 188.527344 203.4375 188.53125 203.425781 188.53125 C 203.414062 188.53125 203.398438 188.53125 203.386719 188.53125 C 203.375 188.53125 203.363281 188.53125 203.351562 188.53125 C 203.339844 188.535156 203.324219 188.535156 203.3125 188.535156 C 203.300781 188.535156 203.289062 188.535156 203.277344 188.535156 L 203.273438 188.535156 C 203.261719 188.539062 203.25 188.539062 203.238281 188.539062 C 203.226562 188.539062 203.214844 188.539062 203.203125 188.539062 L 203.199219 188.539062 C 203.1875 188.539062 203.175781 188.539062 203.164062 188.539062 C 203.152344 188.539062 203.140625 188.539062 203.125 188.542969 C 203.113281 188.542969 203.101562 188.542969 203.089844 188.542969 L 203.015625 188.542969 C 203.003906 188.542969 202.988281 188.542969 202.976562 188.542969 C 202.964844 188.542969 202.953125 188.542969 202.941406 188.546875 L 202.902344 188.546875 C 202.890625 188.546875 202.878906 188.546875 202.867188 188.546875 L 202.683594 188.546875 C 202.667969 188.546875 202.65625 188.546875 202.644531 188.546875 L 202.609375 188.546875 C 202.597656 188.542969 202.582031 188.546875 202.570312 188.546875 C 202.558594 188.542969 202.546875 188.542969 202.535156 188.542969 C 202.523438 188.542969 202.511719 188.542969 202.5 188.542969 L 202.425781 188.542969 C 202.414062 188.542969 202.402344 188.542969 202.390625 188.542969 C 202.378906 188.542969 202.363281 188.539062 202.351562 188.539062 C 202.339844 188.539062 202.328125 188.539062 202.316406 188.539062 C 202.304688 188.539062 202.292969 188.539062 202.28125 188.539062 C 202.269531 188.539062 202.257812 188.539062 202.246094 188.539062 L 202.210938 188.539062 C 202.195312 188.535156 202.183594 188.535156 202.175781 188.535156 L 202.171875 188.535156 C 202.160156 188.535156 202.148438 188.535156 202.136719 188.535156 C 202.125 188.535156 202.113281 188.53125 202.101562 188.53125 L 202.066406 188.53125 C 202.054688 188.53125 202.042969 188.53125 202.03125 188.53125 C 202.019531 188.527344 202.007812 188.527344 201.996094 188.527344 C 201.984375 188.527344 201.972656 188.527344 201.960938 188.527344 C 201.949219 188.527344 201.9375 188.527344 201.925781 188.527344 C 201.914062 188.523438 201.902344 188.523438 201.890625 188.523438 C 201.878906 188.523438 201.867188 188.519531 201.855469 188.519531 C 201.84375 188.519531 201.832031 188.519531 201.820312 188.519531 C 201.808594 188.519531 201.800781 188.519531 201.789062 188.515625 L 201.785156 188.515625 C 201.773438 188.515625 201.765625 188.515625 201.753906 188.515625 C 201.742188 188.515625 201.730469 188.515625 201.71875 188.515625 C 201.707031 188.511719 201.695312 188.511719 201.683594 188.511719 C 201.671875 188.511719 201.660156 188.507812 201.648438 188.507812 C 201.636719 188.507812 201.628906 188.507812 201.617188 188.507812 C 201.605469 188.503906 201.59375 188.503906 201.582031 188.503906 C 201.570312 188.503906 201.558594 188.503906 201.546875 188.503906 C 201.539062 188.5 201.527344 188.5 201.515625 188.5 C 201.503906 188.496094 201.492188 188.496094 201.484375 188.496094 L 201.480469 188.496094 C 201.46875 188.496094 201.460938 188.496094 201.449219 188.496094 C 201.4375 188.492188 201.425781 188.492188 201.414062 188.492188 C 201.402344 188.492188 201.394531 188.492188 201.382812 188.492188 C 201.371094 188.488281 201.359375 188.488281 201.347656 188.488281 C 201.339844 188.488281 201.328125 188.488281 201.316406 188.488281 C 201.304688 188.484375 201.292969 188.484375 201.285156 188.484375 C 201.273438 188.480469 201.261719 188.480469 201.253906 188.480469 C 201.242188 188.480469 201.230469 188.476562 201.21875 188.476562 C 201.210938 188.476562 201.199219 188.476562 201.1875 188.476562 C 201.175781 188.476562 201.167969 188.472656 201.15625 188.472656 C 201.144531 188.472656 201.136719 188.46875 201.125 188.46875 C 201.113281 188.46875 201.101562 188.46875 201.09375 188.464844 C 201.082031 188.464844 201.074219 188.464844 201.0625 188.464844 C 201.050781 188.464844 201.039062 188.460938 201.03125 188.460938 C 201.019531 188.460938 201.011719 188.457031 201 188.457031 C 200.988281 188.457031 200.976562 188.457031 200.96875 188.457031 C 200.957031 188.453125 200.949219 188.453125 200.9375 188.453125 C 200.929688 188.453125 200.917969 188.453125 200.910156 188.449219 C 200.898438 188.449219 200.886719 188.445312 200.878906 188.445312 C 200.867188 188.445312 200.859375 188.445312 200.847656 188.445312 C 200.835938 188.441406 200.828125 188.441406 200.816406 188.441406 C 200.808594 188.441406 200.796875 188.4375 200.789062 188.4375 C 200.777344 188.4375 200.769531 188.4375 200.761719 188.4375 L 200.757812 188.4375 C 200.75 188.433594 200.738281 188.433594 200.730469 188.433594 C 200.722656 188.429688 200.710938 188.429688 200.699219 188.429688 C 200.691406 188.429688 200.683594 188.429688 200.671875 188.425781 C 200.660156 188.425781 200.652344 188.425781 200.644531 188.425781 C 200.632812 188.425781 200.625 188.421875 200.613281 188.421875 C 200.605469 188.417969 200.597656 188.417969 200.589844 188.417969 C 200.578125 188.417969 200.570312 188.417969 200.558594 188.414062 C 200.550781 188.414062 200.542969 188.414062 200.53125 188.414062 C 200.523438 188.410156 200.511719 188.410156 200.503906 188.410156 Z M 179.367188 253.707031 C 179.484375 253.410156 179.96875 253.429688 180.0625 253.730469 C 181.976562 260.070312 185.691406 265.917969 190.824219 270.113281 C 195.035156 273.550781 200.199219 275.878906 206.113281 276.460938 C 204.910156 275.761719 203.722656 274.75 202.75 273.507812 C 201.492188 271.902344 200.59375 269.910156 200.472656 267.699219 C 200.355469 265.488281 201.019531 263.0625 202.894531 260.59375 C 205.175781 257.585938 209.265625 254.511719 215.945312 251.691406 C 216.886719 251.207031 218.972656 250.15625 220.867188 248.480469 C 222.757812 246.808594 224.480469 244.503906 224.734375 241.488281 C 224.761719 241.148438 225.335938 241.089844 225.445312 241.410156 C 225.925781 242.828125 226.046875 244.324219 225.90625 245.867188 C 225.789062 247.136719 225.496094 248.4375 225.089844 249.75 C 228.570312 247.863281 231.101562 244.582031 232.921875 240.980469 C 236.222656 234.441406 237.175781 226.867188 237.199219 224.527344 C 237.203125 224.242188 237.582031 224.082031 237.808594 224.277344 C 238.28125 224.679688 238.769531 225.207031 239.1875 225.867188 C 239.265625 225.992188 239.339844 226.121094 239.414062 226.257812 C 239.609375 221.90625 239.164062 218.15625 238.101562 214.644531 C 236.90625 210.707031 234.9375 207.066406 232.226562 203.199219 C 232.074219 202.984375 232.234375 202.679688 232.507812 202.667969 C 232.894531 202.648438 233.328125 202.726562 233.804688 202.914062 C 233.980469 202.984375 234.167969 203.070312 234.359375 203.175781 C 232.351562 198.242188 229.6875 195.210938 226.429688 191.5 C 226.085938 191.109375 225.738281 190.710938 225.445312 190.378906 C 225.402344 190.328125 225.355469 190.160156 225.375 190.089844 C 225.625 189.007812 225.789062 188.449219 226.164062 187.964844 C 226.492188 187.542969 226.949219 187.222656 227.746094 186.6875 C 226.667969 185.578125 224.164062 184.710938 221.375 184.121094 C 217.707031 183.34375 213.582031 183.058594 211.5 183.328125 C 212.523438 185.035156 212.953125 186.789062 213.003906 188.429688 C 213.070312 190.730469 212.394531 192.816406 211.570312 194.230469 C 211.394531 194.53125 210.835938 194.347656 210.890625 194.007812 C 211.054688 193.039062 211.398438 191.144531 211.296875 189.101562 C 211.199219 187.121094 210.683594 184.988281 209.171875 183.398438 C 202.925781 182.726562 194.003906 186.140625 188.375 188.289062 C 187.957031 188.449219 187.765625 188.523438 187.605469 188.585938 C 187.8125 189.699219 187.691406 190.730469 187.574219 191.722656 C 187.347656 193.644531 187.132812 195.433594 189.621094 197.355469 C 190.945312 194.792969 192.941406 194.535156 194.890625 195.363281 C 196.203125 195.921875 197.488281 197.003906 198.5 198.191406 C 199.515625 199.382812 200.265625 200.691406 200.511719 201.703125 C 200.75 202.6875 200.542969 203.433594 199.714844 203.667969 C 199.644531 203.714844 199.554688 203.753906 199.453125 203.785156 C 198.976562 203.921875 197.9375 203.9375 196.886719 203.785156 C 195.824219 203.628906 194.722656 203.296875 194.125 202.746094 C 193.917969 202.558594 193.765625 202.34375 193.6875 202.097656 C 193.617188 201.949219 193.554688 201.832031 193.5 201.746094 C 193.453125 201.9375 193.425781 202.1875 193.414062 202.402344 C 193.472656 203.425781 193.6875 204.457031 194.066406 205.359375 C 194.371094 206.09375 194.785156 206.738281 195.308594 207.210938 C 195.511719 207.144531 195.753906 207.058594 196.015625 206.964844 C 196.964844 206.632812 198.222656 206.1875 199.570312 206 C 199.570312 206 199.621094 206 199.621094 206 C 200.511719 206 201.464844 206.027344 202.429688 206.058594 C 205.566406 206.160156 208.855469 206.261719 210.800781 205.359375 C 212.613281 204.515625 213.25 202.703125 211.417969 198.957031 C 211.265625 198.644531 211.820312 198.332031 212.039062 198.605469 C 215.480469 202.957031 214.03125 205.589844 212.015625 207.101562 C 211.054688 207.824219 209.96875 208.277344 209.246094 208.539062 C 210.027344 209.011719 210.46875 209.679688 210.636719 210.449219 C 210.804688 211.222656 210.695312 212.097656 210.378906 212.972656 C 210.222656 213.410156 210.015625 213.851562 209.765625 214.277344 C 209.742188 214.316406 209.613281 214.421875 209.574219 214.4375 C 205.0625 216.011719 196.550781 219.660156 190.179688 224.324219 C 186.359375 227.117188 183.316406 230.269531 182.40625 233.535156 C 183.3125 233 184.234375 232.601562 185.234375 232.335938 C 186.511719 232 187.914062 231.878906 189.574219 231.960938 C 189.917969 231.980469 189.996094 232.53125 189.671875 232.632812 C 188.742188 232.925781 187.804688 233.292969 186.871094 233.730469 C 183.046875 235.527344 179.359375 238.539062 177.117188 242.574219 C 174.878906 246.605469 174.082031 251.675781 176.039062 257.585938 C 176.347656 258.53125 176.730469 259.496094 177.1875 260.480469 C 177.648438 259.351562 177.992188 258.148438 178.332031 256.953125 C 178.644531 255.847656 178.957031 254.757812 179.367188 253.707031 "/>
<path fill-rule="evenodd" fill="rgb(9.085083%, 9.190369%, 8.953857%)" fill-opacity="1" d="M 193.414062 200.660156 C 192.078125 200.832031 190.800781 201.230469 189.597656 201.601562 C 186.414062 202.597656 183.730469 203.433594 181.65625 199.613281 C 181.628906 199.5625 181.699219 199.507812 181.742188 199.539062 C 184.800781 201.554688 188.113281 200.53125 191.074219 199.609375 C 193.621094 198.820312 195.914062 198.109375 197.59375 199.460938 C 197.613281 199.476562 197.617188 199.519531 197.597656 199.539062 C 197.527344 199.621094 196.96875 199.738281 196.269531 199.886719 C 195.269531 200.101562 193.96875 200.375 193.4375 200.652344 C 193.433594 200.652344 193.417969 200.660156 193.414062 200.660156 "/>
<path fill-rule="evenodd" fill="rgb(9.085083%, 9.190369%, 8.953857%)" fill-opacity="1" d="M 169.90625 210.199219 L 170.03125 208.675781 C 169.699219 209.0625 169.386719 209.46875 169.089844 209.898438 C 169.007812 210.015625 168.925781 210.132812 168.847656 210.253906 C 169.207031 210.246094 169.558594 210.230469 169.90625 210.199219 M 152.90625 214.421875 C 152.902344 214.421875 152.902344 214.421875 152.898438 214.421875 C 153.757812 215.113281 154.59375 215.785156 152.90625 214.421875 M 148.707031 217.046875 L 148.78125 218.109375 C 149.070312 217.929688 149.359375 217.742188 149.652344 217.550781 C 149.691406 217.527344 149.730469 217.5 149.769531 217.472656 C 149.414062 217.324219 149.058594 217.183594 148.707031 217.046875 M 148.257812 210.859375 L 148.347656 212.117188 C 148.707031 211.976562 149.066406 211.824219 149.429688 211.667969 C 149.039062 211.382812 148.648438 211.109375 148.257812 210.859375 M 154.085938 210.792969 C 154.117188 210.820312 154.148438 210.847656 154.179688 210.875 C 158.5 214.355469 153.851562 210.605469 154.085938 210.792969 M 164.871094 272.566406 L 169.59375 214.070312 C 168.300781 214.117188 167.011719 214.0625 165.757812 214.007812 C 165.738281 214.007812 165.714844 214.003906 165.691406 214.003906 C 164.324219 213.941406 163.300781 212.292969 163.894531 211.09375 C 164.496094 209.875 165.183594 208.621094 165.976562 207.472656 C 166.816406 206.261719 167.78125 205.140625 168.917969 204.238281 C 169.417969 203.839844 169.933594 203.578125 170.453125 203.421875 L 170.539062 202.375 L 147.632812 202.269531 L 147.949219 206.59375 C 150.164062 207.597656 152.09375 209.167969 153.910156 210.652344 L 153.90625 210.65625 C 153.96875 210.703125 154.027344 210.753906 154.082031 210.796875 L 154.085938 210.792969 L 154.082031 210.796875 C 154.117188 210.824219 154.148438 210.851562 154.179688 210.875 C 155.171875 211.785156 155.070312 213.414062 153.945312 213.9375 C 153.835938 213.988281 153.730469 214.039062 153.621094 214.089844 C 153.386719 214.199219 153.144531 214.3125 152.90625 214.421875 C 152.636719 214.207031 152.308594 213.941406 151.90625 213.617188 L 151.902344 213.621094 C 151.996094 213.699219 152.449219 214.0625 152.898438 214.421875 C 152.730469 214.503906 152.554688 214.582031 152.382812 214.660156 C 152.410156 214.675781 152.4375 214.6875 152.464844 214.699219 C 152.84375 214.871094 153.148438 215.011719 153.394531 215.128906 C 153.792969 215.316406 154.078125 215.453125 154.273438 215.546875 L 154.28125 215.550781 C 155.597656 216.191406 155.914062 218.035156 154.828125 218.8125 C 154.25 219.226562 153.65625 219.644531 153.070312 220.046875 C 154.253906 220.507812 154.863281 222.074219 154.140625 223.039062 C 153.550781 223.824219 152.277344 225.386719 150.882812 226.574219 C 150.597656 226.816406 150.308594 227.046875 150.007812 227.257812 C 149.828125 227.382812 149.648438 227.503906 149.46875 227.613281 L 149.484375 227.796875 L 149.484375 227.800781 L 149.488281 227.847656 L 149.554688 228.804688 C 150.292969 241.828125 151.800781 259.257812 152.921875 273.507812 C 153.539062 273.457031 154.242188 273.507812 155.042969 273.6875 C 157.847656 274.328125 162.492188 272.230469 164.871094 272.566406 "/>
<path fill-rule="evenodd" fill="rgb(9.085083%, 9.190369%, 8.953857%)" fill-opacity="1" d="M 171.773438 132.34375 C 167.851562 131.507812 163.050781 131.257812 158.410156 131.421875 C 153.765625 131.582031 148.992188 132.167969 145.144531 133.273438 C 139.433594 129.894531 138.703125 123.378906 144.582031 120.578125 C 148.945312 119.691406 153.582031 119.011719 157.96875 118.859375 C 162.359375 118.707031 167.03125 119.058594 171.445312 119.640625 C 177.503906 122.023438 177.230469 128.574219 171.773438 132.34375 "/>
<path fill-rule="evenodd" fill="rgb(9.085083%, 9.190369%, 8.953857%)" fill-opacity="1" d="M 210.429688 131.679688 C 205.890625 131.679688 201.046875 132.226562 197.273438 133.382812 C 197.277344 133.535156 197.28125 136.617188 197.285156 139.621094 C 201.683594 139.5 206.066406 139.441406 210.429688 139.441406 C 214.792969 139.441406 219.179688 139.5 223.574219 139.621094 C 223.578125 136.617188 223.585938 133.535156 223.589844 133.382812 C 219.816406 132.226562 214.972656 131.679688 210.429688 131.679688 "/>
<path fill-rule="evenodd" fill="rgb(9.085083%, 9.190369%, 8.953857%)" fill-opacity="1" d="M 158.5 134.089844 C 153.964844 134.25 149.144531 134.964844 145.410156 136.25 C 145.429688 136.558594 145.578125 140.421875 145.71875 144.101562 C 154.394531 142.753906 163.136719 141.730469 171.898438 140.992188 C 171.808594 138.300781 171.714844 135.5625 171.710938 135.332031 C 167.898438 134.308594 163.039062 133.933594 158.5 134.089844 "/>
<path fill-rule="evenodd" fill="rgb(60.647583%, 12.168884%, 23.687744%)" fill-opacity="1" d="M 286.683594 321.039062 L 290.726562 321.695312 L 289.53125 316.070312 Z M 281.855469 325.707031 L 288.988281 313.238281 L 291.707031 313.679688 L 294.710938 327.785156 L 291.925781 327.335938 L 291.125 323.570312 L 285.734375 322.699219 L 283.832031 326.027344 Z M 271.96875 322.175781 L 274 322.46875 C 275.058594 322.621094 275.894531 322.566406 276.503906 322.3125 C 277.113281 322.058594 277.632812 321.554688 278.070312 320.796875 C 278.507812 320.042969 278.792969 319.171875 278.929688 318.1875 C 279.058594 317.25 279.015625 316.390625 278.800781 315.621094 C 278.578125 314.84375 278.214844 314.230469 277.707031 313.777344 C 277.195312 313.320312 276.269531 313 274.9375 312.808594 L 273.292969 312.570312 Z M 268.988281 323.675781 L 270.828125 310.355469 L 276.449219 311.160156 C 277.957031 311.375 279.097656 311.789062 279.867188 312.402344 C 280.640625 313.011719 281.207031 313.835938 281.570312 314.863281 C 281.9375 315.890625 282.027344 317.085938 281.839844 318.4375 C 281.65625 319.765625 281.253906 320.917969 280.636719 321.890625 C 280.019531 322.871094 279.214844 323.597656 278.226562 324.070312 C 277.234375 324.546875 275.953125 324.675781 274.375 324.449219 Z M 262.945312 323.0625 L 264.324219 309.679688 L 267.054688 309.972656 L 265.671875 323.351562 Z M 253.625 321.847656 L 249.917969 308.011719 L 252.839844 308.273438 L 255.71875 318.980469 L 260.25 308.933594 L 262.21875 309.109375 L 256.375 322.09375 Z M 239.804688 315.503906 L 243.894531 315.722656 L 242.128906 310.257812 Z M 235.488281 320.660156 L 241.300781 307.5 L 244.050781 307.648438 L 248.484375 321.355469 L 245.667969 321.207031 L 244.484375 317.546875 L 239.035156 317.257812 L 237.480469 320.769531 Z M 228.667969 313.132812 L 229.183594 313.152344 C 230.191406 313.1875 230.941406 312.964844 231.433594 312.488281 C 231.921875 312.011719 232.175781 311.441406 232.199219 310.773438 C 232.214844 310.398438 232.148438 310.058594 232.011719 309.746094 C 231.871094 309.433594 231.652344 309.1875 231.34375 309 C 231.035156 308.8125 230.542969 308.707031 229.851562 308.683594 L 228.820312 308.648438 Z M 225.730469 320.152344 L 226.191406 306.707031 L 230.726562 306.867188 C 232.046875 306.914062 232.96875 307.085938 233.496094 307.386719 C 234.019531 307.6875 234.410156 308.105469 234.667969 308.628906 C 234.921875 309.152344 235.035156 309.804688 235.007812 310.585938 C 234.957031 312.085938 234.453125 313.214844 233.496094 313.96875 C 232.539062 314.722656 231.28125 315.074219 229.722656 315.019531 L 228.601562 314.976562 L 228.421875 320.246094 Z M 209.15625 319.90625 L 209.15625 306.453125 L 212.789062 306.453125 L 215.972656 315.914062 L 219.246094 306.453125 L 222.4375 306.453125 L 222.4375 319.90625 L 219.902344 319.90625 L 219.902344 309.753906 L 216.683594 319.007812 L 214.472656 319.007812 L 211.316406 309.617188 L 211.316406 319.90625 Z M 203.105469 319.875 L 202.871094 306.421875 L 205.617188 306.375 L 205.847656 319.828125 Z M 186.097656 320.3125 L 186.015625 318.007812 C 187.058594 318.40625 187.835938 318.636719 188.347656 318.703125 C 188.859375 318.769531 189.328125 318.796875 189.757812 318.78125 C 190.527344 318.753906 191.09375 318.554688 191.460938 318.191406 C 191.832031 317.828125 192.003906 317.398438 191.988281 316.910156 C 191.976562 316.535156 191.855469 316.199219 191.632812 315.902344 C 191.414062 315.613281 190.878906 315.246094 190.035156 314.804688 L 189.132812 314.335938 C 187.835938 313.664062 186.953125 313.027344 186.484375 312.433594 C 186.007812 311.835938 185.753906 311.136719 185.726562 310.328125 C 185.691406 309.320312 186.042969 308.441406 186.773438 307.695312 C 187.511719 306.945312 188.585938 306.546875 190.011719 306.496094 C 191.070312 306.457031 192.273438 306.570312 193.617188 306.828125 L 193.691406 308.980469 C 192.308594 308.519531 191.21875 308.300781 190.417969 308.328125 C 189.753906 308.351562 189.253906 308.515625 188.917969 308.824219 C 188.582031 309.128906 188.417969 309.484375 188.433594 309.898438 C 188.445312 310.214844 188.5625 310.503906 188.78125 310.769531 C 188.992188 311.035156 189.523438 311.386719 190.367188 311.828125 L 191.335938 312.332031 C 192.824219 313.113281 193.773438 313.796875 194.199219 314.394531 C 194.613281 315 194.835938 315.683594 194.863281 316.453125 C 194.898438 317.558594 194.519531 318.511719 193.722656 319.324219 C 192.925781 320.132812 191.628906 320.570312 189.832031 320.632812 C 188.765625 320.671875 187.519531 320.566406 186.097656 320.3125 M 172.363281 308.050781 L 175.101562 307.855469 L 175.664062 316.078125 C 175.765625 317.566406 176.082031 318.53125 176.613281 318.984375 C 177.140625 319.429688 177.796875 319.625 178.585938 319.570312 C 179.363281 319.515625 179.96875 319.230469 180.394531 318.722656 C 180.820312 318.210938 180.984375 317.273438 180.890625 315.90625 L 180.316406 307.484375 L 182.695312 307.3125 L 183.261719 315.558594 C 183.371094 317.109375 183.253906 318.238281 182.917969 318.9375 C 182.582031 319.640625 182.066406 320.210938 181.371094 320.648438 C 180.671875 321.089844 179.769531 321.34375 178.660156 321.425781 C 177.570312 321.503906 176.621094 321.390625 175.8125 321.085938 C 175.003906 320.78125 174.351562 320.289062 173.84375 319.613281 C 173.339844 318.9375 173.03125 317.820312 172.925781 316.265625 Z M 164.046875 322.261719 L 163.054688 310.695312 L 158.347656 311.117188 L 158.1875 309.28125 L 170.347656 308.195312 L 170.507812 310.03125 L 165.800781 310.453125 L 166.789062 322.015625 Z M 150.054688 316.554688 L 150.679688 316.480469 C 151.804688 316.339844 152.550781 315.992188 152.914062 315.4375 C 153.28125 314.886719 153.425781 314.292969 153.351562 313.664062 C 153.285156 313.113281 153.058594 312.703125 152.671875 312.425781 C 152.285156 312.144531 151.558594 312.074219 150.488281 312.207031 L 149.542969 312.328125 Z M 148.363281 324.167969 L 146.757812 310.816406 L 151.660156 310.199219 C 152.660156 310.074219 153.441406 310.109375 154 310.300781 C 154.550781 310.488281 155.015625 310.824219 155.378906 311.308594 C 155.746094 311.789062 155.96875 312.355469 156.046875 313.011719 C 156.144531 313.796875 156.011719 314.5625 155.652344 315.3125 C 155.292969 316.0625 154.734375 316.671875 153.964844 317.140625 L 159.003906 322.835938 L 155.683594 323.253906 L 151.769531 318.203125 L 150.273438 318.390625 L 150.933594 323.847656 Z M 142.308594 325.257812 L 140.472656 311.933594 L 143.1875 311.542969 L 145.027344 324.867188 Z M 133.121094 327.007812 L 126.027344 314.621094 L 128.914062 314.101562 L 134.414062 323.6875 L 136.238281 312.785156 L 138.1875 312.4375 L 135.835938 326.519531 Z M 117.488281 305.617188 C 182.332031 291.078125 252.269531 294.515625 303.488281 305.617188 L 300.332031 323.6875 C 303.984375 324.355469 307.800781 325.128906 311.671875 326.011719 L 306.445312 351.042969 C 299.640625 349.269531 278.816406 345.585938 271.175781 345.183594 L 296.6875 338.285156 L 296.6875 337.851562 C 246.535156 327.351562 183.308594 324.675781 123.527344 338.003906 L 123.527344 338.285156 L 149.207031 345.175781 C 141.707031 345.53125 120.625 349.253906 113.769531 351.042969 L 108.542969 326.011719 C 112.679688 325.070312 116.746094 324.253906 120.621094 323.554688 Z M 117.488281 305.617188 "/>
<path fill-rule="evenodd" fill="rgb(60.647583%, 12.168884%, 23.687744%)" fill-opacity="1" d="M 210.378906 114.464844 C 205.769531 114.492188 191.101562 111.828125 191.019531 102.210938 C 190.992188 98.554688 194.085938 95.117188 195.925781 91.964844 C 207.277344 76.902344 213.683594 69.996094 205.652344 55.941406 C 208.148438 56.375 211.960938 59.835938 213.933594 62.367188 C 217.414062 68.300781 217.742188 74.480469 215.507812 81.339844 C 213.152344 87.046875 205.449219 94.183594 207.871094 100.734375 C 210.132812 106.855469 218.03125 107.339844 215.464844 100.910156 C 214.140625 97.589844 212.5 97.261719 213.535156 93.425781 C 215.203125 87.253906 223.230469 79.4375 219.714844 72.007812 C 227.808594 76.582031 222.839844 89.042969 223.605469 91.21875 C 224.027344 93.027344 230.28125 98.527344 229.816406 102.253906 C 228.671875 111.390625 217.953125 114.878906 210.378906 114.464844 "/>
<path fill-rule="evenodd" fill="rgb(60.647583%, 12.168884%, 23.687744%)" fill-opacity="1" d="M 158.738281 116.847656 C 154.132812 116.878906 139.460938 114.214844 139.382812 104.59375 C 139.355469 100.9375 142.449219 97.503906 144.289062 94.351562 C 155.640625 79.285156 162.046875 72.382812 154.015625 58.328125 C 156.511719 58.757812 160.320312 62.21875 162.292969 64.753906 C 165.777344 70.683594 166.105469 76.863281 163.871094 83.722656 C 161.519531 89.433594 153.8125 96.566406 156.234375 103.117188 C 158.496094 109.238281 166.394531 109.726562 163.828125 103.292969 C 162.503906 99.972656 160.863281 99.644531 161.898438 95.8125 C 163.5625 89.640625 171.59375 81.824219 168.078125 74.390625 C 176.171875 78.964844 171.203125 91.429688 171.964844 93.601562 C 172.390625 95.410156 178.644531 100.910156 178.179688 104.636719 C 177.035156 113.777344 166.316406 117.265625 158.738281 116.847656 "/>
<path fill-rule="evenodd" fill="rgb(60.647583%, 12.168884%, 23.687744%)" fill-opacity="1" d="M 262.015625 116.847656 C 257.40625 116.878906 242.738281 114.214844 242.660156 104.59375 C 242.628906 100.9375 245.722656 97.503906 247.5625 94.351562 C 258.914062 79.285156 265.324219 72.382812 257.289062 58.328125 C 259.785156 58.757812 263.597656 62.21875 265.566406 64.753906 C 269.050781 70.683594 269.378906 76.863281 267.144531 83.722656 C 264.792969 89.433594 257.085938 96.566406 259.507812 103.117188 C 261.769531 109.238281 269.671875 109.726562 267.101562 103.292969 C 265.777344 99.972656 264.136719 99.644531 265.171875 95.8125 C 266.839844 89.640625 274.867188 81.824219 271.351562 74.390625 C 279.445312 78.964844 274.476562 91.429688 275.242188 93.601562 C 275.667969 95.410156 281.917969 100.910156 281.453125 104.636719 C 280.308594 113.777344 269.589844 117.265625 262.015625 116.847656 "/>
<path fill-rule="evenodd" fill="rgb(9.085083%, 9.190369%, 8.953857%)" fill-opacity="1" d="M 249.089844 132.34375 C 253.007812 131.507812 257.8125 131.257812 262.453125 131.421875 C 267.09375 131.582031 271.871094 132.167969 275.71875 133.273438 C 281.429688 129.894531 282.15625 123.378906 276.28125 120.578125 C 271.917969 119.691406 267.28125 119.011719 262.890625 118.859375 C 258.503906 118.707031 253.828125 119.058594 249.417969 119.640625 C 243.359375 122.023438 243.628906 128.574219 249.089844 132.34375 "/>
<path fill-rule="evenodd" fill="rgb(9.085083%, 9.190369%, 8.953857%)" fill-opacity="1" d="M 262.359375 134.089844 C 266.898438 134.25 271.71875 134.964844 275.449219 136.25 C 275.433594 136.550781 275.289062 140.226562 275.152344 143.816406 C 266.476562 142.46875 257.734375 141.445312 248.972656 140.707031 C 249.0625 138.109375 249.148438 135.554688 249.152344 135.332031 C 252.964844 134.308594 257.820312 133.933594 262.359375 134.089844 "/>
<path fill-rule="evenodd" fill="rgb(9.085083%, 9.190369%, 8.953857%)" fill-opacity="1" d="M 210.429688 355.152344 L 210.429688 355.148438 L 210.429688 355.152344 L 210.292969 354.9375 C 206.078125 348.414062 205.609375 342.214844 205.164062 336.34375 C 205.152344 336.175781 205.140625 335.085938 205.128906 333.640625 C 208.679688 333.609375 212.210938 333.625 215.730469 333.675781 C 215.71875 335.101562 215.707031 336.179688 215.695312 336.34375 C 215.25 342.214844 214.78125 348.414062 210.566406 354.9375 Z M 210.429688 355.152344 "/>
<path fill-rule="evenodd" fill="rgb(9.085083%, 9.190369%, 8.953857%)" fill-opacity="1" d="M 165.859375 357.691406 L 165.855469 357.6875 L 165.855469 357.691406 L 165.710938 357.484375 C 161.269531 351.109375 160.585938 344.933594 159.9375 339.078125 C 159.917969 338.917969 159.875 337.882812 159.8125 336.503906 C 163.335938 336.085938 166.863281 335.714844 170.382812 335.386719 C 170.433594 337.125 170.46875 338.519531 170.460938 338.710938 C 170.222656 344.59375 169.96875 350.804688 165.984375 357.472656 Z M 165.859375 357.691406 "/>
<path fill-rule="evenodd" fill="rgb(9.085083%, 9.190369%, 8.953857%)" fill-opacity="1" d="M 255.003906 357.691406 L 255.003906 357.6875 L 255 357.691406 L 254.875 357.472656 C 250.886719 350.804688 250.636719 344.59375 250.398438 338.710938 C 250.390625 338.527344 250.425781 337.226562 250.46875 335.578125 C 254.023438 335.914062 257.546875 336.289062 261.035156 336.703125 C 260.980469 337.984375 260.9375 338.925781 260.917969 339.078125 C 260.273438 344.933594 259.589844 351.109375 255.148438 357.484375 Z M 255.003906 357.691406 "/>
<path fill-rule="evenodd" fill="rgb(9.085083%, 9.190369%, 8.953857%)" fill-opacity="1" d="M 262.214844 385.125 L 262.214844 395.734375 L 277.183594 395.734375 L 277.183594 402.5625 L 262.214844 402.5625 L 262.214844 416.136719 L 282.746094 416.136719 L 282.746094 423.285156 L 254.167969 423.285156 L 254.167969 377.976562 L 283.09375 377.976562 L 283.09375 385.125 Z M 225.046875 384.96875 L 225.046875 399.472656 C 226.40625 399.617188 227.484375 399.691406 228.265625 399.691406 C 231.9375 399.691406 234.609375 399.082031 236.308594 397.847656 C 237.996094 396.621094 238.84375 394.625 238.84375 391.859375 C 238.84375 387.164062 235.050781 384.808594 227.492188 384.808594 C 226.652344 384.808594 225.824219 384.859375 225.046875 384.96875 M 225.046875 406.617188 L 225.046875 423.285156 L 217.003906 423.285156 L 217.003906 378.011719 C 222.363281 377.777344 225.5 377.671875 226.40625 377.671875 C 233.566406 377.671875 238.789062 378.769531 242.105469 380.964844 C 245.410156 383.160156 247.066406 386.582031 247.066406 391.25 C 247.066406 401.632812 240.941406 406.828125 228.699219 406.828125 C 227.789062 406.828125 226.574219 406.765625 225.046875 406.617188 M 188.085938 385.125 L 188.085938 395.734375 L 204.015625 395.734375 L 204.015625 402.5625 L 188.085938 402.5625 L 188.085938 423.285156 L 180.042969 423.285156 L 180.042969 377.976562 L 209.898438 377.976562 L 209.898438 385.125 Z M 137.121094 377.976562 L 145.167969 377.976562 L 145.167969 408.6875 C 145.167969 411.125 145.90625 413.101562 147.390625 414.628906 C 148.882812 416.148438 150.917969 416.910156 153.515625 416.910156 C 156.429688 416.910156 158.6875 416.171875 160.304688 414.671875 C 161.929688 413.175781 162.730469 411.136719 162.730469 408.539062 L 162.730469 377.976562 L 170.773438 377.976562 L 170.773438 409.152344 C 170.773438 413.816406 169.210938 417.457031 166.089844 420.097656 C 162.964844 422.738281 158.792969 424.058594 153.578125 424.058594 C 148.324219 424.058594 144.269531 422.769531 141.40625 420.191406 C 138.554688 417.617188 137.121094 413.925781 137.121094 409.121094 Z M 137.121094 377.976562 "/>
</svg>
