<svg xmlns="http://www.w3.org/2000/svg" viewBox="0 0 1000 971.292"><title>Ativo 70</title><g id="Camada_2" data-name="Camada 2"><g id="Camada_11" data-name="Camada 11"><path d="M979.679,214.716V582.125l-76.549.008V214.716h76.549M999.994,194.4H882.815V602.45l117.178-.012V194.4Z"/><path d="M999.988,0l-798.7.01C181,.01,161.04.082,141.09,4.783A185.639,185.639,0,0,0,63.96,42.807,175.235,175.235,0,0,0,13.538,111.53C-8.414,165.7-3.12,228.163,28.5,277.479c32.359,50.466,85.487,76.471,130.654,81.187,3.774.394,8.47.626,17.862.889,3.8.043,166.27,0,179.385,0a62.833,62.833,0,0,1,57.4,39.713c8.915,22.413,3.532,48.662-12.783,66.126a63.157,63.157,0,0,1-42.884,19.817c-3.932.02-281.324-.037-281.324-.037L0,602.45H325.335c21.937,0,43.133-.016,64.874-3.6,40.922-6.743,79.285-31.738,105.149-63.611a183,183,0,0,0,30.857-56.728c6.923-20.439,10.723-44.032,8.454-65.6a184.451,184.451,0,0,0-7.886-44.7C508.444,310,459.688,263.548,400.436,248.557c-20.568-5.2-41.055-5.658-61.87-5.658-4.408,0-152.93.058-155.216.058a75.955,75.955,0,0,1-11.218-.654c-25.556-3.823-47.385-21.861-53.36-47.587a63.6,63.6,0,0,1,35.808-72.2c10-4.382,23.159-4.993,35.888-4.993l459.934.081-.009,484.844H767.6V117.615H1000ZM747.282,97.3V582.135H670.707l.009-484.823-480.249-.1c-14.936,0-30.609.812-44.235,6.788a83.979,83.979,0,0,0-47.249,95.315c7.687,33.1,35.22,57.858,70.143,63.083a95.42,95.42,0,0,0,14.223.878l155.216-.059c19.485,0,38.5.386,56.887,5.038C447.3,281.368,491.242,323,507.407,374.312a163.4,163.4,0,0,1,6.984,39.808l.028.459.048.457c1.8,17.144-.857,37.373-7.491,56.96a162.146,162.146,0,0,1-27.391,50.444c-24.105,29.7-58.751,50.776-92.677,56.367-20.2,3.328-40.294,3.328-61.572,3.328H37.589l50.2-76.64s266.512.052,270.452.032l.461,0,.46-.023a84.006,84.006,0,0,0,56.7-26.238c21.994-23.543,28.594-57.889,16.815-87.5a82.869,82.869,0,0,0-76.205-52.519c-17.436-.06-176.484-.083-179.086-.1-8.457-.238-13.136-.37-16.12-.682C125.241,334.7,75.939,313.824,45.6,266.514c-27.991-43.654-32.94-98.74-13.237-147.353A154.554,154.554,0,0,1,76.92,58.45C96.98,41.83,119.5,30.743,145.75,24.556c17.957-4.232,37.061-4.232,55.537-4.232l778.388-.008.007,76.984Z"/><path d="M570.463,761.99H554.736v56.6h15.728c17.143,0,17.72-15.427,17.72-28.3S587.607,761.99,570.463,761.99Z"/><path d="M960.254,685.339H39.746A39.745,39.745,0,0,0,0,725.084V931.547a39.745,39.745,0,0,0,39.746,39.745H960.254A39.745,39.745,0,0,0,1000,931.547V725.084A39.745,39.745,0,0,0,960.254,685.339Zm-592.411,189c0,16.292-5.422,30.017-15.153,40.022-10.856,11.145-25.145,16.868-42.3,16.868s-31.443-5.723-42.313-16.868c-9.718-10-15.153-23.73-15.153-40.022V725.4h40.6V876.346c0,13.149,7.714,18.3,16.867,18.3s16.869-5.147,16.869-18.3V725.4h40.585ZM491.586,761.99h-53.17v46.033h45.745v36.591H438.416V928.94H397.831V725.4h93.754ZM571.6,855.182H554.736V928.94H514.151V725.4H571.6c44.03,0,57.178,25.157,57.178,64.891S615.633,855.182,571.6,855.182ZM747.077,761.99h-53.17v46.033H739.65v36.591H693.907v47.735h53.17V928.94H653.322V725.4h93.754Z"/></g></g></svg>