<svg xmlns="http://www.w3.org/2000/svg" viewBox="0 0 1000 971.293"><defs><style>.cls-1{fill:#b30638;}.cls-2{fill:#872367;}.cls-3{fill:#f7941d;}</style></defs><title>Ativo 25</title><g id="Camada_2" data-name="Camada 2"><g id="Camada_11" data-name="Camada 11"><path class="cls-1" d="M570.463,761.99H554.736v56.6h15.728c17.143,0,17.72-15.427,17.72-28.3S587.607,761.99,570.463,761.99Z"/><path class="cls-1" d="M960.254,685.339H39.746A39.745,39.745,0,0,0,0,725.085V931.547a39.745,39.745,0,0,0,39.746,39.745H960.254A39.745,39.745,0,0,0,1000,931.547V725.085A39.745,39.745,0,0,0,960.254,685.339Zm-592.411,189c0,16.292-5.422,30.017-15.153,40.022-10.856,11.145-25.145,16.868-42.3,16.868s-31.443-5.723-42.313-16.868c-9.718-10-15.153-23.73-15.153-40.022V725.4h40.6V876.346c0,13.149,7.714,18.3,16.867,18.3s16.869-5.147,16.869-18.3V725.4h40.585ZM491.586,761.99h-53.17v46.033h45.745v36.591H438.416V928.94H397.831V725.4h93.754ZM571.6,855.182H554.736V928.94H514.151V725.4H571.6c44.03,0,57.178,25.157,57.178,64.891S615.633,855.182,571.6,855.182ZM747.077,761.99h-53.17v46.033H739.65v36.591H693.907v47.735h53.17V928.94H653.322V725.4h93.754Z"/><path class="cls-2" d="M534.669,412.911a184.459,184.459,0,0,0-7.887-44.7C508.444,310,459.688,263.548,400.436,248.558c-20.568-5.2-41.055-5.658-61.87-5.658-4.408,0-152.93.059-155.216.059a75.987,75.987,0,0,1-11.218-.654c-25.556-3.823-47.385-21.861-53.36-47.588a63.6,63.6,0,0,1,35.808-72.2c10-4.382,23.159-4.993,35.888-4.993,4.806,0,319.084.091,319.084.091L496.245,97.3l-305.777-.092c-14.936,0-30.609.812-44.235,6.787a83.98,83.98,0,0,0-47.249,95.316c7.687,33.1,35.22,57.858,70.143,63.083a95.415,95.415,0,0,0,14.223.877l155.216-.059c19.485,0,38.5.385,56.888,5.038C447.3,281.368,491.242,323,507.407,374.313a163.437,163.437,0,0,1,6.983,39.808l.028.459.048.457c1.8,17.144-.857,37.373-7.491,56.96a162.132,162.132,0,0,1-27.391,50.444c-24.1,29.7-58.751,50.777-92.677,56.367-20.2,3.328-40.294,3.328-61.572,3.328H37.59l50.2-76.64s266.512.052,270.451.032l.462,0,.46-.023a84.008,84.008,0,0,0,56.7-26.238c21.994-23.542,28.594-57.889,16.815-87.5a82.87,82.87,0,0,0-76.205-52.519c-17.436-.06-176.484-.082-179.086-.1-8.457-.238-13.136-.371-16.12-.682C125.241,334.7,75.939,313.824,45.6,266.514c-27.991-43.654-32.94-98.739-13.238-147.353A154.555,154.555,0,0,1,76.92,58.451C96.98,41.83,119.5,30.743,145.75,24.556c17.958-4.232,37.062-4.232,55.537-4.232H445.826L432.52.01H201.287c-20.286,0-40.247.072-60.2,4.773A185.647,185.647,0,0,0,63.959,42.807,175.24,175.24,0,0,0,13.538,111.53C-8.415,165.7-3.12,228.164,28.5,277.479c32.359,50.466,85.487,76.471,130.653,81.187,3.774.394,8.47.626,17.862.89,3.8.043,166.27,0,179.385,0a62.833,62.833,0,0,1,57.4,39.713c8.915,22.413,3.532,48.663-12.783,66.126a63.156,63.156,0,0,1-42.883,19.817c-3.931.02-281.325-.037-281.325-.037L0,602.45H325.335c21.937,0,43.134-.016,64.875-3.6,40.922-6.743,79.285-31.738,105.149-63.611a182.993,182.993,0,0,0,30.858-56.728C533.139,458.075,536.938,434.481,534.669,412.911Z"/><path class="cls-3" d="M979.679,214.716V582.125l-76.549.008V214.716h76.549M999.994,194.4H882.816V602.451l117.178-.012V194.4Z"/><polygon class="cls-3" points="999.988 0 882.81 0.01 882.81 20.325 979.675 20.317 979.683 97.301 882.81 97.301 882.81 117.618 1000 117.615 999.988 0"/><polygon class="cls-1" points="882.81 20.325 882.81 0.01 432.52 0.01 445.826 20.325 882.81 20.325"/><polygon class="cls-1" points="747.282 97.3 747.282 582.136 670.707 582.136 670.716 97.312 496.245 97.301 509.551 117.615 650.401 117.606 650.392 602.45 767.596 602.45 767.596 117.615 882.81 117.618 882.81 97.301 747.282 97.3"/></g></g></svg>