<svg xmlns="http://www.w3.org/2000/svg" viewBox="0 0 2000 1568.404"><defs><style>.cls-1{fill-rule:evenodd;}</style></defs><title>Ativo 69</title><g id="Camada_2" data-name="Camada 2"><g id="Camada_11" data-name="Camada 11"><path class="cls-1" d="M434.2,397.865c-108.918,0-226.177,8.831-332.151,33.36,9.322,166.8.491,502.36,77.518,592.628-9.812,1.471-19.134,2.944-28.947,4.907C95.181,937.509,88.8,710.859,83.9,535.72,82.425,489.6,81.443,447.414,79.481,411.6h0C195.268,384.62,315.47,374.808,434.2,374.808c118.24,0,238.933,9.811,354.229,36.794h.491c-1.962,35.812-3.434,78-4.416,124.118C779.6,710.859,773.22,937.509,717.78,1028.759c-9.812-1.962-19.625-3.435-28.947-4.907,77.028-90.268,67.706-425.829,77.028-592.628-105.484-24.529-222.742-33.36-331.66-33.36Z"/><path class="cls-1" d="M491.113,317.41c-16.681-4.416-37.287-5.887-56.912-5.887s-40.231,1.471-56.912,5.887c-23.55-15.209-26-43.172-.491-54.456,18.644-2.942,38.759-5.4,57.4-5.4s38.269,2.453,57.4,5.4c25.022,11.285,23.059,39.247-.491,54.456Z"/><path class="cls-1" d="M189.871,524.436c-17.172-57.888,35.325-92.719,69.668-95.173,95.181-6.869,150.621,16.68,256.1,23.058,38.759,0,77.518-1.473,116.768-17.662-8.831,27.474-130.015,49.059-180.058,49.55-17.172,0-35.815-.98-52.987-3.925-10.794-1.471-170.736-26-165.83,25.511.491,4.9,6.378,4.9,8.341,3.925,29.437-11.776,50.534-21.1,80.953-22.078,61.328-2.451,103.521,16.191,170.736,2.453-46.609,30.416-166.811,20.114-190.852,26.983-24.531,7.358-44.647,21.1-66.725,26.983-35.815,10.3-44.647-15.7-46.118-19.625Z"/><path class="cls-1" d="M242.858,665.236c4.906-9.813,11.284-20.116,19.625-26.983,14.228-11.285,31.89,17.66,14.228,24.529-10.3,3.433-22.569,2.942-33.853,2.453Z"/><path class="cls-1" d="M191.833,687.312c-8.341-4.416-18.153-8.831-27.475-11.285a158.043,158.043,0,0,0,25.022-10.3c-9.322-7.358-19.134-15.7-29.928-18.643-16.191-4.9-20.116,21.587-9.322,28.454-12.266,5.4-10.3,30.907,4.416,31.4-4.906,7.36,3.434,23.549,13.737,18.151,7.85-3.925,16.191-14.227,19.134-18.643A132.539,132.539,0,0,0,167.3,703.01c8.831-4.416,17.172-10.3,24.531-15.7Z"/><path class="cls-1" d="M237.461,1012.57c43.665-7.36,62.309-14.718,89.293-26.492,28.947-10.793,52.5-24.04,81.443-41.21a121.668,121.668,0,0,1-65.253-24.529c-22.569-16.68-35.815-37.776-38.759-50.532A103.591,103.591,0,0,1,288,908.564c-9.812,13.247-26.984,41.21-44.156,23.549-8.341-5.4-31.89,6.378-45.628,3.433-26.984-6.378-26.494,22.076-11.284,29.436-12.756,8.831-7.359,31.4,9.812,33.36-5.4,8.338,7.359,23.056,21.587,18.151,6.378-2.453,11.775-2.453,19.134-3.925Z"/><path class="cls-1" d="M258.558,794.258c5.4,2.944,13.247,7.36,17.662,10.793.491.491.981.491,1.472.982,2.453-7.851,5.4-14.227,9.322-19.625a50.864,50.864,0,0,1,12.266-12.756c1.472-7.358,3.434-13.245,4.416-18.641,1.472-5.4,8.831-16.68,14.228-22.078-2.453-1.471-7.359-1.471-10.794-1.962-13.247-1.962-32.872-7.358-40.722-12.265-1.472,12.265-2.453,25.02-3.925,37.285-1.472,12.756-2.944,25.02-3.925,38.265Z"/><path class="cls-1" d="M266.9,554.363c11.284,5.887,20.115,11.283,20.115,28.945-.491,11.283-11.284,27.963-20.115,31.4H161.415c-8.831-3.433-19.625-20.114-19.625-31.4-.491-17.662,8.831-23.058,19.625-28.945Z"/><path class="cls-1" d="M652.527,1016.984a102.6,102.6,0,0,0,31.4-31.887c11.775-18.151,18.153-39.247,18.644-62.3,0-18.153-2.453-37.285-4.906-56.91-3.434-25.509-54.459-147.176-66.234-170.723-8.831-18.151-25.512-50.041-24.041-63.777.981-29.925,25.512-47.587,55.44-47.587,16.681.491,35.325,12.265,44.647,27.474,7.359,12.265,8.341,28.454,4.906,48.076l-.491.491c-30.909,28.945-24.531,49.55-13.737,85.853,6.378,22.076,14.719,49.55,17.172,87.815,3.434-31.4,6.378-62.3,8.831-93.211,2.944-32.869,6.869-49.059,9.322-82.419h0c.981-23.547-2.944-47.1-15.209-63.286-13.247-17.66-33.362-29.436-58.875-28.454-59.856,2.944-88.8,53.965-62.8,103.513,19.625,37.776,44.647,100.079,60.346,139.818s23.059,74.079,8.831,87.324c0,.491-.491.491-.981,0-14.719-20.114-35.815-27.472-57.893-34.832-26-9.32-54.459-21.094-73.1-52.492-3.925,7.849-11.284,15.209-18.644,21.1-10.794,7.849-30.909,18.151-38.269,20.114-.491,0-.981-.491-.491-.982.491-1.962,1.472-3.925,1.963-5.887.981-2.453.981-4.9.981-8.831-6.869,6.378-9.812,6.869-21.587,13.247-27.475,14.227-56.422,27.474-53.968,56.908,3.434,33.36,41.7,42.192,83.9,45.134,24.531,1.471,49.062,2.944,68.687,10.3,0-3.433,2.453-9.811,5.887-15.7,2.453-4.416,5.887-8.34,10.794-10.3,0-.491.981,0,.491.491-4.416,8.829-6.869,24.529-6.378,32.378.981,41.7,54.459,46.114,85.368,49.548Z"/><path class="cls-1" d="M301.733,842.827a1.533,1.533,0,0,1,2.944,0c8.341,26.981,24.041,51.51,46.118,69.663a118.536,118.536,0,0,0,64.762,26.981,56.756,56.756,0,0,1-14.228-12.754,42.225,42.225,0,0,1-9.812-24.529c-.491-9.322,2.453-19.625,10.3-30.418,9.812-12.754,27.475-26,55.931-37.774a96.51,96.51,0,0,0,21.1-13.736c7.85-6.869,15.209-16.68,16.191-29.927,0-1.471,2.453-1.471,2.944,0a47.484,47.484,0,0,1,1.963,18.643,67.3,67.3,0,0,1-3.434,16.68c14.719-7.849,25.512-22.076,33.362-37.285,14.228-27.963,18.153-60.341,18.153-70.152,0-.982,1.963-1.962,2.944-.982a28.394,28.394,0,0,1,5.887,6.869c0,.489.491.98.981,1.471.491-18.643-1.472-34.341-5.887-49.55-4.906-16.68-13.247-32.378-25.022-48.568a1.656,1.656,0,0,1,1.472-2.453,25.3,25.3,0,0,1,5.4.982,10.8,10.8,0,0,0,2.453,1.471c-8.831-21.1-20.116-34.341-33.853-50.041-1.472-1.471-2.944-3.433-4.416-4.414,0-.491-.491-.982,0-1.473.981-4.414,1.472-6.867,3.434-8.829.981-1.962,2.944-3.435,6.378-5.887-4.416-4.416-15.209-8.34-26.984-10.793-15.7-3.433-33.362-4.416-42.193-3.433a42.217,42.217,0,0,1,6.378,22.076,45.388,45.388,0,0,1-5.887,24.529c-.981,1.471-3.434.489-2.944-.982.491-3.925,1.962-12.265,1.472-21.094,0-8.34-2.453-17.171-8.831-24.04-26.494-2.942-64.762,11.776-88.8,20.6-1.472.982-2.453.982-2.944,1.471a57.626,57.626,0,0,1-.491,13.247c-.981,8.34-1.472,15.7,8.831,24.038,5.887-10.791,14.228-11.774,22.569-8.34,5.4,2.453,10.794,6.869,15.209,11.776,4.416,5.4,7.85,10.791,8.831,15.207.981,3.925,0,7.36-3.434,8.34a1.713,1.713,0,0,0-.981.491,42.673,42.673,0,0,1-11.284,0c-4.416-.491-9.322-1.962-11.775-4.416a10.266,10.266,0,0,1-1.962-2.944c0-.489-.491-.98-.491-1.471a6.225,6.225,0,0,0-.491,2.944c.491,4.416.981,8.829,2.944,12.754a17.432,17.432,0,0,0,5.4,7.851,4.145,4.145,0,0,1,2.944-.982,81.852,81.852,0,0,1,15.209-4.416h0a94.452,94.452,0,0,1,11.775.491c13.737.491,27.475.491,35.815-2.944,7.85-3.925,10.3-11.283,2.453-27.472-.491-1.471,1.963-2.453,2.944-1.471,14.719,18.641,8.341,29.925,0,36.3a52.136,52.136,0,0,1-11.775,5.887,14.629,14.629,0,0,1,5.887,8.34,21.358,21.358,0,0,1-1.472,10.793,26.284,26.284,0,0,1-2.453,5.4,1.712,1.712,0,0,1-.981.491c-19.134,6.867-55.44,22.567-82.424,42.19-16.191,12.265-29.437,25.511-33.362,39.247,3.925-1.962,7.85-3.925,12.266-4.907a55.349,55.349,0,0,1,18.644-1.471c1.472,0,1.472,2.453.491,2.944a52.154,52.154,0,0,0-12.266,4.414c-16.191,7.851-31.89,20.6-41.212,37.776C282.6,812.411,279.164,834,287.5,859.017a127.763,127.763,0,0,0,4.906,12.265,129.334,129.334,0,0,0,4.906-14.718c1.472-4.907,2.944-9.322,4.416-13.736Zm89.293-278.654.491-.491h.491v-.491h.491V562.7h.491v-.491h.491v-.491h.491l.491-.491h.491v-.489h.491l.491-.491h.491v-.491h.981v-.491h.981v-.489h.981c0-.491,0-.491.491-.491h.491l.491-.491h.981a.481.481,0,0,0,.491-.491h1.472v-.489h2.944v-.491h4.906v.491h2.453l.491.489h.491v.491h-.491v.491h0v.491h0v.489h-.491v.491h0v.491h-.491v.491h0v.489H413.1v.491h0v.491h-.491v.491h-.491v.489h-.491v.491h-.491v.491h-1.963l-.491.491h-4.416v.489h-5.887v-.489h-6.378v-.491h-.981Z"/><path class="cls-1" d="M361.588,616.666c-5.887.491-11.284,2.453-16.191,3.925-13.737,4.416-25.022,7.851-33.853-8.34,0-.489,0-.489.491-.489,12.756,8.829,26.984,4.416,39.74.489,10.794-3.433,20.606-6.376,27.475-.98.491.491.491.491,0,.491,0,.489-2.453.98-5.4,1.471-4.416.98-9.812,1.962-12.266,3.433Z"/><path class="cls-1" d="M239.914,922.793l20.115-249.22c-5.4.491-10.794,0-16.191,0h-.491c-5.887-.489-9.812-7.358-7.359-12.754a121.608,121.608,0,0,1,8.831-15.209,54.793,54.793,0,0,1,12.266-13.736,15.1,15.1,0,0,1,6.869-3.433v-4.416l-97.634-.491,1.472,18.151c9.322,4.416,17.662,11.285,25.512,17.66h0c.491,0,.491,0,.981.491v.491c4.416,3.433,3.925,10.793-.981,12.756a1.806,1.806,0,0,1-1.472.489l-2.944,1.473c-.981-.982-2.453-1.962-3.925-3.435h0c0,.491,1.962,1.962,3.925,3.435a3.729,3.729,0,0,1-1.963.98v.491a12.148,12.148,0,0,1,4.416,1.962,24.153,24.153,0,0,1,3.434,1.471h0c5.887,2.944,6.869,10.793,2.453,14.227-2.453,1.473-4.906,3.435-7.359,4.907,4.906,1.962,7.359,8.831,4.416,12.756a88.527,88.527,0,0,1-13.737,15.207c-1.472.982-2.453,1.962-3.925,2.944a10.726,10.726,0,0,1-2.453,1.471l.491.982h0v3.925c3.434,55.436,9.812,130,14.228,190.348a31.816,31.816,0,0,1,9.322.98c11.775,2.944,31.89-6.378,41.7-4.9ZM194.286,659.838v.491c18.644,14.718-1.472-1.471,0-.491Zm-25.022,0,.491,5.4a17.42,17.42,0,0,0,4.416-1.964,29.749,29.749,0,0,1-4.906-3.433Zm1.962,26.492v4.416c1.472-.491,2.453-1.471,3.925-1.962a.481.481,0,0,1,.491-.491c-1.472-.491-2.944-1.471-4.416-1.962m17.662-11.283h0c3.925,2.942,7.359,5.887,0,0ZM261.5,657.384l.491-6.867c-1.472,1.962-2.944,3.433-3.925,5.4-.491.491-.981.982-.981,1.471H261.5"/><path class="cls-1" d="M269.351,325.75c-16.681-3.925-37.287-4.907-56.912-4.416-19.625.98-40.231,3.433-56.422,8.34-24.531-14.718-27.475-42.192-2.453-54.456,18.644-3.433,38.269-6.378,56.912-7.358a375.587,375.587,0,0,1,57.4,3.433c26,10.3,25.022,38.267,1.472,54.456Z"/><path class="cls-1" d="M434.2,322.805c-19.625,0-40.231,2.453-55.931,7.358v26.494c18.644-.491,37.287-.982,55.931-.982s37.287.491,55.931.982V330.163c-16.191-4.9-36.8-7.358-55.931-7.358Z"/><path class="cls-1" d="M212.93,333.108c-19.625.491-39.74,3.433-55.931,8.831,0,1.471.981,18.151,1.472,33.85,36.8-5.887,74.084-10.3,111.371-13.245-.491-11.776-.491-23.549-.491-24.529a210.5,210.5,0,0,0-56.422-4.907Z"/><path class="cls-1" d="M38.269,1063.591c276.22-61.814,574.028-47.1,792.355,0l-13.247,77.021c15.209,2.944,31.89,6.378,48.081,9.811l-22.078,106.948c-28.947-7.849-117.749-23.549-150.621-25.02l108.918-29.436v-1.962c-213.911-44.643-483.263-55.926-737.9.982v.98l109.409,29.436c-31.89,1.471-121.674,17.171-151.112,25.02L0,1150.424q26.494-5.887,51.515-10.3Zm66.234,91.248-29.928-52.492,12.266-2.453,23.55,40.718,7.85-46.114,7.85-1.473-9.812,59.852Zm39.25-7.358-7.85-56.91,11.775-1.471,7.85,56.908Zm26-4.907-6.869-56.417,20.606-2.944c4.416-.491,7.85-.491,10.3.491a13.388,13.388,0,0,1,5.887,4.416,16.605,16.605,0,0,1,2.944,7.358,24.94,24.94,0,0,1-1.962,9.811,19.666,19.666,0,0,1-6.869,7.36l21.1,24.529-14.228,1.962-16.681-21.587-6.378.491,2.944,23.547Zm6.869-32.378h2.944c4.906-.491,7.85-2.453,9.322-4.416a9.2,9.2,0,0,0,1.962-7.849,4.927,4.927,0,0,0-2.944-4.907c-1.472-1.471-4.416-1.962-9.322-.98l-3.925.489Zm59.856,24.529-4.416-49.55-19.625,1.962-.981-7.849,52.006-4.416.491,7.849-20.115,1.473,4.416,49.548Zm35.325-60.343,11.775-.98,2.453,34.832c.491,6.378,1.962,10.793,3.925,12.265a10.074,10.074,0,0,0,8.341,2.453c3.434,0,5.887-.982,7.85-3.435,1.963-1.962,2.453-5.887,1.963-11.774l-2.453-35.812,10.3-.982,2.453,35.323c.491,6.378,0,11.283-1.472,14.227a16.418,16.418,0,0,1-6.869,7.358c-2.944,1.962-6.378,2.944-11.284,3.435a44.135,44.135,0,0,1-12.266-1.473,21.134,21.134,0,0,1-8.341-6.378c-1.963-2.942-3.434-7.849-3.925-14.227Zm58.875,52-.491-9.811c4.416,1.471,7.85,2.453,9.812,2.942a25.9,25.9,0,0,0,5.887.491c3.434-.491,5.887-.98,7.359-2.453,1.472-1.962,2.453-3.433,2.453-5.887a5.573,5.573,0,0,0-1.472-3.925c-.981-1.471-3.434-2.944-6.869-4.907l-3.925-1.962c-5.4-2.942-9.322-5.4-11.284-7.849a21.5,21.5,0,0,1-3.434-9.32,16.376,16.376,0,0,1,4.416-11.285c3.434-2.942,7.85-4.9,14.228-4.9a92.726,92.726,0,0,1,15.209,1.471v9.32c-5.887-1.962-10.3-2.942-13.737-2.942a10.917,10.917,0,0,0-6.378,1.962,6.3,6.3,0,0,0-1.962,4.907,5.3,5.3,0,0,0,1.472,3.433,26.979,26.979,0,0,0,6.869,4.416l3.925,2.451c6.378,2.944,10.3,5.889,12.266,8.831a24.165,24.165,0,0,1,2.944,8.34,16.269,16.269,0,0,1-4.906,12.265c-3.434,3.433-8.831,5.4-16.681,5.887a98.461,98.461,0,0,1-15.7-1.471m72.121-1.962-.981-57.4h11.775l.981,57.4Zm26,0v-56.908h15.209l13.737,40.227,13.737-40.227h13.737v56.908H474.432v-43.172l-13.737,39.738h-9.322l-13.247-40.229v43.663Zm70.65,1.471,1.963-57.4,19.134.491c5.887.491,9.812.982,11.775,2.453a8.912,8.912,0,0,1,4.906,5.4,10.443,10.443,0,0,1,1.472,7.849c0,6.869-2.453,11.285-6.378,14.718q-5.888,4.417-16.191,4.416h-4.416l-.981,22.076Zm12.266-29.925h2.453c3.925,0,7.359-.982,9.322-2.944a10.433,10.433,0,0,0,3.434-7.358,14.326,14.326,0,0,0-.981-4.416,4.426,4.426,0,0,0-2.944-2.944q-1.472-1.47-5.887-1.471h-4.906Zm28.947,31.887,25.022-55.926,11.775.489,18.644,58.381-11.775-.491-4.906-15.7-23.55-1.473-6.378,15.209Zm18.644-22.076,17.172.982-7.359-23.058Zm58.875,26.983-15.7-58.87,12.266.98,12.266,45.625,19.625-42.681,8.341.98-25.022,54.945Zm39.74,5.4,5.887-56.908,11.775.982-5.887,56.908Zm25.512,2.453,7.85-56.417,24.04,3.433a28.971,28.971,0,0,1,14.719,4.9c3.434,2.944,5.4,6.378,7.359,10.793a30.8,30.8,0,0,1,.981,15.209,47.315,47.315,0,0,1-4.906,14.718,37.1,37.1,0,0,1-10.3,9.32c-4.416,1.962-9.812,2.453-16.681,1.471Zm12.756-6.378,8.831,1.471c4.416.491,7.85.491,10.794-.98,2.453-.982,4.416-2.944,6.378-6.378a25.893,25.893,0,0,0,3.925-10.793c.491-4.416.491-7.849-.491-11.283a14.437,14.437,0,0,0-4.906-7.849c-1.962-1.962-5.887-3.435-11.775-3.925l-6.869-.982Zm42.193,15.209,30.419-52.983,11.775,1.471,12.756,60.341-11.775-1.962-3.434-16.189-23.059-3.433-8.341,14.227Zm20.606-20.116,17.172,2.944-4.906-24.038Z"/><path class="cls-1" d="M368.457,228.613c-9.812-7.849-16.681-18.151-17.172-31.4,0-15.7,13.247-30.418,21.1-43.663C420.463,89.286,447.938,59.852,413.594,0c10.794,1.962,26.984,16.68,35.325,27.474,15.209,25.018,16.191,51.51,6.869,80.946-10.3,24.038-42.684,54.454-32.381,82.419,9.322,26,43.175,27.963,32.381.98-5.887-14.227-12.756-15.7-8.341-31.887,6.869-26.492,41.212-59.852,26-91.25,34.834,19.134,13.737,72.117,16.681,81.439,1.963,7.849,28.456,31.4,26.494,47.1-4.906,39.245-50.534,53.963-82.915,52-12.756,0-45.137-4.907-65.253-20.6Z"/><path class="cls-1" d="M213.911,259.52c-19.625,0-81.934-11.283-82.425-52.492,0-15.209,12.756-29.927,20.606-43.172,48.572-64.268,76.046-93.7,41.7-153.554,10.794,1.471,26.984,16.68,35.325,27.474,14.719,25.018,16.191,51.51,6.378,80.455-9.812,24.529-42.684,54.945-32.381,82.91,9.812,26,43.175,27.963,32.381.489-5.4-14.227-12.756-15.207-8.341-31.887,7.359-26,41.7-59.361,26.494-91.248C288,98.117,266.9,151.1,270.333,160.423c1.472,7.849,28.456,31.4,26.494,47.094-4.906,38.758-50.534,53.965-82.915,52Z"/><path class="cls-1" d="M654,259.52c-19.625,0-82.424-11.283-82.424-52.492-.491-15.209,12.756-29.927,20.606-43.172,48.572-64.268,76.046-93.7,41.7-153.554,10.3,1.471,26.984,16.68,35.325,27.474,14.719,25.018,16.191,51.51,6.378,80.455-9.812,24.529-42.684,54.945-32.381,82.91,9.812,26,43.175,27.963,32.381.489-5.887-14.227-12.756-15.207-8.341-31.887,7.359-26,41.212-59.361,26.494-91.248,34.344,19.623,13.247,72.606,16.681,81.928,1.472,7.849,28.456,31.4,26.494,47.094-4.906,38.758-50.534,53.965-82.915,52Z"/><path class="cls-1" d="M599.05,325.75c16.681-3.925,36.8-4.907,56.912-4.416,19.625.98,39.74,3.433,56.421,8.34,24.041-14.718,27.475-42.192,2.453-54.456-18.644-3.433-38.269-6.378-57.4-7.358-18.644-.491-38.269.98-57.4,3.433-25.512,10.3-24.531,38.267-.981,54.456Z"/><path class="cls-1" d="M655.471,333.108c19.134.491,39.74,3.433,55.931,8.831-.491,1.471-.981,17.169-1.472,32.378-36.8-5.887-74.084-9.811-111.371-13.247,0-10.791.491-22.076.491-23.056,16.19-3.925,36.8-5.887,56.421-4.907Z"/><path class="cls-1" d="M434.2,1275.033h0l-.491-.98c-18.153-27.965-20.115-54.456-22.078-79.475v-11.285h45.137v11.285c-1.963,25.018-3.925,51.51-22.078,79.475Z"/><path class="cls-1" d="M244.33,1285.826h0l-.981-.982c-18.644-27.472-21.587-53.472-24.531-78.493,0-.491,0-4.907-.491-10.793,15.209-1.962,29.928-3.433,45.137-4.907.491,7.36.491,13.247.491,14.229-.981,25.018-2.453,51.51-19.134,79.964Z"/><path class="cls-1" d="M624.071,1285.826h0l-.491-.982c-17.172-28.454-18.153-54.945-19.134-79.964,0-.982,0-6.378.491-13.247,14.719.982,29.928,2.944,44.647,4.416,0,5.4,0,9.811-.491,10.3-2.453,25.02-5.4,51.021-24.531,78.493Z"/><path class="cls-1" d="M121.674,1372.17h34.344v130.5c0,10.793,2.944,19.132,9.322,25.509s15.209,9.813,26.494,9.813c12.266,0,22.078-3.435,28.456-9.813,7.359-6.378,10.794-14.716,10.794-26v-130h33.853v132.949c0,19.623-6.378,35.321-19.625,46.605-13.247,10.793-31.4,16.68-53.478,16.68s-39.74-5.4-52.006-16.68c-11.775-10.793-18.153-26.492-18.153-47.1Zm217.346,30.416v45.134h67.706v28.945H339.02v88.3H304.676v-192.8H431.747v30.416Zm157.49,91.739v70.644H462.166v-192.8c22.569-.982,36.306-1.473,40.231-1.473,30.419,0,52.5,4.907,66.725,14.227s21.1,23.549,21.1,43.663c0,44.152-26,66.23-78.5,66.23-3.434,0-8.831,0-15.209-.491Zm0-92.721v61.814a77.253,77.253,0,0,0,13.737.982c15.7,0,26.984-2.453,34.344-7.851,6.869-4.9,10.794-13.736,10.794-25.509,0-19.625-16.191-29.925-48.572-29.925-3.434,0-6.869.489-10.3.489Zm158.471.982v45.134h63.781v28.945H654.98v57.888h87.331v30.416H620.637v-192.8H743.783v30.416Z"/><path d="M1982.013,707.628v325.215l-67.758.007V707.628h67.758m17.982-17.982H1896.273v361.188l103.721-.011V689.646Z"/><path d="M1999.989,517.57l-706.976.009c-17.957,0-35.624.063-53.283,4.225a164.319,164.319,0,0,0-68.273,33.657,155.111,155.111,0,0,0-44.631,60.83c-19.431,47.946-14.745,103.239,13.245,146.892,28.643,44.67,75.67,67.689,115.649,71.864,3.341.349,7.5.554,15.81.787,3.362.038,147.175,0,158.784,0a55.617,55.617,0,0,1,50.806,35.153c7.891,19.839,3.126,43.074-11.315,58.532a55.9,55.9,0,0,1-37.959,17.541c-3.48.018-249.016-.033-249.016-.033l-67.988,103.806h287.973c19.418,0,38.18-.014,57.424-3.185,36.223-5.968,70.18-28.093,93.074-56.306a161.979,161.979,0,0,0,27.314-50.213c6.128-18.091,9.491-38.975,7.483-58.069a163.268,163.268,0,0,0-6.981-39.568c-16.233-51.527-59.389-92.641-111.837-105.91-18.206-4.606-36.34-5.008-54.765-5.008-3.9,0-135.367.052-137.391.052a67.232,67.232,0,0,1-9.93-.579c-22.621-3.384-41.943-19.35-47.232-42.122a56.3,56.3,0,0,1,31.7-63.908c8.848-3.879,20.5-4.42,31.767-4.419l407.114.072-.008,429.164h103.744V621.678H2000ZM1776.3,603.7v429.156h-67.781l.008-429.145-425.1-.091c-13.221,0-27.094.719-39.155,6.008a74.335,74.335,0,0,0-41.823,84.369c6.8,29.3,31.175,51.214,62.087,55.838a84.462,84.462,0,0,0,12.59.777l137.391-.052c17.248,0,34.077.341,50.354,4.46,45.89,11.61,84.788,48.46,99.1,93.88a144.638,144.638,0,0,1,6.182,35.236l.025.406.042.4c1.6,15.175-.758,33.081-6.631,50.419a143.525,143.525,0,0,1-24.245,44.651c-21.337,26.294-52,44.945-82.034,49.894-17.877,2.946-35.666,2.946-54.5,2.946h-254.7l44.431-67.838s235.905.046,239.392.028l.408,0,.407-.021a73.817,73.817,0,0,0,65.075-100.679,73.352,73.352,0,0,0-67.454-46.488c-15.433-.053-156.216-.073-158.52-.087-7.486-.211-11.627-.328-14.269-.6-31.887-3.33-75.527-21.808-102.379-63.685a142.653,142.653,0,0,1-11.717-130.431,136.8,136.8,0,0,1,39.438-53.738,145.572,145.572,0,0,1,60.925-30c15.895-3.746,32.805-3.746,49.159-3.746l689-.007.007,68.143Z"/></g></g></svg>