<svg xmlns="http://www.w3.org/2000/svg" viewBox="0 0 1999.514 1008.563"><defs><style>.cls-1,.cls-2{fill-rule:evenodd;}.cls-2{fill:#900;}.cls-3{fill:#595959;}.cls-4{fill:#872367;}.cls-5{fill:#f7941d;}.cls-6{fill:#b30638;}</style></defs><title>Ativo 21</title><g id="Camada_2" data-name="Camada 2"><g id="Camada_11" data-name="Camada 11"><path class="cls-1" d="M279.213,255.847c-70.04,0-145.443,5.679-213.59,21.452,5.994,107.26.315,323.043,49.848,381.09-6.31.946-12.3,1.893-18.614,3.155C61.206,602.866,57.1,457.118,53.95,344.5,53,314.84,52.372,287.71,51.11,264.681h0c74.457-17.351,151.753-23.66,228.1-23.66,76.034,0,153.646,6.309,227.787,23.66h.315c-1.262,23.029-2.208,50.159-2.839,79.814-3.155,112.623-7.256,258.371-42.907,317.049-6.31-1.262-12.62-2.209-18.614-3.155,49.533-58.047,43.538-273.83,49.533-381.09-67.831-15.774-143.235-21.452-213.275-21.452Z"/><path class="cls-1" d="M315.81,204.111c-10.727-2.839-23.978-3.786-36.6-3.786s-25.871.946-36.6,3.786c-15.144-9.78-16.721-27.762-.316-35.018,11.989-1.892,24.924-3.47,36.913-3.47s24.609,1.578,36.913,3.47c16.09,7.257,14.828,25.238-.316,35.018Z"/><path class="cls-1" d="M122.1,337.239c-11.042-37.225,22.716-59.623,44.8-61.2,61.206-4.417,96.857,10.726,164.688,14.828,24.924,0,49.848-.947,75.088-11.358-5.679,17.667-83.606,31.547-115.787,31.863a206.431,206.431,0,0,1-34.073-2.524c-6.941-.946-109.792-16.72-106.637,16.405.315,3.154,4.1,3.154,5.363,2.524,18.93-7.572,32.5-13.566,52.057-14.2,39.437-1.576,66.569,10.412,109.792,1.578C287.416,334.715,210.12,328.09,194.66,332.507c-15.775,4.732-28.71,13.566-42.907,17.351-23.031,6.625-28.71-10.1-29.657-12.62Z"/><path class="cls-1" d="M156.17,427.78c3.155-6.31,7.256-12.935,12.62-17.351,9.149-7.257,20.507,11.357,9.149,15.774-6.625,2.208-14.513,1.892-21.769,1.578Z"/><path class="cls-1" d="M123.358,441.976a86.692,86.692,0,0,0-17.668-7.257,101.63,101.63,0,0,0,16.09-6.625c-5.994-4.732-12.3-10.095-19.245-11.988-10.411-3.154-12.935,13.881-5.994,18.3-7.887,3.471-6.625,19.875,2.839,20.191-3.155,4.733,2.208,15.143,8.834,11.672,5.048-2.524,10.411-9.149,12.3-11.988a85.229,85.229,0,0,0-12.935-2.208,112.463,112.463,0,0,0,15.775-10.095Z"/><path class="cls-1" d="M152.7,651.134c28.079-4.733,40.068-9.464,57.42-17.035,18.614-6.941,33.758-15.459,52.372-26.5a78.239,78.239,0,0,1-41.961-15.774c-14.513-10.726-23.031-24.292-24.924-32.495A66.614,66.614,0,0,1,185.2,584.253c-6.31,8.518-17.352,26.5-28.395,15.143-5.363-3.47-20.507,4.1-29.341,2.208-17.352-4.1-17.037,14.2-7.256,18.929-8.2,5.679-4.732,20.191,6.31,21.452-3.47,5.362,4.732,14.826,13.882,11.672,4.1-1.578,7.572-1.578,12.3-2.524Z"/><path class="cls-1" d="M166.266,510.748a98.93,98.93,0,0,1,11.358,6.941c.316.316.631.316.946.632a42.636,42.636,0,0,1,5.994-12.62,32.708,32.708,0,0,1,7.887-8.2c.946-4.732,2.208-8.517,2.839-11.987.946-3.471,5.679-10.726,9.149-14.2-1.577-.946-4.732-.946-6.941-1.262-8.518-1.262-21.138-4.732-26.186-7.887-.946,7.887-1.577,16.089-2.524,23.976-.946,8.2-1.893,16.089-2.524,24.606Z"/><path class="cls-1" d="M171.629,356.483c7.256,3.786,12.935,7.255,12.935,18.613-.315,7.255-7.256,17.981-12.935,20.189H103.8c-5.679-2.208-12.62-12.934-12.62-20.189-.316-11.358,5.679-14.828,12.62-18.613Z"/><path class="cls-1" d="M419.608,653.972A65.975,65.975,0,0,0,439.8,633.467,75.658,75.658,0,0,0,451.789,593.4c0-11.674-1.577-23.976-3.155-36.6-2.208-16.4-35.02-94.642-42.592-109.784-5.679-11.672-16.406-32.179-15.459-41.012.631-19.243,16.406-30.6,35.651-30.6,10.727.316,22.716,7.887,28.71,17.667,4.732,7.887,5.363,18.3,3.155,30.916l-.315.316c-19.876,18.613-15.775,31.863-8.834,55.208,4.1,14.2,9.465,31.863,11.042,56.469,2.208-20.189,4.1-40.064,5.679-59.939,1.893-21.137,4.417-31.547,5.994-53h0c.631-15.142-1.893-30.285-9.78-40.7-8.518-11.357-21.454-18.929-37.859-18.3-38.49,1.893-57.1,34.7-40.383,66.564,12.62,24.292,28.71,64.356,38.806,89.91s14.828,47.637,5.679,56.154c0,.316-.315.316-.631,0-9.465-12.934-23.031-17.666-37.228-22.4-16.721-5.993-35.02-13.564-47.009-33.755-2.524,5.047-7.256,9.78-11.989,13.566-6.941,5.047-19.876,11.672-24.609,12.934-.316,0-.631-.316-.316-.632.316-1.262.946-2.524,1.262-3.786.631-1.578.631-3.154.631-5.679-4.417,4.1-6.31,4.417-13.882,8.518-17.668,9.149-36.282,17.667-34.7,36.595,2.208,21.452,26.817,27.131,53.95,29.023,15.775.946,31.549,1.893,44.169,6.625,0-2.208,1.577-6.309,3.786-10.095a14.177,14.177,0,0,1,6.941-6.625c0-.316.631,0,.315.316-2.839,5.678-4.417,15.774-4.1,20.821.631,26.814,35.02,29.654,54.9,31.862Z"/><path class="cls-1" d="M194.029,541.981a.986.986,0,0,1,1.893,0,93.6,93.6,0,0,0,29.657,44.8,76.224,76.224,0,0,0,41.645,17.35,36.5,36.5,0,0,1-9.149-8.2,27.153,27.153,0,0,1-6.31-15.774c-.315-5.995,1.577-12.62,6.625-19.56,6.31-8.2,17.668-16.72,35.966-24.291a62.061,62.061,0,0,0,13.566-8.833c5.048-4.417,9.78-10.726,10.411-19.245,0-.946,1.577-.946,1.893,0a30.535,30.535,0,0,1,1.262,11.988,43.277,43.277,0,0,1-2.208,10.726c9.465-5.047,16.406-14.2,21.454-23.976,9.149-17.981,11.673-38.8,11.673-45.112a1.209,1.209,0,0,1,1.893-.632,18.259,18.259,0,0,1,3.786,4.417c0,.314.315.63.631.946a101.591,101.591,0,0,0-3.786-31.863c-3.155-10.726-8.518-20.821-16.09-31.231a1.065,1.065,0,0,1,.946-1.578,16.266,16.266,0,0,1,3.47.632,6.943,6.943,0,0,0,1.577.946c-5.679-13.566-12.935-22.083-21.769-32.179a24.056,24.056,0,0,0-2.839-2.838c0-.316-.315-.632,0-.947.631-2.838.946-4.416,2.208-5.678.631-1.262,1.893-2.209,4.1-3.786-2.839-2.839-9.78-5.363-17.352-6.941-10.1-2.208-21.454-2.839-27.133-2.208a27.148,27.148,0,0,1,4.1,14.2,29.187,29.187,0,0,1-3.786,15.774c-.631.946-2.208.314-1.893-.632a70.636,70.636,0,0,0,.946-13.564,22.421,22.421,0,0,0-5.679-15.459c-17.037-1.892-41.645,7.572-57.1,13.25-.946.632-1.577.632-1.893.946a37.056,37.056,0,0,1-.315,8.518c-.631,5.363-.946,10.095,5.679,15.458,3.786-6.939,9.149-7.571,14.513-5.363a31.5,31.5,0,0,1,9.78,7.572c2.839,3.47,5.048,6.939,5.679,9.779.631,2.524,0,4.733-2.208,5.363a1.1,1.1,0,0,0-.631.316,27.441,27.441,0,0,1-7.256,0c-2.839-.316-5.994-1.262-7.572-2.839a6.6,6.6,0,0,1-1.262-1.893c0-.314-.316-.63-.316-.946a4,4,0,0,0-.316,1.893,23.96,23.96,0,0,0,1.893,8.2,11.21,11.21,0,0,0,3.47,5.049,2.666,2.666,0,0,1,1.893-.632,52.635,52.635,0,0,1,9.78-2.839h0a60.737,60.737,0,0,1,7.572.316c8.834.316,17.668.316,23.031-1.893,5.048-2.524,6.625-7.255,1.577-17.666-.315-.946,1.262-1.578,1.893-.946,9.465,11.987,5.363,19.243,0,23.345A33.526,33.526,0,0,1,276.058,418a9.407,9.407,0,0,1,3.786,5.363,13.734,13.734,0,0,1-.946,6.941,16.9,16.9,0,0,1-1.577,3.47,1.1,1.1,0,0,1-.631.316c-12.3,4.416-35.651,14.512-53,27.13-10.411,7.887-18.93,16.405-21.454,25.238a34.379,34.379,0,0,1,7.887-3.155,35.592,35.592,0,0,1,11.989-.946c.946,0,.946,1.578.316,1.893a33.538,33.538,0,0,0-7.887,2.838c-10.411,5.049-20.507,13.25-26.5,24.292-6.31,11.042-8.518,24.922-3.155,41.012a82.158,82.158,0,0,0,3.155,7.887,83.169,83.169,0,0,0,3.155-9.464c.946-3.155,1.893-5.995,2.839-8.833Zm57.42-179.188.315-.316h.316v-.316h.316v-.314h.315v-.316h.316v-.316h.316l.315-.316h.316v-.314h.316l.315-.316h.316v-.316h.631v-.316h.631v-.314h.631c0-.316,0-.316.315-.316h.316l.316-.316h.631a.309.309,0,0,0,.316-.316h.946v-.314h1.893v-.316H264.7v.316h1.577l.316.314h.315v.316h-.315v.316h0v.316h0v.314h-.316v.316h0v.316h-.316v.316h0v.314h-.315v.316h0v.316h-.316v.316h-.316v.314H264.7v.316h-.316v.316h-1.262l-.315.316h-2.839v.314h-3.786v-.314h-4.1v-.316h-.631Z"/><path class="cls-1" d="M232.52,396.548c-3.786.316-7.256,1.578-10.411,2.524-8.834,2.839-16.09,5.049-21.769-5.363,0-.314,0-.314.316-.314,8.2,5.678,17.352,2.839,25.555.314,6.941-2.208,13.251-4.1,17.668-.63.316.316.316.316,0,.316,0,.314-1.577.63-3.47.946-2.839.63-6.31,1.262-7.887,2.208Z"/><path class="cls-1" d="M154.277,593.4l12.935-160.261c-3.47.316-6.941,0-10.411,0h-.315a5.97,5.97,0,0,1-4.732-8.2,78.2,78.2,0,0,1,5.679-9.78,35.234,35.234,0,0,1,7.887-8.833,9.713,9.713,0,0,1,4.417-2.208V401.28l-62.783-.316.946,11.672c5.994,2.839,11.358,7.257,16.406,11.357h0c.315,0,.315,0,.631.316v.316c2.839,2.208,2.524,6.941-.631,8.2a1.161,1.161,0,0,1-.946.314l-1.893.947c-.631-.632-1.577-1.262-2.524-2.209h0c0,.316,1.262,1.262,2.524,2.209a2.4,2.4,0,0,1-1.262.63v.316a7.812,7.812,0,0,1,2.839,1.262,15.532,15.532,0,0,1,2.208.946h0c3.786,1.893,4.417,6.941,1.577,9.149-1.577.947-3.155,2.209-4.732,3.155,3.155,1.262,4.732,5.679,2.839,8.2a56.928,56.928,0,0,1-8.834,9.779c-.946.632-1.577,1.262-2.524,1.893a6.9,6.9,0,0,1-1.577.946l.315.632h0v2.524c2.208,35.648,6.31,83.6,9.149,122.4a20.459,20.459,0,0,1,5.994.63c7.572,1.893,20.507-4.1,26.817-3.154ZM124.936,424.309v.316c11.989,9.464-.946-.946,0-.316Zm-16.09,0,.316,3.471A11.2,11.2,0,0,0,112,426.517a19.13,19.13,0,0,1-3.155-2.208Zm1.262,17.035v2.839c.946-.316,1.577-.946,2.524-1.262a.309.309,0,0,1,.315-.316c-.946-.316-1.893-.946-2.839-1.262m11.358-7.255h0c2.524,1.892,4.732,3.786,0,0Zm46.693-11.358.316-4.416a24.073,24.073,0,0,0-2.524,3.47c-.315.316-.631.632-.631.946h2.839"/><path class="cls-1" d="M173.207,209.474c-10.727-2.524-23.978-3.155-36.6-2.839-12.62.63-25.871,2.208-36.282,5.363-15.775-9.464-17.668-27.131-1.577-35.018a290.408,290.408,0,0,1,36.6-4.732,241.521,241.521,0,0,1,36.913,2.208c16.721,6.625,16.09,24.608.946,35.018Z"/><path class="cls-1" d="M279.213,207.58c-12.62,0-25.871,1.578-35.966,4.732v17.037c11.989-.316,23.978-.632,35.966-.632s23.978.316,35.966.632V212.312c-10.411-3.154-23.662-4.732-35.966-4.732Z"/><path class="cls-1" d="M136.925,214.205c-12.62.316-25.555,2.208-35.966,5.679,0,.946.631,11.672.946,21.767,23.662-3.786,47.64-6.625,71.617-8.517-.316-7.572-.316-15.143-.316-15.774a135.36,135.36,0,0,0-36.282-3.155Z"/><path class="cls-2" d="M24.609,683.943c177.624-39.75,369.129-30.285,509.524,0l-8.518,49.529c9.78,1.893,20.507,4.1,30.918,6.309l-14.2,68.773c-18.614-5.047-75.719-15.143-96.857-16.089l70.04-18.929v-1.262c-137.556-28.708-310.762-35.963-474.5.632v.63l70.355,18.929c-20.507.946-78.243,11.042-97.172,16.089L0,739.781Q17.037,736,33.127,733.156ZM67.2,742.62,47.955,708.865l7.887-1.578,15.144,26.184,5.048-29.654,5.048-.947-6.31,38.488Zm25.24-4.732-5.048-36.6,7.572-.946,5.048,36.595Zm16.721-3.155-4.417-36.279L118,696.561c2.839-.316,5.048-.316,6.625.316a8.609,8.609,0,0,1,3.786,2.839,10.678,10.678,0,0,1,1.893,4.732,16.038,16.038,0,0,1-1.262,6.309,12.646,12.646,0,0,1-4.417,4.733l13.566,15.774-9.149,1.262-10.727-13.881-4.1.316L116.1,734.1Zm4.417-20.821h1.893c3.155-.316,5.048-1.578,5.994-2.839a5.917,5.917,0,0,0,1.262-5.047,3.168,3.168,0,0,0-1.893-3.155c-.946-.946-2.839-1.262-5.994-.63l-2.524.314Zm38.49,15.774-2.839-31.863-12.62,1.262-.631-5.047,33.442-2.839.316,5.047-12.935.947,2.839,31.862Zm22.716-38.8,7.572-.63,1.577,22.4c.316,4.1,1.262,6.941,2.524,7.887a6.478,6.478,0,0,0,5.363,1.578,5.883,5.883,0,0,0,5.048-2.209c1.262-1.262,1.577-3.786,1.262-7.571l-1.577-23.029,6.625-.632,1.577,22.714c.316,4.1,0,7.255-.946,9.149a10.558,10.558,0,0,1-4.417,4.732,15.185,15.185,0,0,1-7.256,2.209,28.381,28.381,0,0,1-7.887-.947,13.59,13.59,0,0,1-5.363-4.1c-1.262-1.892-2.208-5.047-2.524-9.149Zm37.859,33.441-.316-6.309c2.839.946,5.048,1.578,6.31,1.892a16.657,16.657,0,0,0,3.786.316c2.208-.316,3.786-.63,4.732-1.578a5.819,5.819,0,0,0,1.577-3.786,3.583,3.583,0,0,0-.946-2.524c-.631-.946-2.208-1.893-4.417-3.155l-2.524-1.262c-3.47-1.892-5.994-3.47-7.256-5.047a13.823,13.823,0,0,1-2.208-5.993,10.531,10.531,0,0,1,2.839-7.257,13.328,13.328,0,0,1,9.149-3.154,59.628,59.628,0,0,1,9.78.946v5.993a29.612,29.612,0,0,0-8.834-1.892,7.02,7.02,0,0,0-4.1,1.262,4.049,4.049,0,0,0-1.262,3.155,3.409,3.409,0,0,0,.946,2.208,17.349,17.349,0,0,0,4.417,2.839l2.524,1.576c4.1,1.893,6.625,3.787,7.887,5.679a15.539,15.539,0,0,1,1.893,5.363,10.462,10.462,0,0,1-3.155,7.887c-2.208,2.208-5.679,3.47-10.727,3.786a63.315,63.315,0,0,1-10.1-.946m46.378-1.262-.631-36.91h7.572l.631,36.91Zm16.721,0V686.467h9.78l8.834,25.868,8.834-25.868h8.834v36.595h-6.941V695.3l-8.834,25.554h-5.994l-8.518-25.87v28.077Zm45.431.946,1.262-36.91,12.3.316c3.786.316,6.31.632,7.572,1.578a5.731,5.731,0,0,1,3.155,3.47,6.715,6.715,0,0,1,.946,5.047,11.647,11.647,0,0,1-4.1,9.464q-3.786,2.84-10.411,2.839h-2.839l-.631,14.2Zm7.887-19.243h1.577c2.524,0,4.732-.632,5.994-1.893a6.709,6.709,0,0,0,2.208-4.732,9.212,9.212,0,0,0-.631-2.839,2.846,2.846,0,0,0-1.893-1.893q-.946-.945-3.786-.946h-3.155Zm18.614,20.505,16.09-35.963,7.572.314,11.989,37.542-7.572-.316L372.6,716.752l-15.144-.947-4.1,9.78Zm11.989-14.2,11.042.632-4.732-14.828Zm37.859,17.351-10.1-37.856,7.887.63,7.887,29.339,12.62-27.446,5.363.63L405.1,729.055Zm25.555,3.47,3.786-36.595,7.572.632-3.786,36.595Zm16.406,1.578,5.048-36.279,15.459,2.208a18.63,18.63,0,0,1,9.465,3.154,18.127,18.127,0,0,1,4.732,6.941,19.808,19.808,0,0,1,.631,9.78,30.426,30.426,0,0,1-3.155,9.464,23.858,23.858,0,0,1-6.625,5.993c-2.839,1.262-6.31,1.578-10.727.946Zm8.2-4.1,5.679.946c2.839.316,5.048.316,6.941-.63,1.577-.632,2.839-1.893,4.1-4.1a16.65,16.65,0,0,0,2.524-6.941,18.183,18.183,0,0,0-.315-7.255,9.284,9.284,0,0,0-3.155-5.047c-1.262-1.262-3.786-2.209-7.572-2.524l-4.417-.632Zm27.133,9.78L494.38,705.08l7.572.946,8.2,38.8-7.572-1.262-2.208-10.41-14.828-2.208-5.363,9.149Zm13.251-12.935,11.042,1.893-3.155-15.458Z"/><path class="cls-2" d="M236.937,147.01c-6.31-5.047-10.727-11.672-11.042-20.189,0-10.1,8.518-19.56,13.566-28.077C270.379,57.415,288.047,38.488,265.962,0c6.941,1.262,17.352,10.726,22.716,17.667,9.78,16.088,10.411,33.124,4.417,52.052-6.625,15.458-27.448,35.017-20.823,53,5.994,16.72,27.764,17.981,20.823.63-3.786-9.149-8.2-10.095-5.363-20.505,4.417-17.035,26.5-38.488,16.721-58.679,22.4,12.3,8.834,46.375,10.727,52.369,1.262,5.047,18.3,20.189,17.037,30.285-3.155,25.237-32.5,34.7-53.319,33.439-8.2,0-29.026-3.155-41.961-13.25Z"/><path class="cls-2" d="M137.556,166.884c-12.62,0-52.688-7.255-53-33.755,0-9.78,8.2-19.245,13.251-27.762,31.234-41.327,48.9-60.255,26.817-98.743,6.941.946,17.352,10.726,22.716,17.667,9.465,16.088,10.411,33.124,4.1,51.737-6.31,15.774-27.448,35.333-20.823,53.315,6.31,16.72,27.764,17.981,20.823.314-3.47-9.149-8.2-9.779-5.363-20.505,4.732-16.72,26.817-38.172,17.037-58.677,22.085,12.618,8.518,46.689,10.727,52.684.946,5.047,18.3,20.189,17.037,30.284-3.155,24.923-32.5,34.7-53.319,33.441Z"/><path class="cls-2" d="M420.555,166.884c-12.62,0-53-7.255-53-33.755-.316-9.78,8.2-19.245,13.251-27.762,31.234-41.327,48.9-60.255,26.817-98.743,6.625.946,17.352,10.726,22.716,17.667,9.465,16.088,10.411,33.124,4.1,51.737-6.31,15.774-27.448,35.333-20.823,53.315,6.31,16.72,27.764,17.981,20.823.314-3.786-9.149-8.2-9.779-5.363-20.505,4.732-16.72,26.5-38.172,17.037-58.677,22.085,12.618,8.518,46.689,10.727,52.684.946,5.047,18.3,20.189,17.037,30.284-3.155,24.923-32.5,34.7-53.319,33.441Z"/><path class="cls-1" d="M385.219,209.474c10.727-2.524,23.662-3.155,36.6-2.839,12.62.63,25.555,2.208,36.282,5.363,15.459-9.464,17.668-27.131,1.577-35.018a287.945,287.945,0,0,0-36.913-4.732,243.929,243.929,0,0,0-36.913,2.208c-16.406,6.625-15.775,24.608-.631,35.018Z"/><path class="cls-1" d="M421.5,214.205c12.3.316,25.555,2.208,35.966,5.679-.316.946-.631,11.041-.946,20.821-23.662-3.786-47.64-6.309-71.617-8.518,0-6.939.316-14.2.316-14.826a133.047,133.047,0,0,1,36.282-3.155Z"/><path class="cls-1" d="M279.213,819.911h0l-.316-.63c-11.673-17.983-12.935-35.018-14.2-51.106v-7.257h29.026v7.257c-1.262,16.088-2.524,33.124-14.2,51.106Z"/><path class="cls-1" d="M157.116,826.851h0l-.631-.632c-11.989-17.666-13.882-34.385-15.775-50.475,0-.316,0-3.155-.316-6.941,9.78-1.262,19.245-2.208,29.026-3.155.316,4.733.316,8.518.316,9.15-.631,16.088-1.577,33.124-12.3,51.421Z"/><path class="cls-1" d="M401.309,826.851h0l-.316-.632c-11.042-18.3-11.673-35.333-12.3-51.421,0-.632,0-4.1.315-8.518,9.465.632,19.245,1.893,28.71,2.839,0,3.47,0,6.309-.315,6.625-1.577,16.089-3.47,32.809-15.775,50.475Z"/><path class="cls-1" d="M78.243,882.375h22.085V966.29c0,6.941,1.893,12.3,5.994,16.4S116.1,989,123.358,989c7.887,0,14.2-2.209,18.3-6.31,4.732-4.1,6.941-9.463,6.941-16.72v-83.6h21.769v85.493c0,12.618-4.1,22.713-12.62,29.97-8.518,6.941-20.192,10.726-34.389,10.726s-25.555-3.471-33.442-10.726C82.344,990.9,78.243,980.8,78.243,967.552Zm139.764,19.559v29.023h43.538V949.57H218.007v56.784H195.922V882.375h81.713v19.559Zm101.274,58.993v45.427H297.2V882.375c14.513-.632,23.347-.947,25.871-.947,19.561,0,33.758,3.155,42.907,9.149s13.566,15.143,13.566,28.077c0,28.392-16.721,42.589-50.479,42.589-2.208,0-5.679,0-9.78-.316Zm0-59.625v39.75a49.678,49.678,0,0,0,8.834.632c10.1,0,17.352-1.578,22.085-5.049,4.417-3.154,6.941-8.833,6.941-16.4,0-12.62-10.411-19.243-31.234-19.243-2.208,0-4.417.314-6.625.314Zm101.9.632v29.023H462.2V949.57H421.186V986.8h56.158v19.559H399.1V882.375H478.29v19.559Z"/><path class="cls-3" d="M1406.085,416.879c-2.635,2.538-6.734,4.2-12.3,4.2-5.368,0-9.468-1.464-12.2-4.2-3.221-3.221-4.295-7.223-4.295-14.642h8.395c0,4.588.488,7.126,2.343,9.078a8.907,8.907,0,0,0,11.713-.1c1.855-2.05,2.245-4.686,2.245-9.273,0-8-1.171-10.444-6.832-12.787l-7.907-3.221c-7.125-2.928-9.468-6.833-9.468-17.375,0-6.052,1.757-11.03,5.271-14.251a15.729,15.729,0,0,1,11.03-4c5.076,0,8.883,1.464,11.519,4,3.514,3.417,4.587,7.907,4.587,14.251h-8.395c0-3.709-.39-6.247-2.147-8.395a6.843,6.843,0,0,0-5.661-2.343,7.012,7.012,0,0,0-5.368,2.147c-1.659,1.854-2.44,4.686-2.44,8.3,0,6.833,1.073,8.883,6.638,11.225l7.809,3.221c7.906,3.221,9.761,8.1,9.761,19.034C1410.38,408.972,1409.4,413.56,1406.085,416.879Z"/><path class="cls-3" d="M1447.861,416.586a16.136,16.136,0,0,1-11.615,4.587,15.909,15.909,0,0,1-11.519-4.587c-2.831-2.831-4.49-6.931-4.49-12.006V350.894h8.395v54.174c0,5.466,3.417,8.589,7.614,8.589s7.711-3.124,7.711-8.589V350.894h8.395V404.58C1452.351,409.655,1450.692,413.755,1447.861,416.586Z"/><path class="cls-3" d="M1479.874,391.4h-7.224v28.99h-8.395v-69.5h15.618c10.541,0,16.5,4.88,16.5,20.3C1496.37,386.425,1490.221,391.4,1479.874,391.4Zm-.293-32.992h-6.931v25.476h6.931c5.661,0,8.395-3.417,8.395-12.689C1487.976,361.826,1485.243,358.41,1479.581,358.41Z"/><path class="cls-3" d="M1506.714,420.393v-69.5h26.843v7.516h-18.448v23.329h15.91v7.516h-15.91v23.622h18.448v7.516Z"/><path class="cls-3" d="M1569.28,420.393l-9.566-29.869H1552.2v29.869H1543.8v-69.5h15.715c10.542,0,16.4,4.587,16.4,19.815,0,9.663-2.343,15.325-8.395,18.155l10.639,31.528Zm-9.664-61.982H1552.2v24.7h7.418c6.442,0,7.907-4.978,7.907-12.4S1566.058,358.41,1559.616,358.41Z"/><path class="cls-3" d="M1588.212,420.393v-69.5h8.395v69.5Z"/><path class="cls-3" d="M1635.551,420.393l-17.96-47.536v47.536H1609.2v-69.5h7.809l17.766,47.536V350.894h8.395v69.5Z"/><path class="cls-3" d="M1671.663,358.41v61.982h-8.395V358.41h-11.713v-7.516h31.724v7.516Z"/><path class="cls-3" d="M1691.574,420.393v-69.5h26.843v7.516h-18.448v23.329h15.91v7.516h-15.91v23.622h18.448v7.516Z"/><path class="cls-3" d="M1755.017,420.393l-17.96-47.536v47.536h-8.395v-69.5h7.809l17.766,47.536V350.894h8.395v69.5Z"/><path class="cls-3" d="M1803.136,415.512c-2.538,2.831-6.247,4.88-11.909,4.88h-16.008v-69.5h16.008c5.662,0,9.371,2.05,11.909,4.88,4.489,4.783,4.978,11.03,4.978,29.869S1807.625,410.729,1803.136,415.512Zm-6.247-54.467a7.333,7.333,0,0,0-5.955-2.635h-7.32v54.466h7.32a7.334,7.334,0,0,0,5.955-2.635c2.635-3.221,2.83-8.59,2.83-24.6S1799.524,364.267,1796.889,361.046Z"/><path class="cls-3" d="M1818.947,420.393v-69.5h26.843v7.516h-18.448v23.329h15.91v7.516h-15.91v23.622h18.448v7.516Zm19.62-74.379-5.857-8.492-5.856,8.492h-6.442l9.078-13.177h6.442l9.077,13.177Z"/><path class="cls-3" d="M1882.39,420.393l-17.96-47.536v47.536h-8.395v-69.5h7.809l17.766,47.536V350.894H1890v69.5Z"/><path class="cls-3" d="M1928.654,417.367a15.309,15.309,0,0,1-10.736,3.807c-5.467,0-9.273-2.05-11.909-5.076-4.587-5.271-5.075-11.225-5.075-30.455s.488-25.183,5.075-30.454c2.636-3.026,6.442-5.076,11.909-5.076,4.88,0,8.3,1.464,11.029,4.1,3.222,3.124,4.881,8.1,4.979,13.763h-8.3c-.1-2.928-.586-5.856-2.245-7.906a6.624,6.624,0,0,0-5.466-2.44,6.8,6.8,0,0,0-5.76,2.636c-2.439,3.319-2.83,8.882-2.83,25.378s.391,22.06,2.83,25.379a6.8,6.8,0,0,0,5.76,2.635,6.624,6.624,0,0,0,5.466-2.44c1.562-2.05,2.147-5.076,2.245-8h8.3C1933.827,409.07,1932.071,414.243,1928.654,417.367Z"/><path class="cls-3" d="M1943.878,420.393v-69.5h8.395v69.5Z"/><path class="cls-3" d="M1990.632,420.393l-3.319-16.4h-16.105l-3.318,16.4H1959.1l16.2-69.5h8.1l16.105,69.5Zm-11.323-55.931-6.54,32.016h12.982Z"/><path class="cls-3" d="M1407.745,532.639c-2.538,2.831-6.247,4.88-11.909,4.88h-16.008v-69.5h16.008c5.662,0,9.371,2.05,11.909,4.88,4.489,4.783,4.978,11.03,4.978,29.869S1412.235,527.856,1407.745,532.639Zm-6.247-54.467a7.334,7.334,0,0,0-5.955-2.635h-7.32V530h7.32a7.334,7.334,0,0,0,5.955-2.635c2.635-3.221,2.83-8.59,2.83-24.6S1404.133,481.393,1401.5,478.172Z"/><path class="cls-3" d="M1423.555,537.519v-69.5H1450.4v7.516H1431.95v23.329h15.91v7.516h-15.91V530H1450.4v7.516Z"/><path class="cls-3" d="M1494.806,475.537v61.982h-8.395V475.537H1474.7v-7.516h31.724v7.516Z"/><path class="cls-3" d="M1514.716,537.519v-69.5h26.843v7.516h-18.448v23.329h15.91v7.516h-15.91V530h18.448v7.516Z"/><path class="cls-3" d="M1577.867,534.493a15.309,15.309,0,0,1-10.736,3.807c-5.467,0-9.273-2.05-11.909-5.076-4.587-5.271-5.075-11.225-5.075-30.455s.488-25.183,5.075-30.454c2.636-3.026,6.442-5.076,11.909-5.076,4.88,0,8.3,1.464,11.029,4.1,3.222,3.124,4.881,8.1,4.979,13.763h-8.3c-.1-2.928-.586-5.856-2.245-7.906a6.624,6.624,0,0,0-5.466-2.44,6.8,6.8,0,0,0-5.76,2.636c-2.439,3.319-2.83,8.882-2.83,25.378s.391,22.06,2.83,25.379a6.8,6.8,0,0,0,5.76,2.635,6.625,6.625,0,0,0,5.466-2.44c1.562-2.05,2.147-5.076,2.245-8h8.3C1583.04,526.2,1581.284,531.37,1577.867,534.493Z"/><path class="cls-3" d="M1619.446,537.519l-17.96-47.536v47.536h-8.395v-69.5h7.809l17.766,47.536V468.021h8.395v69.5Z"/><path class="cls-3" d="M1666.881,533.224a16.508,16.508,0,0,1-23.817,0c-4.489-4.978-5.075-11.225-5.075-30.455s.586-25.476,5.075-30.454a16.507,16.507,0,0,1,23.817,0c4.49,4.978,5.075,11.225,5.075,30.454S1671.371,528.246,1666.881,533.224Zm-6.247-55.833a6.609,6.609,0,0,0-5.661-2.636,6.8,6.8,0,0,0-5.76,2.636c-2.439,3.319-2.83,8.882-2.83,25.378s.391,22.06,2.83,25.379a6.8,6.8,0,0,0,5.76,2.635,6.61,6.61,0,0,0,5.661-2.635c2.44-3.319,2.929-8.882,2.929-25.379S1663.075,480.71,1660.634,477.391Z"/><path class="cls-3" d="M1682.788,537.519v-69.5h8.395V530h18.448v7.516Z"/><path class="cls-3" d="M1743.305,533.224a16.508,16.508,0,0,1-23.817,0c-4.489-4.978-5.075-11.225-5.075-30.455s.586-25.476,5.075-30.454a16.507,16.507,0,0,1,23.817,0c4.49,4.978,5.075,11.225,5.075,30.454S1747.8,528.246,1743.305,533.224Zm-6.247-55.833a6.609,6.609,0,0,0-5.661-2.636,6.8,6.8,0,0,0-5.76,2.636c-2.439,3.319-2.83,8.882-2.83,25.378s.391,22.06,2.83,25.379a6.8,6.8,0,0,0,5.76,2.635,6.61,6.61,0,0,0,5.661-2.635c2.44-3.319,2.929-8.882,2.929-25.379S1739.5,480.71,1737.058,477.391Z"/><path class="cls-3" d="M1775.024,538.3a15.3,15.3,0,0,1-11.909-5.076c-4.489-4.978-5.075-11.225-5.075-30.455s.586-25.476,5.075-30.454a16.653,16.653,0,0,1,23.134-.781c3.222,3.221,4.686,8.1,4.783,13.666h-8.3c-.1-4.685-1.269-10.444-7.711-10.444a6.8,6.8,0,0,0-5.76,2.636c-2.439,3.319-2.83,8.882-2.83,25.378s.391,22.06,2.83,25.379a6.8,6.8,0,0,0,5.76,2.635c4.88,0,7.711-4,7.711-9.663V507.162h-7.711v-6.93h16.105v20.6C1791.032,532.444,1784.1,538.3,1775.024,538.3Z"/><path class="cls-3" d="M1802.059,537.519v-69.5h8.395v69.5Z"/><path class="cls-3" d="M1848.813,537.519l-3.319-16.4h-16.105l-3.318,16.4h-8.785l16.2-69.5h8.1l16.105,69.5Zm-11.323-55.931-6.54,32.016h12.982Z"/><path class="cls-3" d="M1910.6,532.639c-2.538,2.831-6.247,4.88-11.909,4.88h-16.008v-69.5h16.008c5.662,0,9.371,2.05,11.909,4.88,4.489,4.783,4.978,11.03,4.978,29.869S1915.085,527.856,1910.6,532.639Zm-6.247-54.467a7.334,7.334,0,0,0-5.955-2.635h-7.32V530h7.32a7.334,7.334,0,0,0,5.955-2.635c2.635-3.221,2.83-8.59,2.83-24.6S1906.984,481.393,1904.349,478.172Z"/><path class="cls-3" d="M1951.689,537.519l-3.319-16.4h-16.105l-3.318,16.4h-8.785l16.2-69.5h8.1l16.105,69.5Zm-11.323-55.931-6.54,32.016h12.982Z"/><path class="cls-3" d="M1379.828,654.645v-69.5h8.395v69.5Z"/><path class="cls-3" d="M1427.167,654.645l-17.96-47.536v47.536h-8.395v-69.5h7.809l17.766,47.536V585.147h8.395v69.5Z"/><path class="cls-3" d="M1455.764,592.663v23.329h15.91v7.516h-15.91v31.138h-8.395v-69.5h26.843v7.516Z"/><path class="cls-3" d="M1510.718,650.35a16.508,16.508,0,0,1-23.817,0c-4.489-4.978-5.075-11.225-5.075-30.455s.586-25.476,5.075-30.454a16.507,16.507,0,0,1,23.817,0c4.49,4.978,5.075,11.225,5.075,30.454S1515.208,645.372,1510.718,650.35Zm-6.247-55.833a6.609,6.609,0,0,0-5.661-2.636,6.8,6.8,0,0,0-5.76,2.636c-2.439,3.319-2.83,8.882-2.83,25.378s.391,22.06,2.83,25.379a6.8,6.8,0,0,0,5.76,2.635,6.61,6.61,0,0,0,5.661-2.635c2.44-3.319,2.929-8.882,2.929-25.379S1506.911,597.836,1504.471,594.517Z"/><path class="cls-3" d="M1552.1,654.645l-9.566-29.869h-7.516v29.869h-8.395v-69.5h15.715c10.542,0,16.4,4.587,16.4,19.815,0,9.663-2.343,15.325-8.395,18.155l10.639,31.528Zm-9.664-61.982h-7.418v24.7h7.418c6.442,0,7.907-4.978,7.907-12.4S1548.88,592.663,1542.438,592.663Z"/><path class="cls-3" d="M1606.467,654.645V605.157l-11.03,32.5h-5.173l-10.835-31.723v48.708h-8.395v-69.5h7.906L1593,623.8l13.959-38.654h7.906v69.5Z"/><path class="cls-3" d="M1653.218,654.645l-3.319-16.4h-16.105l-3.318,16.4h-8.785l16.2-69.5h8.1l16.105,69.5Zm-11.323-55.931-6.54,32.016h12.982Z"/><path class="cls-3" d="M1695.381,651.619a15.309,15.309,0,0,1-10.736,3.807c-5.467,0-9.273-2.05-11.909-5.076-4.587-5.271-5.075-11.225-5.075-30.455s.488-25.183,5.075-30.454c2.636-3.026,6.442-5.076,11.909-5.076,4.88,0,8.3,1.464,11.029,4.1,3.222,3.124,4.881,8.1,4.979,13.763h-8.3c-.1-2.928-.586-5.856-2.245-7.906a6.624,6.624,0,0,0-5.466-2.44,6.8,6.8,0,0,0-5.76,2.636c-2.439,3.319-2.83,8.882-2.83,25.378s.391,22.06,2.83,25.379a6.8,6.8,0,0,0,5.76,2.635,6.625,6.625,0,0,0,5.466-2.44c1.562-2.05,2.147-5.076,2.245-8h8.3C1700.555,643.322,1698.8,648.5,1695.381,651.619Zm-12.688,20.791h-6.247l5.563-14.056h5.563Z"/><path class="cls-3" d="M1736.863,654.645l-3.319-16.4h-16.105l-3.318,16.4h-8.785l16.2-69.5h8.1l16.105,69.5Zm-5.955-75.355c-5.075,0-6.539-3.124-9.858-3.124-1.854,0-3.123,1.074-4.393,2.245l-3.514-3.611c2.733-2.831,4.881-4.2,7.711-4.2,5.174,0,6.052,3.221,9.859,3.221,1.952,0,3.123-1.074,4.295-2.245l3.709,3.611C1736.57,577.338,1734.129,579.29,1730.908,579.29Zm-5.368,19.425L1719,630.731h12.982Z"/><path class="cls-3" d="M1780.2,650.35a16.508,16.508,0,0,1-23.817,0c-4.489-4.978-5.075-11.225-5.075-30.455s.586-25.476,5.075-30.454a16.507,16.507,0,0,1,23.817,0c4.49,4.978,5.075,11.225,5.075,30.454S1784.688,645.372,1780.2,650.35Zm-6.247-55.833a6.609,6.609,0,0,0-5.661-2.636,6.8,6.8,0,0,0-5.76,2.636c-2.439,3.319-2.83,8.882-2.83,25.378s.391,22.06,2.83,25.379a6.8,6.8,0,0,0,5.76,2.635,6.61,6.61,0,0,0,5.661-2.635c2.44-3.319,2.929-8.882,2.929-25.379S1776.391,597.836,1773.951,594.517Z"/><path class="cls-4" d="M1021.234,567.853a104.994,104.994,0,0,0-4.489-25.445c-10.438-33.135-38.19-59.573-71.917-68.106-11.708-2.962-23.368-3.221-35.217-3.221l-88.349.033a43.252,43.252,0,0,1-6.385-.372c-14.546-2.176-26.972-12.443-30.373-27.087a36.2,36.2,0,0,1,20.382-41.1c5.69-2.495,13.182-2.842,20.427-2.842l181.623.052-7.574-11.563-174.049-.052c-8.5,0-17.423.462-25.179,3.863a47.8,47.8,0,0,0-26.894,54.254c4.375,18.839,20.047,32.933,39.925,35.907a54.311,54.311,0,0,0,8.1.5l88.349-.033c11.091,0,21.913.219,32.381,2.868,29.509,7.466,54.523,31.162,63.724,60.37a93.029,93.029,0,0,1,3.975,22.659l.016.261.027.26c1.027,9.759-.488,21.273-4.264,32.422A92.286,92.286,0,0,1,989.88,630.2c-13.721,16.908-33.441,28.9-52.752,32.084-11.5,1.894-22.935,1.894-35.047,1.894H738.3l28.571-43.623s151.7.03,153.941.018h.263l.262-.013a47.468,47.468,0,0,0,41.847-64.742A47.17,47.17,0,0,0,919.8,525.921c-9.924-.034-100.455-.047-101.936-.056-4.814-.135-7.477-.211-9.175-.388-20.505-2.141-48.568-14.024-65.835-40.953a91.733,91.733,0,0,1-7.535-83.874,87.973,87.973,0,0,1,25.361-34.556A93.607,93.607,0,0,1,799.861,346.8c10.221-2.409,21.1-2.409,31.612-2.409H970.665l-7.574-11.563H831.473c-11.547,0-22.908.041-34.264,2.717a105.671,105.671,0,0,0-43.9,21.644,99.747,99.747,0,0,0-28.7,39.117,103.664,103.664,0,0,0,8.518,94.459c18.419,28.725,48.659,43.528,74.368,46.212,2.148.224,4.821.356,10.167.506,2.162.025,94.641,0,102.106,0a35.765,35.765,0,0,1,32.671,22.6,35.905,35.905,0,0,1-31.685,48.919c-2.238.011-160.13-.021-160.13-.021L716.9,675.739H902.081c12.487,0,24.552-.009,36.927-2.048,23.293-3.838,45.129-18.065,59.851-36.208a104.16,104.16,0,0,0,17.564-32.289C1020.363,593.561,1022.526,580.131,1021.234,567.853Z"/><path class="cls-5" d="M1274.535,455.041v209.13l-43.572,0V455.041h43.572m11.563-11.563h-66.7V675.74l66.7-.007V443.477Z"/><polygon class="cls-5" points="1286.094 332.824 1219.396 332.83 1219.396 344.393 1274.532 344.388 1274.537 388.208 1219.396 388.208 1219.396 399.772 1286.101 399.771 1286.094 332.824"/><polygon class="cls-6" points="1219.396 344.393 1219.396 332.83 963.091 332.83 970.665 344.393 1219.396 344.393"/><polygon class="cls-6" points="1142.254 388.207 1142.254 664.176 1098.667 664.176 1098.673 388.214 999.363 388.208 1006.937 399.771 1087.109 399.765 1087.104 675.739 1153.817 675.739 1153.817 399.771 1219.396 399.772 1219.396 388.208 1142.254 388.207"/></g></g></svg>